<?xml version="1.0" encoding="UTF-8"?> <!-- Generator: Adobe Illustrator 24.2.0, SVG Export Plug-In . SVG Version: 6.00 Build 0) --> <svg xmlns="http://www.w3.org/2000/svg" xmlns:xlink="http://www.w3.org/1999/xlink" version="1.1" x="0px" y="0px" viewBox="0 0 1156.4 206" style="enable-background:new 0 0 1156.4 206;" xml:space="preserve"> <style type="text/css"> .st0{display:none;} .st1{display:inline;} .st2{display:inline;clip-path:url(#SVGID_2_);} .st3{fill:#FF931D;} .st4{display:inline;opacity:0.6;} .st5{opacity:0.2;fill:#FF931D;} </style> <g id="Layer_2" class="st0"> <g> <defs> <rect id="SVGID_1_" x="-461.3" y="-146.8" width="1617.7" height="1213.3"></rect> </defs> <use xlink:href="#SVGID_1_" style="display:inline;overflow:visible;fill:#FFBC27;"></use> <clipPath id="SVGID_2_" class="st1"> <use xlink:href="#SVGID_1_" style="overflow:visible;"></use> </clipPath> <g class="st2"> <path class="st3" d="M347.6,1534.7l-1.4,0l0.5,0l0.8-1074.8l0,0c17.5,0-16.8,3.3,0,0l207.5,1054.8 C487,1528,417.2,1534.7,347.6,1534.7z M136.5,1513.9c-69.1-13.8-137-34.5-202-61.6l413-992.5c15.8,6.6-16.8-3.4,0,0L136.5,1513.9 z M757.2,1453.8L347.5,459.9c15.9-6.6-14.4,9.6,0,0l595.8,894.7C884.8,1393.6,822.1,1427,757.2,1453.8z M-251.2,1352.5 c-58.2-39.1-112.8-84.1-162.3-133.7l761-758.9c12.3,12.4-14.5-9.7,0,0L-251.2,1352.5z M1106.1,1221.4L347.5,459.9 c12.4-12.3-9.7,14.5,0,0l892.4,599.3C1200.8,1117.3,1155.8,1171.9,1106.1,1221.4z M-546.8,1056.1c-39.1-58.5-72.5-121.1-99.3-186 l993.6-410.2c6.6,15.9-9.6-14.4,0,0L-546.8,1056.1z M1339.8,873.5L347.5,459.9c6.6-15.8-3.4,16.8,0,0l1054,211.6 C1387.7,740.6,1366.9,808.5,1339.8,873.5z M-707.1,667.8c-13.4-68.2-20.2-138.1-20.2-208l0-2.1l0,1.4l1074.8,0.7l0,0 c0,17.6-3.3-16.9,0,0L-707.1,667.8z M1422.4,461.9l0-0.5l-1074.9-1.5l0,0c0-17.7,3.3,16.9,0,0L1402,250.6 c13.6,68.5,20.4,138.9,20.4,209.2L1422.4,461.9z M347.5,459.9L-706.6,249.4c13.7-69.1,34.4-137.1,61.5-202.1L347.5,459.9 C340.9,475.7,350.8,443.1,347.5,459.9z M347.5,459.9C340.9,444,357.1,474.3,347.5,459.9l893.8-597.3 c39.1,58.5,72.6,121,99.5,185.9L347.5,459.9z M347.5,459.9l-892.9-598.3c39-58.2,84-112.8,133.6-162.4L347.5,459.9 C335.1,472.2,357.2,445.4,347.5,459.9z M347.5,459.9C335.1,447.5,361.9,469.6,347.5,459.9l597.9-893.4 c58.2,39,112.9,83.9,162.5,133.6L347.5,459.9z M347.5,459.9l-596.7-894.1c58.5-39.1,121.1-72.5,186-99.4L347.5,459.9 C331.6,466.5,361.9,450.2,347.5,459.9z M347.5,459.9C331.7,453.3,364.3,463.2,347.5,459.9L557.4-594.5 c69.1,13.7,137.1,34.3,202.1,61.3L347.5,459.9z M347.5,459.9L139-594.7c68.4-13.5,138.5-20.3,208.6-20.3h0.4L347.5,459.9 L347.5,459.9C329.9,459.9,364.4,456.5,347.5,459.9z"></path> </g> </g> </g> <g id="Layer_3" class="st0"> <g> <g class="st1"> <path class="st3" d="M674.4,452.2c98.4,0,196.8,1.7,295.3,5.1c98.4,3.4,196.7,8.6,295,15.4c49.2,3.4,98.3,7.3,147.4,11.5 c49.1,4.3,98.1,9,147.2,14.1c98.1,10.2,196.1,22.1,294,35.8c3.3-69.9,2.2-140.5-4.3-210.8c-48.6,8.8-97.2,17.2-145.9,25.1 c-24.3,4-48.7,7.8-73.1,11.6c-24.4,3.8-48.8,7.4-73.2,11c-97.7,14.2-195.4,26.6-293.3,37.4c-48.9,5.4-98,10.3-147,14.8 c-49.1,4.5-98.1,8.6-147.2,12.3C871,442.7,772.8,448.3,674.4,452.2z"></path> <path class="st3" d="M670.2,405.8c97.2-15,194.6-29.2,292.2-42.5c97.5-13.3,195.1-25.7,292.8-37.3 c195.4-23.1,391.4-42.9,587.7-59.1l-3.7-26.3c-0.6-4.4-1.2-8.8-1.9-13.1l-2.1-13.1l-2.2-13.1c-0.7-4.4-1.5-8.7-2.3-13.1l-5-26.1 c-191.2,47.4-383.1,91.4-575.7,132c-96.2,20.3-192.8,39.8-289.4,58.4C863.9,371.1,767.1,388.9,670.2,405.8z"></path> <path class="st3" d="M659.9,362.1c188.4-56.9,377.7-110.4,568-160.7c95.2-25.1,190.6-49.4,286.2-72.8 c95.6-23.4,191.4-46,287.5-67.7l-3.5-12.8l-3.7-12.7c-2.5-8.5-5-17-7.7-25.4c-5.4-16.9-10.8-33.7-16.8-50.4 C1404.7,106.8,1034.2,241.2,659.9,362.1z"></path> <path class="st3" d="M642.7,318.7c357.9-163.6,727.7-302.1,1106.6-414.3c-13.1-32.9-27.3-65.2-42.5-97.1 c-15.4-31.8-31.8-63.1-49.2-93.8C1333.2-60.9,994,141.4,642.7,318.7z"></path> <path class="st3" d="M612.9,268.6c80.3-56.9,161.1-113,242.4-168.5c81.3-55.4,163-110.2,245.3-164.2 c164.5-108,331-213.3,499.3-315.6c-4.9-7.3-9.9-14.5-15-21.8l-7.6-10.8l-7.7-10.7c-5.2-7.1-10.3-14.3-15.6-21.3l-16-21 c-150,127.8-302.1,252.8-456.2,375.1C927.6,32.1,771.2,151.8,612.9,268.6z"></path> <path class="st3" d="M557.2,208.7c64.7-74.1,130.7-147.1,198-219.1C822.4-82.1,891-152.8,960.8-222.4 c69.9-69.6,140.9-137.9,213.1-205c36.1-33.6,72.6-66.8,109.3-99.8c18.4-16.5,36.8-32.9,55.4-49.2c18.5-16.3,37.1-32.5,55.8-48.7 c-50.7-48.9-104.8-94.4-161.9-135.8C1029.9-421.8,804.1-97.7,557.2,208.7z"></path> <path class="st3" d="M523.2,183.7C630.9,19,741.4-143.7,854.9-304.6C911.6-385,969.1-465,1027.2-544.4 c58.1-79.4,117-158.3,176.5-236.8l-10.9-7.5l-11-7.3c-7.4-4.9-14.7-9.8-22.2-14.5l-22.5-14.1l-5.6-3.5l-5.7-3.4l-11.4-6.8 c-46.3,86.9-93.3,173.4-141.1,259.5c-23.9,43-48,85.9-72.2,128.7c-24.3,42.8-48.7,85.5-73.4,128.1 C729.2-151.6,627.6,17,523.2,183.7z"></path> <path class="st3" d="M485.9,163.2c170.2-355,352.9-703.7,547.9-1046.1c-31.5-16-63.6-31.1-96.2-45 C799.9-558.6,649.3-194.9,485.9,163.2z"></path> <path class="st3" d="M435.6,144.7C547.8-232.5,686.9-602.3,851.7-961.2c-66.7-23.8-135.2-42.5-204.4-56.6 c-10.8,98.2-23.4,196.2-37.6,293.8C602.6-675.3,595-626.6,587-578c-8,48.7-16.4,97.2-25.2,145.7c-17.7,97-37,193.5-58,289.6 C482.8-46.4,460,49.4,435.6,144.7z"></path> <path class="st3" d="M372.5,133.7c17.6-195.9,40.3-391.5,68.1-586.5c27.8-194.8,60.7-389.2,98.7-582.8 c-13.1-1.6-26.2-3.1-39.3-4.5c-13.1-1.2-26.2-2.4-39.3-3.5c-13.1-0.9-26.2-1.7-39.3-2.4c-13.1-0.5-26.3-1-39.4-1.4 c8.6,197.1,12.1,394.2,10.6,591C390.8-259.4,384.2-62.6,372.5,133.7z"></path> <path class="st3" d="M309.3,134.9c-18.6-196-30.3-392.5-35.1-589.6c-2.4-98.5-3.1-197-2-295.7c0.5-49.3,1.5-98.7,2.9-148 c1.4-49.3,3.2-98.6,5.4-148c-4.4,0.2-8.8,0.4-13.2,0.6l-13.2,0.8c-8.8,0.6-17.6,1.1-26.4,1.8c-17.6,1.5-35.2,3-52.7,5.2 l-13.2,1.5l-6.6,0.8l-6.6,0.9l-26.3,3.7c-4.4,0.6-8.7,1.3-13.1,2l-13.1,2.2l-13.1,2.2c-4.4,0.7-8.7,1.6-13.1,2.4 c13.4,47.5,26.3,95.1,38.9,142.9c12.5,47.8,24.6,95.6,36.3,143.5c11.7,47.9,22.9,95.9,33.8,144c10.8,48.1,21.2,96.2,31.2,144.5 c20,96.5,38.2,193.3,54.7,290.3c4.1,24.3,8.1,48.5,12.1,72.8c3.9,24.3,7.7,48.6,11.4,73C295.8,37.4,302.8,86.2,309.3,134.9z"></path> <path class="st3" d="M253.1,146.5C198-42.4,146.2-232.3,97.8-423.1c-48.4-190.7-93.4-382.4-135-575l-25.6,7 c-8.5,2.4-17,5-25.5,7.5l-12.7,3.8l-12.6,4.1c-8.4,2.7-16.9,5.4-25.2,8.3C-67-784.1,1.7-599.4,67-413.8 c32.7,92.8,64.5,185.9,95.5,279.3C193.5-41.1,223.7,52.6,253.1,146.5z"></path> <path class="st3" d="M123.6,221.6C-9.7,77-140.6-70-269-219.4c-128.3-149.3-254-300.8-377.1-454.6c-26.6,23.1-52.1,47.4-77,72.4 c145.9,132.2,289.5,267.1,430.6,404.3C-151.3-60-12.7,79.5,123.6,221.6z"></path> <path class="st3" d="M22.6,425c-195.5-22.3-390.6-48-585.3-77.2c-48.7-7.3-97.3-14.8-146-22.5c-48.6-7.7-97.2-15.6-145.7-23.7 c-97.1-16.3-194-33.4-290.9-51.3l-1.8,13.1l-0.9,6.5l-0.8,6.5l-3,26.2c-0.5,4.4-0.9,8.7-1.3,13.1l-1.2,13.1 c-0.7,8.7-1.6,17.5-2.1,26.2c196.8,4.9,393.7,13.1,590.2,24.7c98.2,5.8,196.4,12.5,294.5,20C-173.5,407.4-75.4,415.8,22.6,425z"></path> <path class="st3" d="M590.8,241.3c147.7-130,297.7-257.4,449.9-382.3c152.2-124.8,306.6-247,463.1-366.5 c-22.5-27.1-46.2-53.2-70.6-78.6c-135.6,142.8-273.7,283.2-414.1,421.2c-70.2,69-141,137.3-212.4,205 c-35.7,33.8-71.5,67.5-107.5,101.1C663.3,174.7,627.1,208.1,590.8,241.3z"></path> <path class="st3" d="M160.2,191.8C105.2,110.2,51.6,27.7-0.5-55.9c-52.1-83.5-102.8-167.9-152-253.3 c-24.6-42.7-48.9-85.6-72.8-128.8c-23.9-43.1-47.3-86.4-70.5-130C-342-655-386.8-743.1-430-831.9c-7.6,4.5-15,9.2-22.5,13.9 l-11.2,7l-11.1,7.2c-7.4,4.8-14.8,9.6-22,14.6l-21.8,15l-5.4,3.8l-5.4,3.9l-10.7,7.8l-10.7,7.8c-3.6,2.6-7,5.3-10.5,8 c-7,5.3-14,10.7-21,16.1l-20.6,16.5c68.9,70.8,136.5,142.8,202.7,215.8c66.3,73.1,131.3,147.3,194.9,222.5 c31.8,37.6,63.2,75.4,94.4,113.6c31.2,38.2,62,76.6,92.4,115.3C12.1-4.6,42.2,34.3,71.9,73.5c14.9,19.6,29.7,39.2,44.4,58.9 C131,152.2,145.6,172,160.2,191.8z"></path> <path class="st3" d="M213.6,161.3C174.8,70.9,137.6-20.2,102-112c-17.8-45.9-35.2-92-52.2-138.2c-17-46.2-33.6-92.6-49.7-139.1 c-16.2-46.5-32-93.2-47.3-140.1c-15.4-46.9-30.3-93.9-44.9-140.9c-29.1-94.2-56.5-189-82.3-284.4l-24.8,9.4 c-4.1,1.6-8.2,3.2-12.3,4.9l-12.3,5l-12.3,5c-4.1,1.7-8.1,3.5-12.2,5.2c-8.1,3.5-16.2,7.1-24.3,10.7 c-32.2,14.6-63.9,30.3-94.9,47C-149.6-537.9,44.6-194.1,213.6,161.3z"></path> <path class="st3" d="M89.4,259.1C12.9,197-62.3,133.8-136.5,69C-210.7,4.3-283.9-61.8-355.7-129 c-71.9-67.3-142.7-135.9-212.4-205.8c-69.6-69.8-138-140.9-205.3-213.3l-17.5,19.8l-17.1,20.1c-5.7,6.7-11.2,13.6-16.8,20.4 c-5.5,6.9-11.1,13.7-16.5,20.7l-16.1,21c-5.3,7-10.5,14.2-15.7,21.3l-7.8,10.7l-7.6,10.8c-5,7.3-10.1,14.5-15,21.8 c86.5,47.6,172.2,96.8,256.9,147.3c42.3,25.3,84.4,50.9,126.3,76.9c41.9,26,83.6,52.4,125,79.1C-312.5-24.8-230.8,30-150,86.2 C-69.1,142.5,10.7,200.2,89.4,259.1z"></path> <path class="st3" d="M65.4,294.4C-103.1,192.9-270.1,88.4-435-19c-164.9-107.4-328-217.7-489.3-330.9l-14,22.5 c-4.6,7.5-9.1,15.1-13.6,22.7l-6.7,11.4l-6.5,11.5c-4.3,7.7-8.7,15.4-12.9,23.2c177.2,86,352.8,175.2,526.7,267.3 c87,46.1,173.5,92.9,259.6,140.5C-105.6,196.9-19.9,245.3,65.4,294.4z"></path> <path class="st3" d="M30.6,379.2c-190.5-49.7-379.9-102.7-568.5-159.1c-94.3-28.2-188.4-57.2-282.2-87.1 c-46.9-14.9-93.8-30.1-140.6-45.4c-46.8-15.3-93.5-30.9-140.1-46.7c-9.7,34-18.5,68.3-25.8,102.9 c194.3,32.5,387.8,68.3,580.7,107.5C-352.8,290.5-160.7,333.2,30.6,379.2z"></path> <path class="st3" d="M45,335.4c-45.1-19.6-90.1-39.5-135-59.9c-44.8-20.4-89.4-41.1-133.8-62.3 c-88.9-42.3-177.1-86.2-264.5-131.7C-663-9.3-835-106.5-1003.3-209.7c-8,15.8-15.3,31.9-22.8,47.9l-10.7,24.3 c-1.7,4.1-3.6,8.1-5.2,12.2l-5.1,12.3l-5,12.3c-1.7,4.1-3.3,8.2-4.9,12.3l-9.4,24.8c-1.6,4.1-3.1,8.3-4.5,12.5l-4.4,12.5 l-4.4,12.5c-1.5,4.2-2.8,8.4-4.2,12.6c48.1,11.2,96,22.8,143.9,34.9c47.9,12.1,95.6,24.5,143.2,37.4 c47.6,12.9,95.1,26.2,142.4,39.9c47.3,13.7,94.5,27.8,141.6,42.4c94.2,29.1,187.8,59.8,280.7,92.2c46.4,16.2,92.8,32.8,139,49.8 C-46.9,300.2-0.8,317.6,45,335.4z"></path> <path class="st3" d="M21.6,484.1c-98.2,5.1-196.6,8.4-295.1,10.1c-98.4,1.6-196.8,1.6-295.4-0.2c-49.3-0.9-98.5-2.2-147.8-4 c-49.3-1.8-98.5-3.9-147.7-6.6c-98.5-5.2-197-12.2-295.4-20.8c0.3,70.3,5.1,140.9,15.2,210.9 C-760.3,582.9-370.3,519.7,21.6,484.1z"></path> <path class="st3" d="M28.2,529.9c-385.4,80.2-773.4,146.8-1163.9,199.6c3.3,17.4,6.6,34.8,10.4,52.1c3.7,17.3,7.9,34.5,12.2,51.7 C-736.1,718.6-355.6,617.5,28.2,529.9z"></path> <path class="st3" d="M40.7,572.9C-5.6,589.6-51.9,606-98.4,622.3c-46.4,16.2-92.9,32.3-139.5,48.1 c-93.1,31.7-186.6,62.5-280.3,92.5c-187.5,60-376.1,116.8-565.6,170.2c11.2,33.6,23.3,66.8,36.9,99.5 c178.6-83,358.5-162.8,539.9-239.5C-325.7,716.5-143.1,643.1,40.7,572.9z"></path> <path class="st3" d="M60.2,615.6c-43.7,22.8-87.5,45.1-131.5,67c-44,22-88.2,43.5-132.7,64.7c-44.4,21.2-89.1,42-133.9,62.5 c-44.8,20.4-89.8,40.4-134.9,60.1c-90.3,39.3-181.5,77-273.3,113.1c-91.7,36.1-184.2,70.6-277.4,103.6l11.2,24 c3.8,8,7.8,15.9,11.7,23.8c2,3.9,3.9,7.9,5.9,11.8l6.1,11.7l6.2,11.7c2.1,3.9,4.1,7.8,6.3,11.7l12.9,23.1 c2.1,3.9,4.4,7.7,6.6,11.5l6.7,11.4l6.7,11.4c2.3,3.8,4.6,7.5,6.9,11.3c4.7,7.5,9.3,15,14,22.4 c78.1-60.5,157.2-119.6,237.2-177.3c40-28.8,80.2-57.3,120.7-85.4c40.5-28.1,81.3-55.9,122.2-83.3c41-27.4,82.1-54.4,123.5-81 c41.4-26.6,83-52.9,124.9-78.8C-109.8,714.7-25.2,664.4,60.2,615.6z"></path> <path class="st3" d="M92.7,664.2C15.4,725.1-62.4,785.3-140.7,844.9c-39.2,29.8-78.5,59.4-117.9,88.8 c-39.4,29.4-79,58.7-118.6,87.8c-158.7,116.3-319.6,230-482.4,340.8c21.1,28.2,43.3,55.6,66.2,82.3 C-507.1,1174.1-211.7,913.9,92.7,664.2z"></path> <path class="st3" d="M151.3,721.1c-243.2,309.5-508.2,602.1-793.3,875.8c26.7,23.1,54,45.4,82.1,66.6c7,5.3,14.2,10.5,21.3,15.7 l10.7,7.8l10.8,7.6c7.2,5,14.5,10.1,21.8,15l22.1,14.6c46.2-87.3,93.9-173.8,143.1-259.2c49.2-85.5,99.8-170.2,151.9-253.8 c26-41.8,52.4-83.4,79.2-124.7c26.8-41.4,53.9-82.5,81.4-123.3C37.3,881.5,93.6,800.9,151.3,721.1z"></path> <path class="st3" d="M186.4,744.2c-99.1,170.1-201,338.3-306,504.8c-105,166.5-213,331.3-323.8,494 c30.1,18.5,60.7,36.2,92.1,52.5c83.5-178.4,170-355.3,259.6-530.5C-2,1089.7,90.7,916.1,186.4,744.2z"></path> <path class="st3" d="M224.6,762.7c-75.7,181.6-154.8,362-236.9,540.8c-82.1,178.8-167.5,356.3-256,532.3l24.3,10.6 c8.1,3.5,16.3,6.8,24.5,10.2l12.3,5c4.1,1.6,8.3,3.2,12.4,4.8c8.3,3.2,16.5,6.3,24.8,9.4c59.2-187.9,121.7-374.7,187.4-560.2 c32.9-92.8,66.5-185.2,101.1-277.3C153.1,946.1,188.4,854.2,224.6,762.7z"></path> <path class="st3" d="M275.8,778.7c-11.6,47.8-23.6,95.6-36,143.2c-12.4,47.6-25.2,95.1-38.5,142.5 c-26.5,94.8-54.7,189.3-84.6,283.1C57.1,1535.2-9.3,1721.2-82.3,1904.7c16.9,5.2,34,9.7,51.1,14.3c8.6,2.2,17.2,4.3,25.7,6.4 l12.9,3.1l12.9,2.9c8.6,1.9,17.3,3.8,25.9,5.6l26,5c4.3,0.8,8.7,1.7,13,2.4l13,2.2c8.7,1.4,17.4,2.9,26.1,4.2 c5.8-98.6,13.3-197.1,22.5-295.3c4.6-49.1,9.6-98.1,15.1-147.1c5.4-48.9,11.3-98,17.6-146.8c12.6-97.7,26.9-195.2,42.9-292.3 C238.7,972,256.4,875.1,275.8,778.7z"></path> <path class="st3" d="M340.2,786.5c-7.7,196.5-20.5,393-38.3,589.2c-17.9,196-40.8,391.8-68.8,587.1c13.1,0.9,26.2,1.7,39.3,2.5 c13.1,0.6,26.3,1,39.4,1.5c13.2,0.2,26.3,0.4,39.5,0.4c13.2-0.1,26.4-0.3,39.6-0.6c-18.7-196.4-32.3-393.1-40.7-589.7 C341.7,1180,338.4,983.1,340.2,786.5z"></path> <path class="st3" d="M392.4,783.6c5.6,48.9,10.9,97.9,15.6,146.8c4.8,48.9,9.1,98,13,147c3.9,49.1,7.4,98.2,10.5,147.3 c3.1,49.2,5.7,98.4,7.9,147.6c4.4,98.4,7,196.9,8,295.6c0.2,24.7,0.4,49.3,0.4,74c0,24.7-0.1,49.3-0.3,74 c-0.4,49.3-1.2,98.7-2.5,148.1c70.4-4.4,140.7-14,210-28.3c-28.7-94.5-55.7-189.6-81-284.9c-12.6-47.7-24.9-95.4-36.7-143.2 c-11.8-47.8-23.2-95.9-34.1-143.9c-21.9-96.1-42.1-192.5-60.6-289.1C424.2,977.8,407.5,880.8,392.4,783.6z"></path> <path class="st3" d="M448.4,770.8c117.9,375.6,222.3,755.1,313.5,1138.5c17-5,34-10,50.8-15.5c16.9-5.4,33.5-11.3,50.2-17.2 C711.6,1512.7,573.4,1144.1,448.4,770.8z"></path> <path class="st3" d="M576.4,693.1c136.2,141.9,270.1,286.4,401.3,433c131.2,146.6,260,295.6,386.1,446.9l19.4-18 c6.4-6,12.7-12.2,19-18.3l9.4-9.2l9.3-9.4c6.2-6.3,12.4-12.6,18.4-18.9c-148.5-129.3-294.8-261.3-438.6-395.6 c-71.9-67.2-143.2-135-213.9-203.4C716.1,831.7,645.9,762.7,576.4,693.1z"></path> <path class="st3" d="M673.3,487.6c195.9,18.4,391.6,40.3,586.8,65.5c195.2,25.2,390,53.8,584.3,85.9l2.9-26.2 c0.9-8.7,1.6-17.5,2.4-26.2l1.1-13.1l0.9-13.1l1.6-26.2c-197-1-393.9-5.3-590.6-13.1c-98.3-3.9-196.6-8.6-294.8-14.1 C869.6,501.3,771.4,494.9,673.3,487.6z"></path> <path class="st3" d="M116.1,690.4C-165.5,965.2-457,1230.3-757.4,1485c11.9,13,24.2,25.5,36.6,38.1c6.2,6.2,12.5,12.4,18.8,18.5 c3.2,3.1,6.3,6.2,9.5,9.2l9.6,9c64.1-74.8,128.7-149,194.1-222.6c65.3-73.6,131.3-146.7,197.9-219.2 C-157.7,973.1-22,830.6,116.1,690.4z"></path> <path class="st3" d="M540.4,723.6c226.5,322,430.5,659.9,610.6,1011.6c29.8-18.9,59-38.6,87.4-59.5c3.6-2.6,7.1-5.2,10.7-7.8 l10.5-8l10.5-8c3.5-2.7,7-5.4,10.4-8.1l20.6-16.5c3.4-2.7,6.8-5.6,10.2-8.4l10.1-8.5c-35.1-34.7-70-69.7-104.5-105 c-34.5-35.3-68.7-70.8-102.6-106.7c-67.8-71.7-134.2-144.6-199.3-218.5c-32.5-36.9-64.8-74.2-96.7-111.7 c-31.9-37.5-63.5-75.3-94.7-113.4c-31.2-38-62.1-76.4-92.6-114.9C600.5,801.6,570.3,762.7,540.4,723.6z"></path> <path class="st3" d="M487.6,755.2c40.6,89.6,79.6,180,117.1,271.1c18.7,45.6,37,91.2,55,137.1c17.9,45.8,35.4,91.9,52.6,138.1 s33.8,92.6,50.2,139.1c16.3,46.5,32.2,93.1,47.7,140c31,93.6,60.4,187.9,88.1,282.7c8.2-3.3,16.4-6.6,24.6-10 c4.1-1.7,8.2-3.3,12.3-5.1l12.2-5.3l12.1-5.3c4-1.8,8.1-3.5,12.1-5.4l24-11.2c4-1.9,8-3.8,11.9-5.8l11.9-5.9l11.9-5.9 c3.9-2,7.8-4.1,11.8-6.1c7.8-4.1,15.6-8.2,23.4-12.4l23.1-12.9c-56.2-81.3-110.8-163.5-164-246.5 c-53.2-83.1-104.9-167.1-155.1-251.9c-25.1-42.4-49.8-84.9-74.1-127.8c-24.3-42.8-48.3-85.9-71.9-129.1 c-23.6-43.2-46.8-86.6-69.5-130.2C532,843.1,509.6,799.3,487.6,755.2z"></path> <path class="st3" d="M609.9,654.9c310.4,241.9,604.1,505.9,878.9,789.8c23-26.7,45.1-54.2,66.3-82.4 c21.1-28.3,41.2-57.3,60.4-86.9C1265.5,1091.9,929.5,884.5,609.9,654.9z"></path> <path class="st3" d="M633.1,619.2c341.3,196.2,675.5,404.2,1002.5,624.1c18.3-30.2,35.7-61,51.9-92.5 c-178.9-82.4-356.3-168-532-256.6c-43.9-22.2-87.8-44.5-131.5-67c-43.8-22.5-87.4-45.3-130.9-68.2 C806,713.2,719.3,666.6,633.1,619.2z"></path> <path class="st3" d="M666.2,533.8c191.3,45.8,381.9,95,571.6,147.6c94.9,26.3,189.5,53.4,283.9,81.4 c94.4,27.9,188.5,56.7,282.4,86.4l3.4-12.8l3.2-12.9c2.1-8.6,4.2-17.2,6.2-25.8c3.8-17.3,7.7-34.5,10.9-51.9 C1438.1,688.7,1050.4,618,666.2,533.8z"></path> <path class="st3" d="M652.6,577.9c364.2,149.1,718.3,324.1,1059.2,523.8c30.2-64,55.7-130.3,76.6-197.9 c-96.6-20.5-192.9-42.7-288.6-66.5c-47.9-11.9-95.6-24.2-143.2-37c-47.6-12.7-95.1-25.9-142.5-39.5 c-94.7-27.2-188.9-56-282.5-86.5C838.1,643.7,745,611.6,652.6,577.9z"></path> </g> <g class="st4"> <path class="st3" d="M725.1,379c114.1-21.7,228.7-41.4,343.7-59.2c114.9-17.7,230-33.5,345.6-47.2 c57.8-6.9,115.6-13.3,173.6-19.2c57.9-5.9,115.8-11.3,173.8-16.1c116-9.8,232.4-17.6,348.9-23.4 c-11.6-81.9-28.5-163.5-51.5-243.7c-54.4,20.9-109,41.4-163.7,61.4c-27.4,10-54.8,19.8-82.2,29.6c-27.5,9.7-55,19.4-82.5,28.9 c-110.2,38-220.9,74-332.1,108.1c-55.6,17-111.4,33.6-167.3,49.6c-55.9,16.1-111.9,31.6-168.1,46.7 C951.1,324.6,838.4,352.8,725.1,379z"></path> <path class="st3" d="M709.9,326c109.5-38.9,219.4-76.8,329.6-113.7c110.2-36.9,220.6-72.9,331.5-107.9 c221.6-70,444.6-136.1,668.8-198.2l-10-29.7c-1.7-4.9-3.4-9.9-5.1-14.8l-5.4-14.7l-5.4-14.7c-1.8-4.9-3.6-9.8-5.6-14.7 l-11.6-29.1c-211.4,97.2-424.3,190.6-638.7,280.2c-107.2,44.8-214.9,88.6-322.9,131.5C927,243.1,818.6,285,709.9,326z"></path> <path class="st3" d="M688.3,277.7c206-107.6,413.8-211.4,623.5-311.7c104.9-50.1,210.2-99.3,316-147.6 c105.7-48.3,211.9-95.6,318.5-142l-6.9-14.1l-7.1-14c-4.8-9.3-9.6-18.6-14.5-27.8c-10-18.4-20-36.7-30.6-54.7 C1496.1-182.8,1095.9,54.8,688.3,277.7z"></path> <path class="st3" d="M658.9,231C1038-37.7,1436.4-280,1851.2-493.8c-22.4-35.3-46.1-69.7-70.8-103.3 c-24.9-33.5-50.8-66.2-77.8-97.9C1376.1-361.7,1027.3-52.2,658.9,231z"></path> <path class="st3" d="M613.2,179.6c80.6-83.7,162-166.7,244.1-248.9c82.1-82.2,164.8-163.8,248.3-244.6 c167-161.6,337-320.5,509.6-476.3c-7.3-7.4-14.7-14.7-22.2-22l-11.2-10.9l-11.3-10.7c-7.6-7.1-15.1-14.3-22.8-21.3l-23.2-20.8 C1378.7-694.7,1229.8-516,1078-340.1C926.1-164.2,771,9.1,613.2,179.6z"></path> <path class="st3" d="M535.3,122.4C594,22.1,654.5-77.2,716.7-175.4c62.2-98.2,126.1-195.3,191.8-291.4 c65.7-96.1,133-191,202-284.8c34.5-46.9,69.5-93.5,104.8-139.9c17.7-23.2,35.5-46.3,53.4-69.3c17.9-23,35.9-45.9,53.9-68.8 c-69.6-45.5-142.4-86.4-217.8-121.8C944.7-713.4,754.2-287.6,535.3,122.4z"></path> <path class="st3" d="M490.4,100.9C579-114,671.4-327.1,767.5-538.8c48.1-105.8,97.1-211.3,147-316.3 c49.9-105,100.8-209.5,152.5-313.6l-14.3-6.3l-14.4-6.1c-9.6-4-19.2-8.1-28.9-11.9l-29.1-11.4l-7.3-2.8l-7.3-2.7l-14.7-5.3 c-34.5,111.1-70,221.8-106.5,332.1c-18.2,55.2-36.7,110.3-55.4,165.3c-18.7,55-37.7,110-56.9,164.9 C655.4-333.6,574.8-115.6,490.4,100.9z"></path> <path class="st3" d="M442.6,85.3C561.8-364,696.8-808.9,847.6-1249.1c-40.1-11.7-80.6-22-121.5-31 C647.7-821.4,553.2-366.2,442.6,85.3z"></path> <path class="st3" d="M380.2,74.9c47-462.4,126.7-922,238.7-1374.8c-82.6-12.8-166.2-19.5-249.6-20.6 c9.1,116.3,16.2,232.8,21.2,349.1c2.5,58.2,4.5,116.3,6,174.5c1.5,58.2,2.4,116.4,2.9,174.6c0.9,116.4-0.2,232.6-3.4,348.8 C392.7-157.2,387.5-41.1,380.2,74.9z"></path> <path class="st3" d="M304.5,76.1c-22.8-231.1-39.6-463.1-50.3-695.5c-10.8-232.2-15.5-465-14.1-697.9c-15.5,1-31.1,2.2-46.6,3.5 c-15.5,1.4-31,3-46.4,4.7c-15.4,1.9-30.8,3.8-46.2,5.9c-15.4,2.3-30.7,4.6-46,7.1c53.5,226.7,101,454.6,142.6,683.3 C239.1-384.1,274.8-154.3,304.5,76.1z"></path> <path class="st3" d="M231.5,91.4C166.7-131.9,109.8-357.2,60.7-584.8c-24.5-113.7-47-227.9-67.6-342.6 c-10.3-57.3-20.1-114.8-29.3-172.4c-9.3-57.5-18-115.1-26.3-172.8c-5.1,1.2-10.1,2.3-15.2,3.6l-15.1,3.9 c-10.1,2.6-20.2,5.2-30.2,7.9c-20.1,5.7-40.1,11.3-60,17.6l-14.9,4.7l-7.5,2.4l-7.4,2.5l-29.7,10.1c-4.9,1.7-9.8,3.5-14.8,5.3 l-14.7,5.4l-14.7,5.5c-4.9,1.8-9.7,3.8-14.6,5.7c26,52.2,51.5,104.5,76.6,157.2c25.1,52.6,49.7,105.5,73.8,158.5 c24.1,53,47.8,106.2,70.9,159.6c23.2,53.4,45.8,106.9,68.1,160.7c44.4,107.6,87,215.9,127.5,324.8c10.1,27.2,20.2,54.5,30.1,81.8 c9.9,27.3,19.7,54.7,29.4,82.1C194.3-18.7,213.2,36.3,231.5,91.4z"></path> <path class="st3" d="M168.8,117.3C63.3-89.7-38.7-298.6-136.9-509.3c-98.2-210.6-192.7-423.1-283.5-637.3l-28.2,13.7 c-9.3,4.7-18.6,9.5-27.9,14.3l-13.9,7.3l-13.8,7.5c-9.2,5-18.4,10-27.4,15.2c123.8,196.8,244.2,395.9,361,596.9 C-112.3-391.2-54.8-290.2,1.8-188.7C58.4-87.2,114,14.8,168.8,117.3z"></path> <path class="st3" d="M35.2,232.9C-151.4,94.6-335.7-47.1-517.5-192c-181.8-144.9-361-292.9-537.7-444.2 c-25.7,32.7-50,66.5-73.3,100.9c198.4,121.2,394.8,246,588.7,374.1C-345.8-33.1-154.2,98.2,35.2,232.9z"></path> <path class="st3" d="M-37.2,491.2c-231.7,17.2-463.7,30.4-696,39.6c-58.1,2.3-116.2,4.3-174.3,6.1c-58.1,1.8-116.2,3.3-174.3,4.6 c-116.2,2.6-232.5,4.1-348.8,4.6l0.8,15.6l0.4,7.8l0.5,7.8l2.3,31.1c0.4,5.2,0.9,10.3,1.4,15.5l1.5,15.5 c1.1,10.3,2,20.6,3.4,30.9c229.4-37.8,459.6-71.6,690.1-101.5c115.3-14.9,230.6-28.8,346.1-41.8 C-268.4,514-152.9,502.1-37.2,491.2z"></path> <path class="st3" d="M581.6,152.7C724.2-30.7,870.1-211.6,1019.2-390c149-178.4,301.2-354.1,456.5-527.3 c-32.1-26.5-65.3-51.5-99.2-75.6c-125.8,195.5-255,389-387.5,579.9c-66.3,95.5-133.3,190.4-201.2,284.7 c-33.9,47.1-68.1,94.1-102.4,141C650.9,59.5,616.4,106.2,581.6,152.7z"></path> <path class="st3" d="M71.1,190.3C-10.7,107.8-91.1,23.8-170-61.6c-78.9-85.4-156.3-172.1-232.2-260.3 c-38-44.1-75.6-88.5-112.8-133.3c-37.2-44.7-74-89.8-110.4-135.2c-72.8-90.8-144.3-183.1-214-276.6c-7.8,6.9-15.4,14-23.1,21.1 l-11.5,10.6l-11.3,10.8c-7.5,7.2-15,14.4-22.4,21.8l-21.9,22.2l-5.5,5.6l-5.4,5.7L-951-758l-10.7,11.4c-3.6,3.8-7,7.7-10.5,11.6 c-6.9,7.7-13.9,15.5-20.8,23.3l-20.3,23.7c95.6,67,189.8,135.5,282.8,205.6c93,70.2,184.8,141.9,275.2,215.1 c45.2,36.6,90,73.6,134.6,111C-276.1-119-231.8-81.2-188-43c43.9,38.1,87.4,76.7,130.5,115.5c21.6,19.4,43.1,39,64.5,58.6 C28.5,150.7,49.8,170.5,71.1,190.3z"></path> <path class="st3" d="M126.3,143.1C61.4,46.8-1.9-50.7-63.4-149.4c-30.8-49.3-61.2-99-91-148.8c-29.9-49.8-59.4-100-88.4-150.4 c-29-50.4-57.6-101.1-85.8-152.1c-28.2-51-55.9-102.2-83.2-153.6C-466.4-857.1-519.1-961-570.1-1066l-26.7,16.4 c-4.5,2.7-8.8,5.5-13.2,8.4l-13.1,8.5l-13.1,8.6c-4.4,2.9-8.7,5.8-13,8.8c-8.6,5.9-17.2,11.8-25.8,17.7 c-34.1,24.1-67.4,49.2-99.8,75.5C-449.3-587.9-148.1-231.9,126.3,143.1z"></path> <path class="st3" d="M3.8,284c-102.4-55.2-203.6-112-304-170.7C-400.6,54.6-500-5.9-598.2-68.1 c-98.3-62.2-195.6-126.2-291.8-191.9c-96.1-65.7-191.2-133-285.2-202.2l-16,26.8l-15.4,27.1c-5.2,9-10.1,18.2-15,27.4 c-4.9,9.2-9.9,18.3-14.5,27.6l-14.1,27.9c-4.6,9.3-9,18.8-13.5,28.2l-6.6,14.1l-6.4,14.3c-4.2,9.5-8.5,19-12.6,28.6 c110.9,36.1,221.2,74.2,330.5,114.2c54.7,20,109.2,40.4,163.5,61.3C-741.1-43.7-686.9-22.3-633-0.4 c107.9,43.7,214.8,89.3,320.9,136.7C-205.9,183.7-100.6,233,3.8,284z"></path> <path class="st3" d="M-16.3,330.2c-217.9-80.5-434.6-165-649.6-253.1c-215-88.2-428.6-180.2-640.6-275.9l-11.3,29.2 c-3.7,9.7-7.2,19.6-10.8,29.4l-5.3,14.7l-5,14.8c-3.3,9.9-6.7,19.8-9.8,29.7c224.5,60.7,448,125.4,670.1,193.9 c111,34.3,221.7,69.5,332.1,105.7C-236.1,254.9-126,292.1-16.3,330.2z"></path> <path class="st3" d="M-37.9,436.3c-232-15.6-463.4-35.4-694.6-59.2c-115.6-11.9-231.1-24.8-346.6-38.8 c-57.7-7-115.4-14.2-173.1-21.7c-57.6-7.5-115.2-15.2-172.8-23.2c-3.8,41.6-6.4,83.3-7.2,125.1c232.6-5.2,465-6.3,697.4-3.4 C-502.3,418-270,425.1-37.9,436.3z"></path> <path class="st3" d="M-30.8,382.3c-56.7-12.7-113.3-26-169.8-39.7c-56.5-13.7-112.8-28-169-42.7 c-112.4-29.5-224.4-60.9-335.9-94.4c-222.7-66.9-443.7-141.8-661.7-224.4c-5.8,20.1-10.8,40.4-15.9,60.6l-7,30.6 c-1.1,5.1-2.3,10.2-3.4,15.3l-3.2,15.4l-3.1,15.4c-1,5.1-2,10.3-2.9,15.4l-5.5,30.9c-0.9,5.1-1.7,10.3-2.5,15.5l-2.4,15.5 l-2.3,15.5c-0.8,5.2-1.4,10.4-2.1,15.5c58.3,2.4,116.4,5.3,174.6,8.7c58.2,3.4,116.4,7.4,174.4,11.8c58.1,4.4,116.1,9.4,174,14.9 c57.9,5.5,115.8,11.4,173.6,17.9c115.7,13,231,28,346,45c57.4,8.5,114.9,17.6,172.3,27.1C-145.2,361.7-88,371.8-30.8,382.3z"></path> <path class="st3" d="M-25.3,559.9c-112.8,27.6-226.2,53.2-340.1,76.8c-113.8,23.6-228,45.2-342.7,64.9 c-57.4,9.8-114.8,19.2-172.4,28c-57.5,8.8-115.1,17.1-172.8,25c-115.4,15.7-231.2,29.3-347.3,41c15.8,81.5,36.9,162.3,64.1,241.4 C-910.5,847.1-472.1,687.7-25.3,559.9z"></path> <path class="st3" d="M-7.5,611.7C-436.9,789.7-872.4,952.5-1313.7,1100c7.7,19.5,15.3,38.9,23.6,58.1 c8.1,19.3,16.8,38.3,25.5,57.3C-852.5,999.2-433.4,798-7.5,611.7z"></path> <path class="st3" d="M16.6,658.8c-50,29.5-100.2,58.9-150.5,87.9c-50.3,29.1-100.7,57.9-151.2,86.6 C-386.2,890.6-487.8,947-590,1002.5c-204.2,111-410.6,218.5-618.6,322.2c20.4,36.5,41.8,72.4,64.7,107.3 c188.9-135.7,380-268,573.5-396.9C-376.9,906.1-181.2,780.7,16.6,658.8z"></path> <path class="st3" d="M48.5,704C2.9,740-43,775.6-89.2,810.8c-46.2,35.2-92.8,70-139.6,104.4c-46.9,34.4-94.1,68.4-141.6,102 c-47.5,33.6-95.2,66.7-143.3,99.5c-96.1,65.5-193.5,129.4-292.1,191.5c-98.5,62.1-198.1,122.6-298.9,181.3l18.3,25.4 c6.2,8.4,12.5,16.7,18.8,25c3.2,4.1,6.3,8.3,9.5,12.4l9.7,12.3l9.7,12.2c3.3,4.1,6.5,8.1,9.9,12.1l20.1,24 c3.3,4,6.8,7.9,10.2,11.8l10.3,11.7l10.3,11.7c3.5,3.9,7,7.7,10.5,11.5c7.1,7.7,14.1,15.3,21.2,22.9 c77.2-87.4,156-173.5,236.1-258c40.1-42.3,80.4-84.1,121.2-125.7c40.8-41.6,81.9-82.8,123.4-123.6 c41.5-40.8,83.3-81.2,125.4-121.3c42.1-40,84.6-79.7,127.5-119C-126.8,856.5-39.8,779.5,48.5,704z"></path> <path class="st3" d="M97,753.2C20.8,840.9-56.2,928-134,1014.4c-38.9,43.2-78,86.2-117.2,129.1c-39.2,42.8-78.7,85.5-118.3,128 c-158.5,170-320,337.3-484.5,501.8c30.7,28,62.5,55,94.9,80.9C-486.3,1477-201,1110.1,97,753.2z"></path> <path class="st3" d="M177.5,806.3c-213.8,412.7-456.7,810.6-727.1,1191c36,20.9,72.6,40.7,110,59.1c9.3,4.7,18.8,9.1,28.2,13.5 l14.1,6.7l14.2,6.4c9.5,4.2,19,8.5,28.6,12.6l28.9,12.1c34.4-111.5,70.6-222.3,108.8-332.3c38.2-110.1,78.3-219.4,120.2-327.9 c21-54.3,42.4-108.3,64.3-162.1c21.9-53.9,44.3-107.6,67.2-161C80.6,1017.5,128.1,911.6,177.5,806.3z"></path> <path class="st3" d="M223.3,825.4c-77.4,219.2-158.6,436.8-243.6,653.2c-85.1,216.3-174,431.3-266.6,644.6 c39,14.8,78.4,28.5,118.5,40.5C-111,1938.2-49.6,1714,15.7,1490.9C81,1267.8,150.2,1045.9,223.3,825.4z"></path> <path class="st3" d="M271.7,838.4c-47.8,227.3-99.7,454.1-155.5,679.6c-55.8,225.6-115.7,450.3-179.5,674l30.6,7 c10.2,2.3,20.5,4.3,30.7,6.4l15.4,3.1c5.1,1,10.3,1.9,15.4,2.8c10.3,1.8,20.6,3.7,30.9,5.4c27.2-231,58.5-461.5,93.9-691.2 c17.7-114.9,36.4-229.5,56.1-344C229.3,1066.9,250,952.6,271.7,838.4z"></path> <path class="st3" d="M334.7,845.6c-2.9,58-6.3,116.1-10.2,174.1c-3.9,57.9-8.3,115.9-13.2,173.8 c-9.8,115.8-21.7,231.6-35.6,347.1c-27.8,230.9-63.9,461.4-108,690.3c20.8,2.2,41.6,3.7,62.5,5.3c10.4,0.7,20.8,1.2,31.3,1.7 l15.6,0.7l15.6,0.5c10.4,0.3,20.9,0.6,31.3,0.7l31.3,0.1c5.2,0,10.4,0,15.6-0.1l15.6-0.3c10.4-0.3,20.8-0.5,31.2-0.9 c-15-115.6-28.1-231.6-39.1-347.5c-5.5-58-10.5-116-15-174c-4.5-58-8.5-116.1-11.9-174.2c-6.9-116.2-11.8-232.4-14.7-348.5 C334.2,1078.1,333.4,961.8,334.7,845.6z"></path> <path class="st3" d="M411.1,840.5c34.4,229.7,62.9,460.5,85.5,692c22.5,231.3,39.1,463.5,49.7,696.3c15.4-1.8,30.8-3.8,46.2-5.8 c15.4-2.2,30.7-4.6,46-7c15.3-2.7,30.6-5.4,45.9-8.2c15.3-3.1,30.5-6.1,45.8-9.4c-65-223.7-124.1-448.9-177.3-675.1 C499.7,1296.7,452.4,1069,411.1,840.5z"></path> <path class="st3" d="M471,825.6c17.3,55.5,34.2,111.2,50.5,166.9c16.3,55.7,32.2,111.6,47.6,167.7 c15.4,56.1,30.3,112.3,44.6,168.6c14.4,56.4,28.3,112.9,41.7,169.5c26.8,113.2,51.6,226.9,74.5,341.2 c5.7,28.6,11.3,57.2,16.8,85.8c5.5,28.6,10.8,57.2,16,85.9c10.4,57.3,20.4,114.8,29.8,172.3c80.7-20.6,160.1-47.3,237.4-79.2 c-54.1-103.3-106.4-207.6-156.8-312.6c-25.2-52.5-49.9-105.2-74.1-158.1c-24.2-52.9-48-106.1-71.3-159.4 c-46.6-106.6-91.3-214-134-322C550.8,1043.9,509.9,935.1,471,825.6z"></path> <path class="st3" d="M533.1,798.5c219.6,409.8,424.5,827,614.8,1251.7c18.6-9.5,37.2-19.1,55.5-29.2 c18.4-9.9,36.4-20.5,54.5-31.1C1002.1,1601.1,760.5,1203.9,533.1,798.5z"></path> <path class="st3" d="M664.5,680c189.4,134.6,376.5,272.6,561.1,413.8c184.6,141.2,366.8,285.6,546.6,433.3l18.5-25.1 c6.1-8.4,12-17,18-25.5l8.9-12.8l8.7-13c5.8-8.7,11.6-17.3,17.2-26c-200.8-117.3-399.7-238.1-596.1-362.2 c-98.3-62.1-195.9-125-293-188.7C857.1,810.1,760.5,745.5,664.5,680z"></path> <path class="st3" d="M731.5,420.3c231.3-21.8,463.1-39.6,695.2-53.4c232-13.8,464.3-23.6,696.8-29.3l-2.4-31.1 c-0.9-10.3-2-20.6-3-31l-1.6-15.5l-1.9-15.4l-3.9-30.8c-228.8,42.3-458.2,80.7-688,115.1c-114.9,17.2-230,33.4-345.1,48.6 C962.3,392.8,847,407.1,731.5,420.3z"></path> <path class="st3" d="M129.9,778.5c-266.1,380.8-545.7,752.8-838,1114.5c16.7,12.4,33.8,24.3,50.8,36.2 c8.6,5.8,17.3,11.6,25.9,17.3c4.3,2.9,8.6,5.8,13,8.6l13.2,8.4c57.8-100.9,116.5-201.3,176-301.1c59.5-99.8,120-199.2,181.3-298 C-125.3,1166.8,0.6,971.5,129.9,778.5z"></path> <path class="st3" d="M629.5,723.4c333.8,323.6,645,670.6,931.5,1038.9c30.4-28.5,60-57.8,88.3-88.3c3.5-3.8,7.1-7.6,10.6-11.4 l10.4-11.6l10.4-11.6c3.5-3.9,6.9-7.8,10.3-11.7l20.3-23.7c3.4-3.9,6.7-8,10-12l9.8-12.1c-48.4-32.5-96.5-65.4-144.3-98.7 c-47.8-33.3-95.3-67-142.5-101.2c-94.4-68.3-187.6-138.1-279.4-209.5c-45.9-35.7-91.5-71.8-136.8-108.3 c-45.3-36.5-90.3-73.4-134.9-110.6c-44.6-37.3-88.9-74.9-132.8-112.9C716.4,800.6,672.8,762.1,629.5,723.4z"></path> <path class="st3" d="M575.2,771.7c66.8,95,132.1,191.2,195.6,288.6c31.8,48.7,63.1,97.7,94,146.9c30.9,49.2,61.4,98.8,91.4,148.6 c30.1,49.8,59.7,99.9,88.9,150.3c29.2,50.4,57.9,100.9,86.2,151.8c56.6,101.8,111.5,204.7,164.6,308.6c8.8-5.6,17.6-11.3,26.3-17 c4.4-2.9,8.8-5.7,13.1-8.6l12.9-8.8l12.9-8.8c4.3-3,8.6-5.9,12.8-9l25.4-18.3c4.2-3,8.4-6.2,12.6-9.3l12.5-9.4l12.4-9.5 c4.1-3.2,8.2-6.4,12.3-9.7c8.2-6.5,16.3-13,24.4-19.5l24-20c-83.1-81.9-164.6-165.2-244.6-249.8c-80-84.7-158.6-170.7-235.5-258 c-38.5-43.7-76.5-87.6-114.2-131.9c-37.7-44.3-75-89-111.9-133.9c-36.9-44.9-73.3-90.2-109.4-135.7 C646.1,863.8,610.4,818,575.2,771.7z"></path> <path class="st3" d="M694.9,628.4c413.4,212.1,812.5,453.6,1193.8,722.4c20.9-36,40.3-72.8,58.7-110.2 c18.2-37.5,35.2-75.5,50.9-114.2C1551.9,990.7,1116.4,824.2,694.9,628.4z"></path> <path class="st3" d="M713.9,581.9c439.3,152.3,872.8,319.9,1300.7,502.9c14.5-39.1,27.9-78.7,39.8-118.7 c-225.8-56.2-450.4-116.3-673.8-180.3c-55.9-16-111.6-32.3-167.3-48.8c-55.7-16.5-111.4-33.3-167-50.2 C935.3,652.7,824.4,617.8,713.9,581.9z"></path> <path class="st3" d="M733.5,475.4c232.1,10.9,463.9,26,695.6,45.1c115.8,9.6,231.6,20.2,347.3,31.8 c115.6,11.6,231.2,24.2,346.7,37.9l1.1-15.6l0.9-15.6c0.5-10.4,1.1-20.9,1.5-31.3c0.6-20.9,1.3-41.7,1.2-62.6 C1663.2,484.9,1197.8,488.3,733.5,475.4z"></path> <path class="st3" d="M727.5,529.5c455.4,92.6,904.8,217.6,1344.3,374c20.9-80.9,35.9-163.4,45.3-246.5 c-116.6-2.4-233.2-6.9-349.5-13.5c-58.1-3.3-116.2-7-174.2-11.3c-58-4.3-116.1-9.1-174-14.4c-115.9-10.6-231.5-23.3-346.8-38 C957.2,565.1,842.1,548.3,727.5,529.5z"></path> </g> </g> </g> <g id="Layer_1"> <g> <path class="st5" d="M1132.9,187.5c-1.8-1.9-2.7-4.4-2.7-6.9c0.1-2.5,1.1-4.9,3-6.8c1.9-1.8,4.4-2.7,6.9-2.7 c2.5,0.1,4.9,1.1,6.8,3c1.8,1.9,2.7,4.4,2.7,6.9c-0.1,2.5-1.1,4.9-3,6.8c-1.9,1.8-4.4,2.7-6.9,2.7 C1137.2,190.4,1134.8,189.4,1132.9,187.5z"></path> <path class="st5" d="M1088.5,186.8c-1.7-1.7-2.5-4-2.4-6.2c0-2.2,0.9-4.4,2.7-6.1s4-2.5,6.2-2.4c2.2,0,4.4,0.9,6.1,2.7 c1.7,1.7,2.5,4,2.4,6.2c0,2.2-0.9,4.4-2.7,6.1s-4,2.5-6.2,2.4S1090.2,188.6,1088.5,186.8z"></path> <path class="st5" d="M1044.1,186.2c-1.5-1.5-2.2-3.5-2.1-5.5c0-2,0.8-3.9,2.4-5.4c1.5-1.5,3.5-2.2,5.5-2.1s3.9,0.8,5.4,2.4 c1.5,1.5,2.2,3.5,2.1,5.5s-0.8,3.9-2.4,5.4c-1.5,1.5-3.5,2.2-5.5,2.1C1047.6,188.5,1045.6,187.7,1044.1,186.2z"></path> <path class="st5" d="M999.7,185.5c-1.3-1.4-1.9-3.1-1.9-4.8c0-1.7,0.7-3.4,2.1-4.7c1.4-1.3,3.1-1.9,4.8-1.9c1.7,0,3.4,0.7,4.7,2.1 c1.3,1.4,1.9,3.1,1.9,4.8c0,1.7-0.7,3.4-2.1,4.7c-1.4,1.3-3.1,1.9-4.8,1.9C1002.7,187.5,1001,186.8,999.7,185.5z"></path> <path class="st5" d="M955.3,184.8c-1.1-1.2-1.6-2.7-1.6-4.1c0-1.5,0.6-3,1.8-4.1c1.2-1.1,2.7-1.6,4.1-1.6c1.5,0,3,0.6,4.1,1.8 s1.6,2.7,1.6,4.1c0,1.5-0.6,3-1.8,4.1c-1.2,1.1-2.7,1.6-4.1,1.6C957.9,186.6,956.4,186,955.3,184.8z"></path> <path class="st5" d="M910.9,184.1c-0.9-1-1.4-2.2-1.3-3.5c0-1.2,0.5-2.5,1.5-3.4c1-0.9,2.2-1.4,3.5-1.3c1.2,0,2.5,0.5,3.4,1.5 c0.9,1,1.4,2.2,1.3,3.5c0,1.2-0.5,2.5-1.5,3.4c-1,0.9-2.2,1.4-3.5,1.3S911.8,185.1,910.9,184.1z"></path> <path class="st5" d="M866.5,183.5c-0.7-0.8-1.1-1.8-1.1-2.8c0-1,0.4-2,1.2-2.7s1.8-1.1,2.8-1.1c1,0,2,0.4,2.7,1.2 c0.7,0.8,1.1,1.8,1.1,2.8c0,1-0.4,2-1.2,2.7s-1.8,1.1-2.8,1.1C868.2,184.7,867.2,184.3,866.5,183.5z"></path> <path class="st5" d="M822.1,182.8c-0.6-0.6-0.8-1.3-0.8-2.1c0-0.7,0.3-1.5,0.9-2s1.3-0.8,2.1-0.8c0.7,0,1.5,0.3,2,0.9 c0.6,0.6,0.8,1.3,0.8,2.1c0,0.7-0.3,1.5-0.9,2c-0.6,0.6-1.3,0.8-2.1,0.8C823.4,183.7,822.6,183.4,822.1,182.8z"></path> <path class="st5" d="M777.7,182.1c-0.4-0.4-0.5-0.9-0.5-1.4c0-0.5,0.2-1,0.6-1.4c0.4-0.4,0.9-0.5,1.4-0.5c0.5,0,1,0.2,1.4,0.6 c0.4,0.4,0.5,0.9,0.5,1.4c0,0.5-0.2,1-0.6,1.4c-0.4,0.4-0.9,0.5-1.4,0.5C778.5,182.7,778,182.5,777.7,182.1z"></path> <path class="st5" d="M733.3,181.5c-0.2-0.2-0.3-0.4-0.3-0.7c0-0.2,0.1-0.5,0.3-0.7c0.2-0.2,0.4-0.3,0.7-0.3c0.2,0,0.5,0.1,0.7,0.3 c0.2,0.2,0.3,0.4,0.3,0.7s-0.1,0.5-0.3,0.7c-0.2,0.2-0.4,0.3-0.7,0.3C733.7,181.8,733.5,181.7,733.3,181.5z"></path> <polygon class="st5" points="688.9,180.8 688.9,180.8 688.9,180.8 688.9,180.8 688.9,180.8 688.9,180.8 688.9,180.8 688.9,180.8 "></polygon> </g> <g> <path class="st5" d="M1120.6,66.1c-2.8-2.9-4.1-6.6-4-10.3c0.1-3.7,1.6-7.4,4.5-10.2c2.9-2.8,6.6-4.1,10.3-4 c3.7,0.1,7.4,1.6,10.2,4.5c2.8,2.9,4.1,6.6,4,10.3c-0.1,3.7-1.6,7.4-4.5,10.2c-2.9,2.8-6.6,4.1-10.3,4 C1127.1,70.5,1123.4,69,1120.6,66.1z"></path> <path class="st5" d="M1076.2,65.4c-2.6-2.7-3.8-6.2-3.7-9.7c0.1-3.5,1.5-6.9,4.2-9.5c2.7-2.6,6.2-3.8,9.7-3.7 c3.5,0.1,6.9,1.5,9.5,4.2s3.8,6.2,3.7,9.7c-0.1,3.5-1.5,6.9-4.2,9.5c-2.7,2.6-6.2,3.8-9.7,3.7 C1082.2,69.5,1078.8,68.1,1076.2,65.4z"></path> <path class="st5" d="M1031.8,64.8c-2.4-2.5-3.6-5.7-3.5-9c0.1-3.2,1.4-6.4,3.9-8.8c2.5-2.4,5.7-3.6,9-3.5c3.2,0.1,6.4,1.4,8.8,3.9 c2.4,2.5,3.6,5.7,3.5,9c-0.1,3.2-1.4,6.4-3.9,8.8c-2.5,2.4-5.7,3.6-9,3.5C1037.4,68.6,1034.2,67.3,1031.8,64.8z"></path> <path class="st5" d="M987.4,64.1c-2.2-2.3-3.3-5.3-3.2-8.3c0.1-3,1.3-5.9,3.6-8.1s5.3-3.3,8.3-3.2c3,0.1,5.9,1.3,8.1,3.6 c2.2,2.3,3.3,5.3,3.2,8.3c-0.1,3-1.3,5.9-3.6,8.1c-2.3,2.2-5.3,3.3-8.3,3.2C992.5,67.6,989.6,66.4,987.4,64.1z"></path> <path class="st5" d="M943,63.4c-2-2.1-3-4.9-2.9-7.6c0.1-2.7,1.2-5.4,3.3-7.4c2.1-2,4.9-3,7.6-2.9c2.7,0.1,5.4,1.2,7.4,3.3 c2,2.1,3,4.9,2.9,7.6c-0.1,2.7-1.2,5.4-3.3,7.4c-2.1,2-4.9,3-7.6,2.9C947.7,66.7,945,65.6,943,63.4z"></path> <path class="st5" d="M898.6,62.8c-1.8-1.9-2.7-4.4-2.7-6.9c0.1-2.5,1.1-4.9,3-6.8c1.9-1.8,4.4-2.7,6.9-2.7c2.5,0.1,4.9,1.1,6.8,3 c1.8,1.9,2.7,4.4,2.7,6.9c-0.1,2.5-1.1,4.9-3,6.8c-1.9,1.8-4.4,2.7-6.9,2.7C902.9,65.7,900.4,64.7,898.6,62.8z"></path> <path class="st5" d="M854.2,62.1c-1.7-1.7-2.5-4-2.4-6.2c0-2.2,0.9-4.4,2.7-6.1c1.7-1.7,4-2.5,6.2-2.4c2.2,0,4.4,0.9,6.1,2.7 c1.7,1.7,2.5,4,2.4,6.2c0,2.2-0.9,4.4-2.7,6.1c-1.7,1.7-4,2.5-6.2,2.4C858,64.7,855.8,63.8,854.2,62.1z"></path> <path class="st5" d="M809.8,61.4c-1.5-1.5-2.2-3.5-2.1-5.5c0-2,0.8-3.9,2.4-5.4c1.5-1.5,3.5-2.2,5.5-2.1c2,0,3.9,0.8,5.4,2.4 c1.5,1.5,2.2,3.5,2.1,5.5c0,2-0.8,3.9-2.4,5.4c-1.5,1.5-3.5,2.2-5.5,2.1C813.2,63.8,811.2,63,809.8,61.4z"></path> <path class="st5" d="M765.4,60.8c-1.3-1.4-1.9-3.1-1.9-4.8c0-1.7,0.7-3.4,2.1-4.7c1.4-1.3,3.1-1.9,4.8-1.9c1.7,0,3.4,0.7,4.7,2.1 c1.3,1.4,1.9,3.1,1.9,4.8c0,1.7-0.7,3.4-2.1,4.7c-1.4,1.3-3.1,1.9-4.8,1.9C768.4,62.8,766.7,62.1,765.4,60.8z"></path> <path class="st5" d="M721,60.1c-1.1-1.2-1.6-2.7-1.6-4.1c0-1.5,0.6-3,1.8-4.1c1.2-1.1,2.7-1.6,4.1-1.6c1.5,0,3,0.6,4.1,1.8 c1.1,1.2,1.6,2.7,1.6,4.1c0,1.5-0.6,3-1.8,4.1c-1.2,1.1-2.7,1.6-4.1,1.6S722.1,61.3,721,60.1z"></path> <path class="st5" d="M676.5,59.4c-0.9-1-1.4-2.2-1.3-3.5c0-1.2,0.5-2.5,1.5-3.4c1-0.9,2.2-1.4,3.5-1.3c1.2,0,2.5,0.5,3.4,1.5 c0.9,1,1.4,2.2,1.3,3.5c0,1.2-0.5,2.5-1.5,3.4c-1,0.9-2.2,1.4-3.5,1.3C678.7,60.9,677.5,60.4,676.5,59.4z"></path> <path class="st5" d="M632.1,58.8c-0.7-0.8-1.1-1.8-1.1-2.8s0.4-2,1.2-2.7c0.8-0.7,1.8-1.1,2.8-1.1c1,0,2,0.4,2.7,1.2 c0.7,0.8,1.1,1.8,1.1,2.8s-0.4,2-1.2,2.7c-0.8,0.7-1.8,1.1-2.8,1.1C633.9,59.9,632.9,59.5,632.1,58.8z"></path> <path class="st5" d="M587.7,58.1c-0.6-0.6-0.8-1.3-0.8-2.1c0-0.7,0.3-1.5,0.9-2c0.6-0.6,1.3-0.8,2.1-0.8c0.7,0,1.5,0.3,2,0.9 c0.6,0.6,0.8,1.3,0.8,2.1c0,0.7-0.3,1.5-0.9,2c-0.6,0.6-1.3,0.8-2.1,0.8C589,59,588.3,58.7,587.7,58.1z"></path> <path class="st5" d="M543.3,57.4c-0.4-0.4-0.5-0.9-0.5-1.4c0-0.5,0.2-1,0.6-1.4c0.4-0.4,0.9-0.5,1.4-0.5c0.5,0,1,0.2,1.4,0.6 c0.4,0.4,0.5,0.9,0.5,1.4c0,0.5-0.2,1-0.6,1.4c-0.4,0.4-0.9,0.5-1.4,0.5C544.2,58,543.7,57.8,543.3,57.4z"></path> <path class="st5" d="M498.9,56.8c-0.2-0.2-0.3-0.4-0.3-0.7c0-0.2,0.1-0.5,0.3-0.7c0.2-0.2,0.4-0.3,0.7-0.3c0.2,0,0.5,0.1,0.7,0.3 c0.2,0.2,0.3,0.4,0.3,0.7c0,0.2-0.1,0.5-0.3,0.7c-0.2,0.2-0.4,0.3-0.7,0.3C499.4,57.1,499.1,57,498.9,56.8z"></path> <polygon class="st5" points="454.5,56.1 454.5,56.1 454.5,56.1 454.5,56.1 454.5,56.1 454.5,56.1 454.5,56.1 454.5,56.1 "></polygon> </g> <g> <path class="st5" d="M1097.3,116c-4.2-4.4-6.3-10.2-6.2-15.9c0.1-5.7,2.4-11.3,6.9-15.6c4.4-4.2,10.2-6.3,15.9-6.2 c5.7,0.1,11.3,2.4,15.6,6.9s6.3,10.2,6.2,15.9s-2.4,11.3-6.9,15.6c-4.4,4.2-10.2,6.3-15.9,6.2 C1107.2,122.7,1101.5,120.4,1097.3,116z"></path> <path class="st5" d="M1052.9,115.3c-4.1-4.2-6-9.7-5.9-15.2c0.1-5.4,2.3-10.8,6.6-14.9c4.2-4.1,9.7-6,15.2-5.9 c5.4,0.1,10.8,2.3,14.9,6.6c4.1,4.2,6,9.7,5.9,15.2c-0.1,5.4-2.3,10.8-6.6,14.9c-4.2,4.1-9.7,6-15.2,5.9 C1062.3,121.8,1057,119.6,1052.9,115.3z"></path> <path class="st5" d="M1008.5,114.7c-3.9-4-5.7-9.3-5.6-14.5c0.1-5.2,2.2-10.3,6.3-14.2c4-3.9,9.3-5.7,14.5-5.6s10.3,2.2,14.2,6.3 c3.9,4,5.7,9.3,5.6,14.5c-0.1,5.2-2.2,10.3-6.3,14.2c-4,3.9-9.3,5.7-14.5,5.6C1017.5,120.8,1012.4,118.7,1008.5,114.7z"></path> <path class="st5" d="M964.1,114c-3.7-3.9-5.5-8.8-5.4-13.8c0.1-4.9,2.1-9.8,6-13.5c3.9-3.7,8.8-5.5,13.8-5.4 c4.9,0.1,9.8,2.1,13.5,6c3.7,3.9,5.5,8.8,5.4,13.8s-2.1,9.8-6,13.5s-8.8,5.5-13.8,5.4C972.7,119.8,967.8,117.8,964.1,114z"></path> <path class="st5" d="M919.7,113.3c-3.5-3.7-5.2-8.4-5.1-13.1c0.1-4.7,2-9.4,5.7-12.9s8.4-5.2,13.1-5.1s9.4,2,12.9,5.7 c3.5,3.7,5.2,8.4,5.1,13.1c-0.1,4.7-2,9.4-5.7,12.9c-3.7,3.5-8.4,5.2-13.1,5.1S923.2,117,919.7,113.3z"></path> <path class="st5" d="M875.3,112.7c-3.3-3.5-4.9-8-4.8-12.4c0.1-4.4,1.9-8.9,5.4-12.2c3.5-3.3,8-4.9,12.4-4.8 c4.4,0.1,8.9,1.9,12.2,5.4c3.3,3.5,4.9,8,4.8,12.4c-0.1,4.4-1.9,8.9-5.4,12.2c-3.5,3.3-8,4.9-12.4,4.8 C883,117.9,878.6,116.1,875.3,112.7z"></path> <path class="st5" d="M830.9,112c-3.1-3.3-4.6-7.5-4.6-11.7c0.1-4.2,1.8-8.4,5.1-11.5c3.3-3.1,7.5-4.6,11.7-4.6 c4.2,0.1,8.4,1.8,11.5,5.1s4.6,7.5,4.6,11.7c-0.1,4.2-1.8,8.4-5.1,11.5s-7.5,4.6-11.7,4.6C838.2,117,834,115.3,830.9,112z"></path> <path class="st5" d="M786.5,111.3c-3-3.1-4.4-7.1-4.3-11c0.1-4,1.7-7.9,4.8-10.8c3.1-3,7.1-4.4,11-4.3c4,0.1,7.9,1.7,10.8,4.8 c3,3.1,4.4,7.1,4.3,11c-0.1,4-1.7,7.9-4.8,10.8c-3.1,3-7.1,4.4-11,4.3C793.3,116,789.4,114.4,786.5,111.3z"></path> <path class="st5" d="M742.1,110.6c-2.8-2.9-4.1-6.6-4-10.3c0.1-3.7,1.6-7.4,4.5-10.2c2.9-2.8,6.6-4.1,10.3-4 c3.7,0.1,7.4,1.6,10.2,4.5c2.8,2.9,4.1,6.6,4,10.3c-0.1,3.7-1.6,7.4-4.5,10.2c-2.9,2.8-6.6,4.1-10.3,4 C748.5,115,744.8,113.5,742.1,110.6z"></path> <path class="st5" d="M697.6,110c-2.6-2.7-3.8-6.2-3.7-9.7c0.1-3.5,1.5-6.9,4.2-9.5c2.7-2.6,6.2-3.8,9.7-3.7 c3.5,0.1,6.9,1.5,9.5,4.2c2.6,2.7,3.8,6.2,3.7,9.7c-0.1,3.5-1.5,6.9-4.2,9.5c-2.7,2.6-6.2,3.8-9.7,3.7 C703.7,114.1,700.2,112.7,697.6,110z"></path> <path class="st5" d="M653.2,109.3c-2.4-2.5-3.6-5.7-3.5-9c0.1-3.2,1.4-6.4,3.9-8.8c2.5-2.4,5.7-3.6,9-3.5s6.4,1.4,8.8,3.9 c2.4,2.5,3.6,5.7,3.5,9c-0.1,3.2-1.4,6.4-3.9,8.8c-2.5,2.4-5.7,3.6-9,3.5C658.8,113.1,655.6,111.8,653.2,109.3z"></path> <path class="st5" d="M608.8,108.6c-2.2-2.3-3.3-5.3-3.2-8.3c0.1-3,1.3-5.9,3.6-8.1c2.3-2.2,5.3-3.3,8.3-3.2c3,0.1,5.9,1.3,8.1,3.6 c2.2,2.3,3.3,5.3,3.2,8.3c-0.1,3-1.3,5.9-3.6,8.1c-2.3,2.2-5.3,3.3-8.3,3.2C614,112.2,611,111,608.8,108.6z"></path> <path class="st5" d="M564.4,108c-2-2.1-3-4.9-2.9-7.6c0.1-2.7,1.2-5.4,3.3-7.4c2.1-2,4.9-3,7.6-2.9s5.4,1.2,7.4,3.3 c2,2.1,3,4.9,2.9,7.6c-0.1,2.7-1.2,5.4-3.3,7.4c-2.1,2-4.9,3-7.6,2.9S566.5,110.1,564.4,108z"></path> <path class="st5" d="M520,107.3c-1.8-1.9-2.7-4.4-2.7-6.9c0.1-2.5,1.1-4.9,3-6.8c1.9-1.8,4.4-2.7,6.9-2.7c2.5,0.1,4.9,1.1,6.8,3 c1.8,1.9,2.7,4.4,2.7,6.9c-0.1,2.5-1.1,4.9-3,6.8c-1.9,1.8-4.4,2.7-6.9,2.7C524.3,110.2,521.9,109.2,520,107.3z"></path> <path class="st5" d="M475.6,106.6c-1.7-1.7-2.5-4-2.4-6.2c0-2.2,0.9-4.4,2.7-6.1c1.7-1.7,4-2.5,6.2-2.4c2.2,0,4.4,0.9,6.1,2.7 c1.7,1.7,2.5,4,2.4,6.2c0,2.2-0.9,4.4-2.7,6.1c-1.7,1.7-4,2.5-6.2,2.4C479.5,109.3,477.3,108.4,475.6,106.6z"></path> <path class="st5" d="M431.2,106c-1.5-1.5-2.2-3.5-2.1-5.5c0-2,0.8-3.9,2.4-5.4c1.5-1.5,3.5-2.2,5.5-2.1c2,0,3.9,0.8,5.4,2.4 c1.5,1.5,2.2,3.5,2.1,5.5c0,2-0.8,3.9-2.4,5.4c-1.5,1.5-3.5,2.2-5.5,2.1C434.6,108.3,432.7,107.5,431.2,106z"></path> <path class="st5" d="M386.8,105.3c-1.3-1.4-1.9-3.1-1.9-4.8c0-1.7,0.7-3.4,2.1-4.7s3.1-1.9,4.8-1.9c1.7,0,3.4,0.7,4.7,2.1 c1.3,1.4,1.9,3.1,1.9,4.8c0,1.7-0.7,3.4-2.1,4.7c-1.4,1.3-3.1,1.9-4.8,1.9C389.8,107.4,388.1,106.7,386.8,105.3z"></path> <path class="st5" d="M342.4,104.6c-1.1-1.2-1.6-2.7-1.6-4.1c0-1.5,0.6-3,1.8-4.1s2.7-1.6,4.1-1.6c1.5,0,3,0.6,4.1,1.8 s1.6,2.7,1.6,4.1c0,1.5-0.6,3-1.8,4.1c-1.2,1.1-2.7,1.6-4.1,1.6C345,106.4,343.5,105.8,342.4,104.6z"></path> <path class="st5" d="M298,104c-0.9-1-1.4-2.2-1.3-3.5s0.5-2.5,1.5-3.4c1-0.9,2.2-1.4,3.5-1.3c1.2,0,2.5,0.5,3.4,1.5 c0.9,1,1.4,2.2,1.3,3.5c0,1.2-0.5,2.5-1.5,3.4c-1,0.9-2.2,1.4-3.5,1.3C300.1,105.4,298.9,104.9,298,104z"></path> <path class="st5" d="M253.6,103.3c-0.7-0.8-1.1-1.8-1.1-2.8c0-1,0.4-2,1.2-2.7c0.8-0.7,1.8-1.1,2.8-1.1c1,0,2,0.4,2.7,1.2 c0.7,0.8,1.1,1.8,1.1,2.8c0,1-0.4,2-1.2,2.7c-0.8,0.7-1.8,1.1-2.8,1.1C255.3,104.5,254.3,104.1,253.6,103.3z"></path> <path class="st5" d="M209.2,102.6c-0.6-0.6-0.8-1.3-0.8-2.1c0-0.7,0.3-1.5,0.9-2c0.6-0.6,1.3-0.8,2.1-0.8s1.5,0.3,2,0.9 c0.6,0.6,0.8,1.3,0.8,2.1c0,0.7-0.3,1.5-0.9,2c-0.6,0.6-1.3,0.8-2.1,0.8C210.5,103.5,209.7,103.2,209.2,102.6z"></path> <path class="st5" d="M164.8,102c-0.4-0.4-0.5-0.9-0.5-1.4c0-0.5,0.2-1,0.6-1.4c0.4-0.4,0.9-0.5,1.4-0.5c0.5,0,1,0.2,1.4,0.6 c0.4,0.4,0.5,0.9,0.5,1.4c0,0.5-0.2,1-0.6,1.4c-0.4,0.4-0.9,0.5-1.4,0.5C165.6,102.6,165.1,102.4,164.8,102z"></path> <path class="st5" d="M120.4,101.3c-0.2-0.2-0.3-0.4-0.3-0.7c0-0.2,0.1-0.5,0.3-0.7c0.2-0.2,0.4-0.3,0.7-0.3c0.2,0,0.5,0.1,0.7,0.3 c0.2,0.2,0.3,0.4,0.3,0.7c0,0.2-0.1,0.5-0.3,0.7c-0.2,0.2-0.4,0.3-0.7,0.3C120.8,101.6,120.5,101.5,120.4,101.3z"></path> <polygon class="st5" points="76,100.6 75.9,100.6 75.9,100.6 75.9,100.6 76,100.6 76,100.6 76,100.6 76,100.6 "></polygon> </g> <polygon class="st5" points="-48.1,-141.4 -48.1,-141.4 -48.1,-141.4 -48.1,-141.4 -48.1,-141.4 -48.1,-141.4 -48.1,-141.4 -48.1,-141.4 "></polygon> <g> <path class="st5" d="M1132.9,30.2c-1.8-1.9-2.7-4.4-2.7-6.9c0.1-2.5,1.1-4.9,3-6.8c1.9-1.8,4.4-2.7,6.9-2.7c2.5,0.1,4.9,1.1,6.8,3 c1.8,1.9,2.7,4.4,2.7,6.9c-0.1,2.5-1.1,4.9-3,6.8c-1.9,1.8-4.4,2.7-6.9,2.7C1137.2,33.2,1134.8,32.2,1132.9,30.2z"></path> <path class="st5" d="M1088.5,29.6c-1.7-1.7-2.5-4-2.4-6.2s0.9-4.4,2.7-6.1s4-2.5,6.2-2.4c2.2,0,4.4,0.9,6.1,2.7s2.5,4,2.4,6.2 c0,2.2-0.9,4.4-2.7,6.1s-4,2.5-6.2,2.4C1092.4,32.2,1090.2,31.3,1088.5,29.6z"></path> <path class="st5" d="M1044.1,28.9c-1.5-1.5-2.2-3.5-2.1-5.5c0-2,0.8-3.9,2.4-5.4c1.5-1.5,3.5-2.2,5.5-2.1c2,0,3.9,0.8,5.4,2.4 c1.5,1.5,2.2,3.5,2.1,5.5s-0.8,3.9-2.4,5.4c-1.5,1.5-3.5,2.2-5.5,2.1C1047.6,31.2,1045.6,30.4,1044.1,28.9z"></path> <path class="st5" d="M999.7,28.2c-1.3-1.4-1.9-3.1-1.9-4.8c0-1.7,0.7-3.4,2.1-4.7c1.4-1.3,3.1-1.9,4.8-1.9c1.7,0,3.4,0.7,4.7,2.1 c1.3,1.4,1.9,3.1,1.9,4.8c0,1.7-0.7,3.4-2.1,4.7c-1.4,1.3-3.1,1.9-4.8,1.9C1002.7,30.3,1001,29.6,999.7,28.2z"></path> <path class="st5" d="M955.3,27.6c-1.1-1.2-1.6-2.7-1.6-4.1c0-1.5,0.6-3,1.8-4.1s2.7-1.6,4.1-1.6c1.5,0,3,0.6,4.1,1.8 c1.1,1.2,1.6,2.7,1.6,4.1c0,1.5-0.6,3-1.8,4.1s-2.7,1.6-4.1,1.6C957.9,29.3,956.4,28.7,955.3,27.6z"></path> <path class="st5" d="M910.9,26.9c-0.9-1-1.4-2.2-1.3-3.5c0-1.2,0.5-2.5,1.5-3.4c1-0.9,2.2-1.4,3.5-1.3c1.2,0,2.5,0.5,3.4,1.5 c0.9,1,1.4,2.2,1.3,3.5c0,1.2-0.5,2.5-1.5,3.4c-1,0.9-2.2,1.4-3.5,1.3C913,28.4,911.8,27.9,910.9,26.9z"></path> <path class="st5" d="M866.5,26.2c-0.7-0.8-1.1-1.8-1.1-2.8c0-1,0.4-2,1.2-2.7c0.8-0.7,1.8-1.1,2.8-1.1c1,0,2,0.4,2.7,1.2 c0.7,0.8,1.1,1.8,1.1,2.8c0,1-0.4,2-1.2,2.7c-0.8,0.7-1.8,1.1-2.8,1.1C868.2,27.4,867.2,27,866.5,26.2z"></path> <path class="st5" d="M822.1,25.6c-0.6-0.6-0.8-1.3-0.8-2.1c0-0.7,0.3-1.5,0.9-2c0.6-0.6,1.3-0.8,2.1-0.8c0.7,0,1.5,0.3,2,0.9 c0.6,0.6,0.8,1.3,0.8,2.1c0,0.7-0.3,1.5-0.9,2c-0.6,0.6-1.3,0.8-2.1,0.8C823.4,26.4,822.6,26.1,822.1,25.6z"></path> <path class="st5" d="M777.7,24.9c-0.4-0.4-0.5-0.9-0.5-1.4c0-0.5,0.2-1,0.6-1.4c0.4-0.4,0.9-0.5,1.4-0.5c0.5,0,1,0.2,1.4,0.6 c0.4,0.4,0.5,0.9,0.5,1.4c0,0.5-0.2,1-0.6,1.4c-0.4,0.4-0.9,0.5-1.4,0.5C778.5,25.5,778,25.3,777.7,24.9z"></path> <path class="st5" d="M733.3,24.2c-0.2-0.2-0.3-0.4-0.3-0.7c0-0.2,0.1-0.5,0.3-0.7c0.2-0.2,0.4-0.3,0.7-0.3c0.2,0,0.5,0.1,0.7,0.3 c0.2,0.2,0.3,0.4,0.3,0.7s-0.1,0.5-0.3,0.7c-0.2,0.2-0.4,0.3-0.7,0.3C733.7,24.5,733.5,24.4,733.3,24.2z"></path> <polygon class="st5" points="688.9,23.6 688.9,23.6 688.9,23.6 688.9,23.6 688.9,23.6 688.9,23.6 688.9,23.6 688.9,23.6 "></polygon> </g> <g> <path class="st5" d="M1120.6,155c-2.8-2.9-4.1-6.6-4-10.3c0.1-3.7,1.6-7.4,4.5-10.2c2.9-2.8,6.6-4.1,10.3-4 c3.7,0.1,7.4,1.6,10.2,4.5c2.8,2.9,4.1,6.6,4,10.3c-0.1,3.7-1.6,7.4-4.5,10.2c-2.9,2.8-6.6,4.1-10.3,4 C1127.1,159.4,1123.4,157.9,1120.6,155z"></path> <path class="st5" d="M1076.2,154.3c-2.6-2.7-3.8-6.2-3.7-9.7c0.1-3.5,1.5-6.9,4.2-9.5c2.7-2.6,6.2-3.8,9.7-3.7 c3.5,0.1,6.9,1.5,9.5,4.2s3.8,6.2,3.7,9.7c-0.1,3.5-1.5,6.9-4.2,9.5c-2.7,2.6-6.2,3.8-9.7,3.7 C1082.2,158.4,1078.8,157,1076.2,154.3z"></path> <path class="st5" d="M1031.8,153.7c-2.4-2.5-3.6-5.7-3.5-9s1.4-6.4,3.9-8.8c2.5-2.4,5.7-3.6,9-3.5c3.2,0.1,6.4,1.4,8.8,3.9 c2.4,2.5,3.6,5.7,3.5,9c-0.1,3.2-1.4,6.4-3.9,8.8c-2.5,2.4-5.7,3.6-9,3.5C1037.4,157.5,1034.2,156.2,1031.8,153.7z"></path> <path class="st5" d="M987.4,153c-2.2-2.3-3.3-5.3-3.2-8.3c0.1-3,1.3-5.9,3.6-8.1s5.3-3.3,8.3-3.2c3,0.1,5.9,1.3,8.1,3.6 c2.2,2.3,3.3,5.3,3.2,8.3c-0.1,3-1.3,5.9-3.6,8.1c-2.3,2.2-5.3,3.3-8.3,3.2C992.5,156.5,989.6,155.3,987.4,153z"></path> <path class="st5" d="M943,152.3c-2-2.1-3-4.9-2.9-7.6c0.1-2.7,1.2-5.4,3.3-7.4c2.1-2,4.9-3,7.6-2.9c2.7,0.1,5.4,1.2,7.4,3.3 c2,2.1,3,4.9,2.9,7.6c-0.1,2.7-1.2,5.4-3.3,7.4c-2.1,2-4.9,3-7.6,2.9C947.7,155.6,945,154.5,943,152.3z"></path> <path class="st5" d="M898.6,151.7c-1.8-1.9-2.7-4.4-2.7-6.9c0.1-2.5,1.1-4.9,3-6.8c1.9-1.8,4.4-2.7,6.9-2.7c2.5,0.1,4.9,1.1,6.8,3 c1.8,1.9,2.7,4.4,2.7,6.9c-0.1,2.5-1.1,4.9-3,6.8c-1.9,1.8-4.4,2.7-6.9,2.7C902.9,154.6,900.4,153.6,898.6,151.7z"></path> <path class="st5" d="M854.2,151c-1.7-1.7-2.5-4-2.4-6.2c0-2.2,0.9-4.4,2.7-6.1c1.7-1.7,4-2.5,6.2-2.4c2.2,0,4.4,0.9,6.1,2.7 c1.7,1.7,2.5,4,2.4,6.2c0,2.2-0.9,4.4-2.7,6.1c-1.7,1.7-4,2.5-6.2,2.4C858,153.6,855.8,152.7,854.2,151z"></path> <path class="st5" d="M809.8,150.3c-1.5-1.5-2.2-3.5-2.1-5.5c0-2,0.8-3.9,2.4-5.4c1.5-1.5,3.5-2.2,5.5-2.1c2,0,3.9,0.8,5.4,2.4 c1.5,1.5,2.2,3.5,2.1,5.5c0,2-0.8,3.9-2.4,5.4c-1.5,1.5-3.5,2.2-5.5,2.1C813.2,152.7,811.2,151.9,809.8,150.3z"></path> <path class="st5" d="M765.4,149.7c-1.3-1.4-1.9-3.1-1.9-4.8c0-1.7,0.7-3.4,2.1-4.7c1.4-1.3,3.1-1.9,4.8-1.9c1.7,0,3.4,0.7,4.7,2.1 c1.3,1.4,1.9,3.1,1.9,4.8c0,1.7-0.7,3.4-2.1,4.7c-1.4,1.3-3.1,1.9-4.8,1.9C768.4,151.7,766.7,151,765.4,149.7z"></path> <path class="st5" d="M721,149c-1.1-1.2-1.6-2.7-1.6-4.1c0-1.5,0.6-3,1.8-4.1c1.2-1.1,2.7-1.6,4.1-1.6c1.5,0,3,0.6,4.1,1.8 c1.1,1.2,1.6,2.7,1.6,4.1c0,1.5-0.6,3-1.8,4.1c-1.2,1.1-2.7,1.6-4.1,1.6C723.5,150.8,722.1,150.2,721,149z"></path> <path class="st5" d="M676.5,148.3c-0.9-1-1.4-2.2-1.3-3.5c0-1.2,0.5-2.5,1.5-3.4c1-0.9,2.2-1.4,3.5-1.3c1.2,0,2.5,0.5,3.4,1.5 c0.9,1,1.4,2.2,1.3,3.5c0,1.2-0.5,2.5-1.5,3.4c-1,0.9-2.2,1.4-3.5,1.3C678.7,149.8,677.5,149.3,676.5,148.3z"></path> <path class="st5" d="M632.1,147.7c-0.7-0.8-1.1-1.8-1.1-2.8s0.4-2,1.2-2.7c0.8-0.7,1.8-1.1,2.8-1.1c1,0,2,0.4,2.7,1.2 c0.7,0.8,1.1,1.8,1.1,2.8s-0.4,2-1.2,2.7c-0.8,0.7-1.8,1.1-2.8,1.1C633.9,148.8,632.9,148.4,632.1,147.7z"></path> <path class="st5" d="M587.7,147c-0.6-0.6-0.8-1.3-0.8-2.1c0-0.7,0.3-1.5,0.9-2c0.6-0.6,1.3-0.8,2.1-0.8c0.7,0,1.5,0.3,2,0.9 c0.6,0.6,0.8,1.3,0.8,2.1c0,0.7-0.3,1.5-0.9,2c-0.6,0.6-1.3,0.8-2.1,0.8C589,147.9,588.3,147.6,587.7,147z"></path> <path class="st5" d="M543.3,146.3c-0.4-0.4-0.5-0.9-0.5-1.4c0-0.5,0.2-1,0.6-1.4c0.4-0.4,0.9-0.5,1.4-0.5c0.5,0,1,0.2,1.4,0.6 s0.5,0.9,0.5,1.4c0,0.5-0.2,1-0.6,1.4c-0.4,0.4-0.9,0.5-1.4,0.5C544.2,146.9,543.7,146.7,543.3,146.3z"></path> <path class="st5" d="M498.9,145.7c-0.2-0.2-0.3-0.4-0.3-0.7c0-0.2,0.1-0.5,0.3-0.7c0.2-0.2,0.4-0.3,0.7-0.3s0.5,0.1,0.7,0.3 c0.2,0.2,0.3,0.4,0.3,0.7c0,0.2-0.1,0.5-0.3,0.7c-0.2,0.2-0.4,0.3-0.7,0.3C499.4,146,499.1,145.9,498.9,145.7z"></path> <polygon class="st5" points="454.5,145 454.5,145 454.5,145 454.5,145 454.5,145 454.5,145 454.5,145 454.5,145 "></polygon> </g> </g> </svg> 