<?xml version="1.0" encoding="UTF-8"?>
<svg viewBox="0 0 511.40765 259.93814" xmlns="http://www.w3.org/2000/svg">
 <defs>
  <filter id="a" x="-.13534" y="-.13534" width="1.2707" height="1.2707">
   <feGaussianBlur stdDeviation="4.62406"/>
  </filter>
  <filter id="b" x="-.23459" y="-.23459" width="1.4692" height="1.4692">
   <feGaussianBlur stdDeviation="8.01504"/>
  </filter>
  <linearGradient id="e" x1="260.5" x2="259.68" y1="210.41" y2="152.45" gradientUnits="userSpaceOnUse">
   <stop offset="0"/>
   <stop stop-opacity="0" offset="1"/>
  </linearGradient>
  <linearGradient id="d" x2="0" y1="149.76" y2="122.05" gradientUnits="userSpaceOnUse">
   <stop stop-color="#4d4d4d" offset="0"/>
   <stop stop-color="#1a1a1a" offset=".43308"/>
   <stop offset="1"/>
  </linearGradient>
  <linearGradient id="c" x1="257.23" x2="255.19" y1="209.19" y2="153.68" gradientUnits="userSpaceOnUse">
   <stop stop-color="#bbb" offset="0"/>
   <stop stop-color="#393939" stop-opacity=".3098" offset=".53435"/>
   <stop stop-opacity="0" offset="1"/>
  </linearGradient>
 </defs>
 <path d="m427.57 28.303c57.311-98.172-5.3332 102.41-46.846 136.38l0.38941-0.0855" fill="none" stroke="#000" stroke-width="3"/>
 <path d="m401.09 125.76 35-75 7 3-35 76-7-4z" fill="#28170b" fill-rule="evenodd" stroke="#000"/>
 <g transform="matrix(.99023 0 0 .99023 -37.057 -589.15)">
  <path d="m423.8 852.75c-7.425-0.39664-15.525-1.2258-18-1.8426-4.8824-1.2168-217.06-0.88328-245.5 0.38585-16.562 0.73918-43.069-0.74844-51.588-2.8952-3.186-0.80289-14.462-1.6406-27.412-2.0367-22.57-0.69024-36.566-2.2509-37.194-4.1471-0.56296-1.7017 17.725-9.8673 36.694-16.383 6.325-2.1728 11.275-3.9748 11-4.0044-7.7168-0.83111-30.433-4.1893-31.092-4.5963-1.247-0.77069-1.1424-3.809 0.1765-5.1279 3.5797-3.5797-4.1515-10.492-13.258-11.854l-4.6731-0.69875 0.17313-4.6314c0.09522-2.5473-0.1843-6.7179-0.62116-9.2681-0.78405-4.577-0.75313-4.6511 2.3992-5.75 1.7564-0.61229 4.727-1.1133 6.6012-1.1133 3.2709 0 3.5452-0.30172 6.8339-7.5183 2.5034-5.4934 4.1216-7.7827 6.0082-8.5 3.991-1.5174 8.1532-1.2022 8.8723 0.67183 0.58923 1.5355 0.72174 1.5359 1.857 5e-3 0.94937-1.2802 5.3285-2.0964 19.602-3.6535 10.109-1.1028 22.484-2.0196 27.5-2.0375s14.036-0.64901 20.043-1.4025c11.68-1.465 13.569-1.2855 13.593 1.292 0.0127 1.3629 0.16898 1.4002 0.91656 0.219 0.75343-1.1904 1.94-0.96467 7.2347 1.3766 7.1668 3.1691 16.584 9.9587 18.046 13.01 0.53668 1.1203 2.1708 2.9724 3.6315 4.1156 2.5447 1.9918 3.5438 2.0597 23.906 1.6258 22.385-0.47709 22.844-0.58987 20.202-4.968-0.57629-0.95504-2.9388-7.3606-5.25-14.234l-4.2022-12.498-3.75 0.32469c-3.8459 0.33299-4.6661-0.51248-2.55-2.6286 1.6697-1.6697 4.7477-1.4999 5.4384 0.3 0.31659 0.825 1.1631 1.5 1.8812 1.5s2.5212 3.2625 4.007 7.25 3.7751 9.6669 5.0874 12.621 2.386 6.1265 2.386 7.05c0 4.095-0.27273 4.0792 70.477 4.0792 59.997 0 68.341-0.18477 70.3-1.5567 1.2224-0.85619 2.2225-2.0625 2.2225-2.6807s2.1813-4.3052 4.8474-8.1933c10.459-15.253 10.516-15.41 9.7481-26.893-0.78124-11.686-2.5155-22.72-3.7999-24.177-0.48497-0.55-3.4499-1.45-6.5886-2-4.8394-0.848-5.7566-1.3504-6.0337-3.305-0.41856-2.9526 1.4491-5.195 4.3268-5.195 1.2403 0 2.8194-0.67999 3.5092-1.5111 1.1148-1.3433 1.3783-1.3443 2.3724-9e-3 1.0676 1.4336 5.9703 2.1023 10.011 1.3655 2.8512-0.51992 3.1267 2.0071 0.33453 3.0686l-2.4357 0.92604 1.4404 7.8301c0.79219 4.3066 1.8517 8.2576 2.3544 8.7801s0.91403 2.9029 0.91403 5.2898c0 5.4274 2.8486 11.115 8.6999 17.37 6.139 6.5631 13.008 9.1992 24.3 9.3254 4.675 0.0522 8.95 0.35989 9.5 0.68366s11.575 0.54188 24.5 0.48469c23.461-0.10382 23.501-0.10764 23.815-2.3186 0.29701-2.0887 0.86533-2.2308 10-2.5l9.6851-0.28543-3.5-1.8114c-1.925-0.9963-6.9783-2.213-11.23-2.7039s-8.7513-1.4757-10-2.1886c-3-1.7126-41.991-2.2525-46.046-0.63758-2.217 0.88284-3.1225 0.79877-4.5-0.41778-0.94846-0.83766-3.7036-1.8478-6.1226-2.2448-7.2837-1.1954-10.909-3.2301-13.737-7.7103-1.4555-2.3057-2.9619-5.3382-3.3476-6.7389-0.79337-2.8816 0.55499-6.6686 2.6623-7.4772 1.6348-0.62733 20.71 2.0922 44.321 6.3187 9.075 1.6245 21.45 3.6774 27.5 4.562 20.532 3.0022 22.761 3.4755 24.724 5.2522 4.5077 4.0794 4.4894 7.6507-0.0449 8.7887-2.5795 0.64742-2.6062 0.72309-0.73651 2.0902 1.067 0.78018 3.4523 1.4185 5.3008 1.4185 2.8405 0 3.524 0.4678 4.414 3.0211 1.3311 3.8184 4.1164 5.438 6.8428 3.9789 1.1-0.5887 2-1.5045 2-2.0352 0-1.8784 1.695-0.92972 2.8437 1.5916 1.4404 3.1615 3.1563 2.31 3.1563-1.5662 0-4.6788-2.0993-13.102-3.3476-13.433-0.6338-0.16779-4.7524-1.4736-9.1524-2.9018-9.8718-3.2042-24.505-6.8174-39-9.6296-6.05-1.1738-11.642-2.3513-12.428-2.6168-4.048-1.3684 7.024-5.2508 15.754-5.5241l3.6737-0.115-3.8008-0.73585c-6.1528-1.1912-6.3624-2.4018-1.0075-5.821 4.4553-2.8448 14.281-7.2131 16.224-7.2131 0.46291 0 1.4008 1.35 2.0843 3s1.7417 3 2.3516 3 3.8178-1.6792 7.1287-3.7316c5.2081-3.2285 6.9949-3.7824 13.253-4.1085 7.1778-0.37398 7.2418-0.35486 8.3018 2.4816 0.58755 1.5722 1.8716 4.6585 2.8534 6.8585 5.3631 12.017 6.2865 15.493 6.3045 23.731 0.0144 6.5825 0.59044 9.7993 2.8241 15.769 1.5433 4.125 3.1203 9.3 3.5044 11.5s1.9988 5.6611 3.5883 7.6914c4.4953 5.7419 3.3503 13.695-2.6281 18.255-2.3268 1.7748-3.482 3.479-3.482 5.1371 0 3.729-2.5591 9.1107-4.9377 10.384-1.1588 0.62019-4.8776 0.99391-8.264 0.83049l-6.157-0.29714 0.19874-6.5c0.22536-7.3703-0.23363-8.4213-4.09-9.3651-2.6136-0.63965-2.7587-0.48613-2.925 3.096-0.27828 5.9923 0.27733 11.743 1.1662 12.071 1.0285 0.37916-3.3597 5.1985-4.7334 5.1985-0.55708 0-1.5815-0.68516-2.2765-1.5226-1.431-1.7242-2.7994-1.4517-11.128 2.2163-4.4007 1.9381-6.0834 2.2534-7.6244 1.4286-1.7714-0.94801-2.0414-0.67092-2.592 2.6597-1.3455 8.139-1.0589 8.8742 3.9504 10.136 5.0304 1.2667 38.297 13.633 39.258 14.594 1.0601 1.0601-2.2459 2.4575-5.8514 2.4732-1.9286 8e-3 -5.0786 0.51562-7 1.1271s-9.3434 1.4937-16.493 1.9604c-16.576 1.082-20.716 1.7618-22.197 3.6447-0.65861 0.83691-3.3261 1.9193-5.9278 2.4054-4.7799 0.89298-34.179 3.0014-37.875 2.7163-1.1-0.0849-8.075-0.47881-15.5-0.87546zm-284.5-17.963c-0.33992-0.55-1.293-1-2.118-1s-1.2219 0.45-0.88197 1 1.293 1 2.118 1 1.2219-0.45 0.88197-1zm-5.5-3c0-0.55-0.47656-1-1.059-1s-0.7809 0.45-0.44098 1 0.81648 1 1.059 1 0.44098-0.45 0.44098-1zm10-7.441c0-0.24254-0.45-0.7191-1-1.059s-1-0.14148-1 0.44098 0.45 1.059 1 1.059 1-0.19844 1-0.44098zm-33.18-5.309c0.38463-2.7083-0.0694-2.754-4.9661-0.5-5.001 2.302-4.8537 3.4374 0.39658 3.0575 3.533-0.25563 4.3039-0.68708 4.5696-2.5575zm339.18-0.25c0-1.4667-0.66667-2-2.5-2-2.7296 0-3.1641 0.93588-1.3 2.8 1.8402 1.8402 3.8 1.4276 3.8-0.8zm-101.07-1.411c0.84592-1.0193 0.86446-1.6004 0.0668-2.0934-1.3319-0.82315-67.311-0.69448-69.474 0.13548-0.83545 0.32059-1.519 1.2098-1.519 1.9759 0 2.0885 69.192 2.071 70.926-0.018zm6.5312-1.6581c-0.94036-1.5215-2.4428-1.0568-1.8211 0.56336 0.31537 0.82184 0.98359 1.2407 1.4849 0.9309s0.65263-0.98226 0.33619-1.4943zm-114.45-11.681c4e-3 -0.4125-2.1073-5.3532-4.691-10.979l-4.6977-10.229-13.028 0.53214c-7.1656 0.29268-13.23 0.73343-13.476 0.97945s1.0902 0.4542 2.9694 0.46262 4.0339 0.40632 4.7883 0.88421c0.87085 0.55165-1.9604 1.1326-7.7544 1.5912l-9.1261 0.72231 2.7544 5.0787c1.5149 2.7933 4.1576 6.5704 5.8725 8.3935l3.1181 3.3148h16.632c9.1476 0 16.635-0.3375 16.639-0.75zm109.7-4.0856c6.0173-5.0076 16.88-16.911 16.123-17.668-0.23685-0.23686-1.758-0.0342-3.3804 0.45033s-2.5857 0.91966-2.1407 0.96694 0.50996 0.56982 0.14446 1.1612c-0.43233 0.69952-1.2589 0.43743-2.3652-0.75-1.6097-1.7276-4.8906-1.8253-61.311-1.8253-32.786 0-59.871 0.26012-60.188 0.57805-0.71035 0.71028 5.0269 17.938 6.4466 19.357 1.0044 1.0044 34.215 1.9986 79.663 2.3846l21.198 0.18008 5.8105-4.8356zm43.255 2.5856c0.5055-1.2375 1.9359-5.82 3.1786-10.183 1.7178-6.0311 1.9591-8.0335 1.0065-8.351-0.87995-0.29332-0.7162-0.82483 0.54991-1.7849 1.5563-1.1802 0.10604-1.3715-10.601-1.399l-12.404-0.0318-11.733 12-11.733 12h20.408c20.225 0 20.416-0.0202 21.327-2.25zm-218.96-24.865c0-1.631-6.8722-7.718-11.5-10.186-4.2862-2.2858-16.028-3.0242-21.948-1.3802-3.9367 1.0934-1.5999 2.6448 4.0155 2.666 6.0909 0.0229 17.628 3.3581 23.623 6.8293 6.2649 3.627 5.8089 3.4644 5.8089 2.0709zm231.9-4.96c1.0286-1.6914 2.822-3.7419 3.9853-4.5567 2.9903-2.0945 2.663-3.048-1.8335-5.3419-3.9161-1.9978-8.7108-8.7456-12.707-17.883l-1.5933-3.6431-1.7649 5.7234c-1.9328 6.2676-6.3369 14.621-11.637 22.072-1.8761 2.6375-3.1455 5.225-2.821 5.75 0.32549 0.52665 6.398 0.9546 13.546 0.9546h12.956l1.8701-3.0752zm16.848-0.29359c10.94-7.7551 29.199-11.055 44.252-7.9975 1.6193 0.32891 2.1477 0.1682 1.5-0.45619-2.876-2.7724-18.494-3.9354-28-2.085-2.75 0.53532-7.2746 1.1206-10.055 1.3007-7.7874 0.50437-10.526 2.7051-12.886 10.357-0.91507 2.9664-0.4257 2.8609 5.1884-1.1188zm72.252-52.131c-0.68469-0.825-2.4273-1.484-3.8724-1.4646l-2.6276 0.0354 2.5 1.4291c3.4911 1.9957 5.6563 1.9957 4 0zm-293 50.5c0-1.1872 1.7373-1.1872 4.5 0 1.676 0.72021 1.4735 0.87082-1.25 0.92971-1.7875 0.0387-3.25-0.37971-3.25-0.92971zm51.575-2.1921c-0.22365-0.71936-0.66709-4.8345-0.98543-9.1447s-0.8328-8.2477-1.1432-8.75-2.8175-0.91328-5.5712-0.91328-5.8771-0.46583-6.941-1.0352c-2.1313-1.1406-2.5542-4.9378-0.89531-8.0376 1.1796-2.2042 13.89-8.9272 16.877-8.9272 1.0813 0 2.2752-0.50032 2.6531-1.1118 0.44147-0.71432 2.3828-0.88689 5.4299-0.48268 4.001 0.53075 5.9751 0.10334 12.622-2.7327 10.933-4.6648 22.689-8.4107 30.379-9.6798 3.575-0.58999 20.452-1.3469 37.504-1.682 29.058-0.57105 31.098-0.49635 32.5 1.1903 1.0671 1.2834 1.5921 4.8666 1.8306 12.493 0.42683 13.652 0.16464 13.983-11.156 14.065-4.4982 0.0326-15.379 0.23396-24.179 0.44744s-29.719 0.66974-46.486 1.0139c-18.33 0.37627-30.977 1.0333-31.717 1.6477-0.79787 0.66218-1.331 4.7729-1.5142 11.677l-0.28287 10.655-4.2592 0.30794c-2.8545 0.20639-4.3932-0.12341-4.6658-1zm30.057-29.479c-0.35212-2.569-0.85586-4.8866-1.1194-5.1502-0.94869-0.94869-14.019 5.4994-14.321 7.0649-0.36131 1.8761 1.7755 2.4253 10.194 2.6201l5.8859 0.13618-0.64023-4.671zm48.857 2.8197 14.988-0.64873 0.77529-5.4029c0.42641-2.9716 0.50831-5.6699 0.18199-5.9962-0.98806-0.98806-15.422-1.221-23.899-0.38575-7.8904 0.77754-7.9732 0.81508-8.8948 4.0353-0.75804 2.6486-1.6579 3.4464-4.8598 4.3086-5.0065 1.3481-12.129-0.71542-12.57-3.6419-0.15892-1.0544-0.52364-3.0039-0.81049-4.3322l-0.52156-2.4151-1.8585 3.056c-1.0222 1.6808-2.3449 3.3566-2.9395 3.7241-1.2039 0.74403-1.489 7.8088-0.36068 8.9371 0.39621 0.39621 6.3587 0.42564 13.25 0.0654s19.274-0.9469 27.518-1.3037zm7.4282-23.788c0.22916-0.19836-4.1849-0.36066-9.809-0.36066-6.4625 0-10.002 0.3627-9.6166 0.98554 0.55193 0.89304 18.333 0.32107 19.426-0.62488zm31.777 43c-0.93324-0.93324 0.19452-2.3605 1.8652-2.3605 0.79254 0 1.441 0.675 1.441 1.5 0 1.5062-2.111 2.0557-3.3062 0.86052zm77.975-41.486c-1.0073-0.5857-2.7382-0.82779-3.8464-0.53799-2.2549 0.58966-4.822-0.12982-4.822-1.3514 0-0.44066 2.0196-2.0789 4.488-3.6405 4.526-2.8634 5.9893-4.7631 4.9562-6.4346-0.30925-0.50037-1.2107-0.90976-2.0032-0.90976s-1.441-0.45-1.441-1c0-1.3046 3.6013-1.2837 6.0657 0.0352 2.2009 1.1779 2.5033 4.0808 0.72211 6.9329-0.66667 1.0675-0.85589 2.2972-0.42046 2.7326s4.3772 0.9545 8.7595 1.1535c5.393 0.24491 7.8459 0.73086 7.5905 1.5038-0.714 2.1612-16.842 3.3809-20.049 1.5162zm-26.168-3.5645c-1.1-0.27717-2.3481-0.8309-2.7736-1.2305-1.9443-1.826 7.7575-6.957 13.274-7.0201 1.9663-0.0225 2.1798 0.17596 1 0.92952-0.8332 0.5322-1.5 2.4147-1.5 4.2347 0 3.1299-0.17911 3.2836-4 3.4335-2.2 0.0863-4.9-0.0699-6-0.34706zm-134.5-1.3412c0-0.53274 0.675-0.96862 1.5-0.96862s1.5 0.17686 1.5 0.39301-0.675 0.65203-1.5 0.96862-1.5 0.13972-1.5-0.39301zm93-16.871c-0.825-0.46127-3.75-1.852-6.5-3.0905-4.8025-2.1629-4.9023-2.2885-2.5277-3.1793 1.546-0.57997 3.232-0.56443 4.5 0.0415 1.1152 0.53293 3.5936 1.2399 5.5076 1.571 2.8559 0.49406 3.7898 0.19479 5.208-1.669 1.4764-1.9402 1.9892-2.0847 3.5201-0.99195 0.98559 0.70347 2.5795 1.5434 3.542 1.8666s1.75 0.97474 1.75 1.4479c0 1.4689-4.5349 3.917-7.079 3.8214-1.3316-0.05-3.321 0.15927-4.421 0.46501s-2.675 0.1785-3.5-0.28276z"/>
  <path d="m416.04 851.81c-3.9959-0.4514-8.0459-1.1409-9-1.5323s-52.585-0.88246-114.73-1.0913c-84.78-0.28487-113.87-0.0862-116.5 0.79538-8.0478 2.7019-57.214 0.70628-67.5-2.7398-2.5823-0.86516-11.266-1.5131-24.5-1.8281-18.86-0.44893-31.017-1.8062-30.989-3.4597 0.01696-0.98629 6.7707-3.9974 12.489-5.568 2.75-0.75536 6.35-1.8547 8-2.4429 9.1181-3.2508 18.157-5.3763 27.5-6.467l10.5-1.2257 0.31453-3.8016c0.49172-5.9432-0.99654-6.9237-6.62-4.3614-5.7271 2.6096-14.466 2.8278-31.458 0.78551-13.098-1.5742-14.956-2.5754-12.302-6.6267 0.91917-1.4028 1.4021-3.3986 1.0731-4.435-0.79041-2.4904-10.701-8.0244-14.37-8.0244-3.4274 0-5.4162-1.9312-4.1307-4.0111 1.0058-1.6274 0.18135-9.8952-1.1574-11.606-1.1992-1.5328 1.0752-3.2422 5.2458-3.9426 1.8726-0.31449 4.3631-0.76217 5.5345-0.99483 1.5411-0.30608 3.0459-2.5075 5.4437-7.9637 3.4857-7.9317 4.8012-8.9672 10.556-8.3096 2.8452 0.32516 2.8708 0.38824 2.8708 7.0799 0 3.7135 0.25807 6.751 0.57349 6.75s1.0899-2.7788 1.7211-6.1729 1.5195-6.543 1.9741-6.9976 6.43-1.1204 13.279-1.4797 14.197-1.2604 16.328-2.0024 7.6863-1.3492 12.344-1.3492c7.7955 0 8.5121 0.1689 9.0241 2.1271l0.55624 2.1271 1.7245-2.2862c1.4542-1.9279 3.3505-2.497 12.1-3.6312 5.7066-0.73976 10.938-1.1323 11.626-0.87225s1.25 1.4566 1.25 2.6591c0 2.0881 0.0858 2.1087 1.9084 0.45925s2.2877-1.5455 10.25 2.2673c4.5878 2.1969 9.8827 5.5945 11.766 7.5502 3.3508 3.4788 3.3852 3.5996 1.5895 5.5838-1.9528 2.1578-1.3001 4.2016 0.70233 2.1992 1.6623-1.6623 3.4936-1.4731 5.5389 0.57222 1.591 1.591 3.161 1.6831 16.75 0.98236 8.247-0.42525 17.393-0.50334 20.325-0.17352 3.9439 0.44367 5.7649 0.21702 7-0.87123 1.3063-1.151 2.917-1.2968 7.405-0.67023 3.1546 0.44036 33.98 0.85304 68.5 0.91705 60.054 0.11135 62.926 0.0335 66.514-1.804 2.0625-1.0562 3.75-1.5189 3.75-1.0282s6.3514 0.8922 14.114 0.8922h14.114l3.8449-4.25c2.1147-2.3375 3.8491-4.925 3.8543-5.75 5e-3 -0.825-1.9348-2.6787-4.311-4.1194-3.6108-2.1892-5.1248-4.2003-9.2184-12.245-2.6939-5.2943-5.4302-9.6281-6.0806-9.6306-2.0284-8e-3 -2.561-3.927-1.8403-13.541 0.44573-5.9453 0.31561-9.9827-0.36257-11.25-0.70086-1.3096-3.3452-2.5762-7.8362-3.7534-7.9803-2.0919-8.6924-2.5806-7.8103-5.36 0.84836-2.673 3.532-2.7494 3.532-0.10066 0 2.4233 0.87336 2.5554 2.4689 0.37347 1.0489-1.4345 1.6302-1.4671 4.9235-0.27623 4.8897 1.7681 5.4316 2.5412 6.6709 9.5156 0.57536 3.238 1.6768 7.2638 2.4477 8.9462s1.1481 4.0284 0.8383 5.2132c-0.81113 3.1018 3.045 10.404 8.8461 16.751 4.1009 4.487 6.0715 5.7857 11.143 7.3436 9.4552 2.9043 14.383 3.4908 17.72 2.109 2.0298-0.84077 3.3314-0.90086 4.1927-0.19358 0.73811 0.60611 11.067 1.2206 25.249 1.5022 20.941 0.41574 24.36 0.26864 26.824-1.154 2.6496-1.5297 2.9077-1.5168 4.1748 0.20788 1.603 2.1818 8.5553 4.0073 9.95 2.6125 0.52299-0.52299 2.2109-0.95088 3.7509-0.95088 3.2276 0 3.7636-2.2778 1.202-5.1082-2.1376-2.362-1.2716-3.4244 3.0277-3.714 3.2551-0.21922 3.5702-7e-3 3.5702 2.4069 0 2.9316 6.0423 11.834 8.7328 12.866 1.0787 0.41392 2.2084-0.0112 3.0465-1.1466 0.73265-0.99244 1.9525-1.679 2.7108-1.5256 3.2304 0.65318 3.0258-18.376-0.23686-22.029-0.85978-0.9625-2.2344-1.75-3.0548-1.75s-5.8131-1.3942-11.095-3.0982-17.842-4.8055-27.912-6.8923c-21.672-4.491-22.954-5.1157-14.52-7.0731 7.1027-1.6484 15.452-1.0585 20.579 1.454 4.0633 1.9913 4.7478 2.0952 4.7347 0.71873-0.0277-2.9135-1.8151-4.5307-5.1747-4.6821-5.7477-0.259-12.81-1.6221-12.81-2.4725 0-1.7513 14.294-9.9546 17.345-9.9546 0.77655 0 1.9751 1.3597 2.6634 3.0215s1.6392 3.261 2.1129 3.5538 2.8952-0.86689 5.3808-2.5771c6.5456-4.5035 10.732-5.9982 16.802-5.9982h5.3684l2.8294 6.25c4.0456 8.9365 5.5734 13.493 6.6226 19.75 1.1048 6.5886 1.136 7.6163 0.3492 11.5-0.4207 2.0766 0.16747 4.745 1.911 8.6694 1.3853 3.1182 3.2533 8.5182 4.151 12s2.7195 7.7631 4.0483 9.5139c3.3389 4.3993 3.0296 14.824-0.47623 16.052-3.1974 1.1198-6.1078 4.6336-6.1078 7.3742 0 7.374-5.4349 11.669-13.123 10.37-3.7172-0.62802-3.8102-0.73724-2.3731-2.789 0.82261-1.1744 1.4956-3.1743 1.4956-4.4442s0.5625-2.4766 1.25-2.6816c5.0551-1.5072 5.3079-1.832 2.0062-2.5772-5.894-1.3304-7.5693-3.8788-4.662-7.0914 2.1873-2.4169 1.0259-7.8959-1.6737-7.8959-1.3802 0-1.9205 0.70103-1.9205 2.4919v2.4919l-4.25-1.6502c-2.3375-0.9076-4.8831-2.1415-5.6569-2.7419-1.1801-0.91572-1.2876-0.44688-0.66717 2.9083 0.40682 2.2 1.3287 5.35 2.0486 7 1.9725 4.5209 1.9008 18.944-0.10243 20.606-1.3387 1.111-1.7994 1.03-2.929-0.51479-1.618-2.2127-5.9484-1.6763-11.804 1.4621-2.16 1.1577-5.1792 1.9185-6.9374 1.7482l-3.113-0.30157-1.2301 8.5c-0.67653 4.675-1.5203 9.4505-1.875 10.612-0.70871 2.3211-0.3389 2.5172 9.5163 5.0451 9.4339 2.4199 14.293 3.2184 20.5 3.369 4.5303 0.10991 5.3733 0.33573 3.4416 0.92189-1.4071 0.42697-3.6145 1.3415-4.9053 2.0323-1.9808 1.0601-15.157 2.4423-31.536 3.308-3.2629 0.17247-4 0.58-4 2.2114 0 1.6847-1.1037 2.2067-7 3.311-8.3272 1.5596-47.901 2.3828-58.265 1.2119zm47.511-16.844c3.5201-2.5091 6.851-6.1789 5.6084-6.1789-1.4806 0-6.3378 2.4201-6.3466 3.1621-4e-3 0.36416-1.9203 0.97857-4.2578 1.3654s-4.6935 0.96842-5.2356 1.2925c-2.3592 1.4106-14.514-1.016-14.514-2.8975 0-0.50735-0.675-0.92245-1.5-0.92245-1.8234 0-1.9578-2.1132-0.25-3.9291 1.0278-1.0928 0.76118-1.2139-1.5-0.68095-2.6616 0.62734-3.8123-0.61536-1.75-1.8899 1.7304-1.0694 1.0881-2.5-1.1224-2.5-1.8367 0-1.9428-0.21651-0.78775-1.6082 1.1288-1.3602 1.0689-1.8026-0.38865-2.8684-1.5529-1.1355-1.5692-1.3881-0.16492-2.5535 1.0272-0.85252 1.1935-1.5189 0.48793-1.955-1.4315-0.88469 0.88274-11.042 2.6722-11.729 0.71698-0.27514 1.3036-1.1412 1.3036-1.9246s0.675-1.6834 1.5-2 1.5-1.2506 1.5-2.0756c0-0.91564 0.57842-1.278 1.4848-0.93025 0.87637 0.3363 1.9213-0.24596 2.5502-1.421 0.58598-1.0949 1.5611-1.6844 2.167-1.31s1.6942-0.12974 2.4186-1.1204c1.0156-1.3889 1.6313-1.5403 2.6903-0.66145 1.514 1.2565 2.6892 0.57698 2.6892-1.5549 0-1.9909-6.2987-0.68894-12.37 2.557-8.3332 4.4551-12.883 12.497-12.806 22.638 0.055 7.319 1.8415 11.835 6.6344 16.77 4.7664 4.9078 8.8269 6.9192 15.542 7.6987 6.2986 0.73118 9.8286 0.019 13.746-2.7733zm-312 2.1908c1.2375-0.33163 2.25-1.0486 2.25-1.5933s-0.70742-0.7189-1.572-0.38711c-1.7217 0.66068-9.6803-1.0912-12.9-2.8396-6.5283-3.5448-10.642-6.809-10.161-8.0629 0.30804-0.80274-0.28759-1.6442-1.4178-2.0029-2.6006-0.8254-2.4663-2.1073 0.30103-2.8735l2.25-0.62297-2.5-1.9714c-1.9551-1.5417-2.1314-1.9763-0.80902-1.9937 2.2751-0.0299 3.236-1.8028 1.8696-3.4493-0.84153-1.014-0.72421-1.4881 0.48286-1.9513 1.0663-0.40918 1.3837-1.276 0.95813-2.6168-0.4521-1.4245-0.18254-2.0049 0.93105-2.0049 0.90072 0 1.5674-0.85067 1.5674-2 0-1.1 0.45-2 1-2s1-0.675 1-1.5c0-0.83333 0.88889-1.5 2-1.5 1.1752 0 2-0.66667 2-1.6166 0-1.1249 0.60901-1.4574 2.0024-1.093 1.2286 0.32127 2.3505-0.0984 2.9032-1.0861 0.74485-1.331 1.1691-1.3872 2.4497-0.32437 0.85183 0.70696 2.4325 1.0049 3.5126 0.66208s2.2532-0.15499 2.607 0.41738 1.4685 1.0407 2.4772 1.0407 2.093 0.675 2.4096 1.5 1.4897 1.5 2.607 1.5 2.0314 0.64468 2.0314 1.4326 0.90653 1.7203 2.0145 2.072 1.7389 1.0853 1.402 1.6304 0.11745 1.7976 1.0096 2.7834 1.3555 2.4869 1.0298 3.3358-0.0898 1.854 0.52444 2.2336c0.81196 0.50181 0.78754 1.0868-0.0894 2.1435-1.5819 1.9061 0.47388 4.4038 2.2022 2.6755 1.5598-1.5598-0.70402-11.73-3.6496-16.396-7.4075-11.734-25.548-13.555-35.883-3.6013-6.7444 6.4957-8.3757 15.763-4.5666 25.944 2.0814 5.5632 7.6776 11.916 12.006 13.63 2.8348 1.1224 10.381 1.3893 13.75 0.48633zm7.25-3.3107c0-0.51754-0.45-1.2191-1-1.559s-1 0.0835-1 0.94098 0.45 1.559 1 1.559 1-0.42344 1-0.94098zm159-2.9656c41.061-0.01 68-2.0797 68-5.2252 0-0.47752-15.188-0.90491-33.75-0.94976s-55.35-0.21261-81.75-0.37281-52.386-0.0801-57.747 0.17798l-9.7474 0.46925 3.4234 2.3232c3.8596 2.6192 7.0449 2.8252 63.071 4.0797 15.95 0.35714 29.135 0.76673 29.3 0.9102s1.965-0.11504 4-0.57448 8.8749-0.83656 15.2-0.83805zm-154-0.0367c0-1.145-4.1883-4.2017-4.8502-3.5398-0.59736 0.59735 2.8742 4.4831 4.0052 4.4831 0.46475 0 0.84501-0.42448 0.84501-0.9433zm-11.904-4.6201c5.8838-2.7026 6.3748-3.0625 7.6118-5.5778 0.96202-1.9561 0.91417-3.7172-0.23486-8.6426-1.9361-8.2993-4.4285-10.716-11.051-10.716-6.2218 0-11.91 3.7774-13.232 8.7862-0.93025 3.5266 0.75309 11.736 2.949 14.382 2.8801 3.4703 8.6578 4.2023 13.957 1.7683zm-9.5712-7.3959c-0.32609-0.52763-0.0618-1.8097 0.58727-2.8491 1.7844-2.8573 0.31866-7.5376-2.1578-6.89-2.2566 0.5901-2.5069-0.99031-0.5626-3.5516 1.858-2.4476 4.9289-2.3367 4.1398 0.1495-0.42518 1.3396 0.21815 2.5154 2.1826 3.9891 4.8102 3.6085 5.3459 4.2046 4.7073 5.2379-0.34216 0.55363 0.20975 1.6149 1.2265 2.3583 2.6145 1.9117 0.86179 3.1262-2.17 1.5036-1.935-1.0356-2.7921-1.0746-3.6985-0.16817-1.4262 1.4262-3.4448 1.5308-4.2546 0.22047zm9.9438-8.0909c-0.95021-1.5375 0.35135-2.5295 1.6348-1.246 0.71818 0.71818 0.73543 1.2775 0.0524 1.6996-0.55992 0.34605-1.3192 0.1419-1.6873-0.45366zm15.274 15.323c0.39375-1.1813-3.5133-2.8349-4.4604-1.8878-0.83024 0.83024 1.8368 3.7425 3.0554 3.3363 0.57057-0.19019 1.2028-0.84199 1.405-1.4484zm294.18-1.9584c1.3314-1.2023 2.5676-3.2273 2.747-4.5 1.6666-11.822 1.7204-11.38-1.826-14.995-7.9508-8.104-12.924-8.9949-18.313-3.2808-4.223 4.4777-6.5375 9.3272-6.4968 13.613 0.0368 3.8796 1.5428 6.1678 6.1608 9.3612 4.5442 3.1424 14.148 3.0349 17.728-0.1984zm-12.921-9.0348c-2.7131-0.48673-5.2298-2.2791-3.2-2.2791 0.66 0 2.1-0.9 3.2-2 2.863-2.863 7-2.6857 7 0.3 0 2.4745-1.7464 4.7848-3.45 4.5638-0.5775-0.0749-2.175-0.33801-3.55-0.58468zm23.5 10.721c0.33992-0.55 0.14148-1-0.44098-1s-1.059 0.45-1.059 1 0.19844 1 0.44098 1 0.7191-0.45 1.059-1zm-302.85-4.5431c0.80656-2.1018-0.0901-2.7709-2.6322-1.9641-1.7028 0.54046-1.8932 0.9583-0.95291 2.0913 1.5297 1.8432 2.8469 1.7965 3.5851-0.12723zm305.35-0.34988c0-1.0554-2.4789-2.12-4.8318-2.0752-1.439 0.0274-1.4016 0.2335 0.27292 1.5 2.1671 1.6391 4.5589 1.9409 4.5589 0.57519zm-120.18-1.6214c0.72607-0.26219 1.1761-1.4912 1-2.7312l-0.32014-2.2545-39.5-0.0693c-33.166-0.0582-40.183 0.17745-43.76 1.4695-4.9545 1.7896-5.017 3.3899-0.16033 4.0998 4.238 0.6195 80.921 0.14279 82.741-0.51436zm12.18-1.4856c0-0.55-0.45-1-1-1s-1 0.45-1 1 0.45 1 1 1 1-0.45 1-1zm109.2-11.784c-1.4132-6.7376-4.4242-11.392-9.603-14.845-4.1832-2.7888-12.497-4.6372-11.165-2.4824 0.40549 0.65608 1.6016 0.91854 2.658 0.58325 1.2212-0.38761 2.1312-0.0612 2.4986 0.89618 0.31781 0.82819 1.1625 1.2815 1.877 1.0073s2.537 0.64866 4.0499 2.0508c2.398 2.2224 2.5744 2.7618 1.3759 4.2059-1.226 1.4773-1.1321 1.5796 0.8673 0.94497 2.2534-0.71519 3.1828 0.72377 1.2422 1.9231-1.7142 1.0594-1.0968 2.5 1.0714 2.5 1.9731 0 1.9883 0.0831 0.32062 1.75s-1.6117 1.778 1.1786 2.3403l2.9294 0.59028-2.8102 1.1578c-3.0246 1.2462-2.801 3.1616 0.36919 3.1616 2.6966 0 2.443 1.7896-0.30902 2.1804-2.8533 0.40523-2.5882 2.142 0.44098 2.8887 3.3281 0.8204 4.5401-3.552 3.0086-10.854zm-368.3-3.9846c0.087-1.9811-0.24927-2.1857-2.6503-1.6121-1.5125 0.36131-3.3328 1.1169-4.0452 1.679s-5.0998 0.9665-9.75 0.8986c-4.8419-0.0707-8.4548 0.28828-8.4548 0.84006 0 0.52994 0.3375 0.97948 0.75 0.99899s4.8 0.66129 9.75 1.4262c8.8584 1.3688 9.0272 1.3565 10.728-0.78547l1.7278-2.1762 0.12192 3c0.11984 2.9489 0.13556 2.9574 0.92255 0.5 0.44036-1.375 0.8455-3.5211 0.90032-4.769zm83.578 2.8034c0.93415-1.5115-8.0529-17.794-9.1924-16.654-0.23149 0.23149 0.67293 2.6031 2.0098 5.2703s2.977 6.5369 3.6448 8.5994c1.2031 3.716 2.3864 4.6473 3.5378 2.7843zm50.105-0.16945c0.50954-0.82445 7.0262-0.95811 23.809-0.48834 12.709 0.35575 35.371 0.90846 50.361 1.2283l27.253 0.58145 4.2467-2.5222c4.7931-2.8467 22.474-20.27 21.529-21.216-0.74075-0.74075-131.74-0.59087-132.94 0.1521-0.46344 0.28642-0.45365 1.281 0.0217 2.2101s1.1609 3.0393 1.5234 4.6893c0.52032 2.3685 0.073 1.9475-2.1249-2l-2.784-5-17.987 0.33025c-9.8927 0.18164-18.754 0.54296-19.691 0.80293-2.0937 0.58063-1.2641 2.8113 4.5048 12.113 6.3744 10.278 6.3163 10.254 25.276 10.254 11.086 0 16.531-0.36338 17.008-1.1352zm151.76-0.13022c0.95177-0.69595 2.5653-4.4084 3.5856-8.25s2.5433-8.8564 3.3844-11.144 1.2636-4.4253 0.93887-4.75-6.4009-0.59041-13.503-0.59041h-12.912l-11.671 12.107c-6.4192 6.6589-11.821 12.509-12.005 13-0.55406 1.4842 40.134 1.125 42.182-0.37241zm20.972-20.018c3.7611-6.4178 12.475-13.977 18.98-16.467 18.873-7.2222 41.173-4.215 51.222 6.9073 4.5233 5.0068 9.0843 14.496 10.464 21.772 0.56527 2.9807 1.2496 5.6412 1.5207 5.9123 2.804 2.804-7e-3 -13.072-3.6736-20.744-1.2082-2.5283-4.9797-7.3466-8.3812-10.707-6.9356-6.8524-10.892-8.6134-23.493-10.456-8.2817-1.2109-22.481-0.5158-23.511 1.151-0.31113 0.50342-2.497 0.91531-4.8574 0.91531-8.9521 0-9.9875 0.91964-17.049 15.144-6.1337 12.355-9.5565 21.519-9.5275 25.51 7e-3 1.0154 1.2927-1.829 2.8563-6.3209s4.0165-10.169 5.4508-12.617zm-329.32 13.284c0-0.55-0.19844-1-0.44098-1s-0.7191 0.45-1.059 1-0.14148 1 0.44098 1 1.059-0.45 1.059-1zm6.5 0c0.33992-0.55-0.05697-1-0.88197-1s-1.7781 0.45-2.118 1 0.05697 1 0.88197 1 1.7781-0.45 2.118-1zm416.93 0.10648c0.30373-0.49144-0.094-2.7253-0.88394-4.9641s-1.1889-5.5945-0.88638-7.4585c0.63252-3.8978-1.416-5.4222-4.8306-3.5947-1.4949 0.80002-1.8401 1.6461-1.3245 3.2464 0.3835 1.1904 1.2882 4.6394 2.0104 7.6644 0.72223 3.025 1.3509 5.6125 1.397 5.75 0.22701 0.67717 4.0372 0.13447 4.518-0.64352zm-447.88-3.2006c0.37193-0.60179 1.7356-0.89166 3.0304-0.64414 2.341 0.44751 2.3445 0.43361 0.63278-2.4787-1.1885-2.022-1.819-2.4545-2.0368-1.3969-0.17348 0.84249-1.8837 2.0989-3.8006 2.792-2.8572 1.0332-3.1607 1.3883-1.6846 1.9708 2.5794 1.0179 3.0997 0.98511 3.8588-0.24306zm15.442-0.84681c0-0.51754-0.45-1.2191-1-1.559s-1 0.0835-1 0.94098 0.45 1.559 1 1.559 1-0.42344 1-0.94098zm8.2165-4.2425c-1.3513-1.3513-2.5891 0.77227-1.7378 2.9814 0.60457 1.569 0.73691 1.5577 1.6922-0.14427 0.68447-1.2194 0.69996-2.1828 0.04562-2.8371zm10.784 2.1835c0-0.55-0.19844-1-0.44098-1s-0.7191 0.45-1.059 1-0.14148 1 0.44098 1 1.059-0.45 1.059-1zm-5-5.3333c0-2.8419-0.74637-3.7012-2.5978-2.9908-1.7191 0.65968-1.8101 2.5162-0.20223 4.1241 1.833 1.833 2.8 1.4416 2.8-1.1333zm86.968-6.4976c-2.2729-4.7044-8.7946-10.733-14.331-13.247-7.6815-3.4881-26.58-1.8363-31.138 2.7215-0.87677 0.87676-1.4348 1.7535-1.24 1.9482s3.7037-0.0192 7.7976-0.47553c14.432-1.6085 27.946 1.9723 36.944 9.7888 1.925 1.6724 3.5717 3.0528 3.6592 3.0676s-0.67365-1.697-1.6916-3.804zm236.03-6.1691c0-0.55-0.47656-1-1.059-1s-0.7809 0.45-0.44098 1 0.81648 1 1.059 1 0.44098-0.45 0.44098-1zm113.64-0.5c0.825-0.825 2.7913-1.5 4.3696-1.5 5.1338 0 5.0171-3.7981-0.13666-4.4482-1.3067-0.16484-2.9924-0.46892-3.746-0.67575-1.9134-0.52512-5.166 5.2446-3.8752 6.874 1.2626 1.5937 1.567 1.5712 3.3883-0.25zm-25.225-0.36635c1.4484-2.3435-6.7999-5.891-9.1541-3.9372-1.0815 0.89757-0.80151 1.4683 1.448 2.9516 2.9472 1.9433 6.809 2.4372 7.7061 0.98564zm3.0826-46.134c0.33992-0.55-0.33508-1-1.5-1s-1.8399 0.45-1.5 1 1.0149 1 1.5 1 1.1601-0.45 1.5-1zm-275.01 43.75c-4.5264-12.655-7.4879-22.086-7.0674-22.506 0.29162-0.29162 0.81585 0.32169 1.165 1.3629 0.57653 1.7195 7.4535 19.74 8.2457 21.607 0.18334 0.43211-0.16829 0.78565-0.78138 0.78565s-1.3159-0.5625-1.5618-1.25zm150.08-2.25c3.0256-5.1206 8.692-13.5 9.1291-13.5 0.87403 0-5.3317 10.255-8.0505 13.303l-2.8512 3.1969 1.7726-3zm-123.72-1.75c-0.67305-1.2375-1.4764-5.4-1.7852-9.25l-0.56145-7-6.3358-0.69879c-8.9944-0.99201-11.184-3.4725-7.592-8.6007 1.8118-2.5867 12.378-8.2005 15.435-8.2005 1.135 0 3.1933-0.74012 4.5738-1.6447 2.1382-1.401 2.8738-1.4501 4.9636-0.33168 2.2092 1.1824 3.7225 0.80604 15.205-3.7809 7.0132-2.8017 15.226-5.7726 18.251-6.6019 7.6625-2.1009 19.591-3.1107 20.444-1.7307 0.91067 1.4735 24.832 1.3923 30.056-0.10205 2.2-0.62938 9.2114-1.3189 15.581-1.5323 9.4777-0.31751 11.81-0.11194 12.842 1.132 0.73248 0.88258 1.4729 5.6236 1.7657 11.306 0.70335 13.651 1.1124 13.294-16.094 14.016l-13.822 0.57952 0.57537-2.9045c0.96817-4.8874 1.1006-9.8687 0.29703-11.169-0.96613-1.5632-28.836-1.7394-31.711-0.20042-1.1172 0.5979-1.9343 2.0868-1.9343 3.5248 0 3.159-3.8436 4.7951-9.7494 4.15-5.4722-0.59771-7.2506-2.1508-7.2506-6.3324 0-2.3356-0.46274-3.3776-1.5-3.3776-0.825 0-1.5 0.67798-1.5 1.5066s-1.1227 2.4828-2.4949 3.6759c-2.0916 1.8186-2.4362 2.874-2.1317 6.5287 0.27191 3.264-0.0435 4.5703-1.2551 5.1985-3.1254 1.6205-4.6037-0.14581-4.9193-5.8774-0.16556-3.0072-0.46921-5.6359-0.67478-5.8414s-3.8951 1.1356-8.199 2.9803c-6.0169 2.579-7.8252 3.8133-7.8252 5.3414 0 1.351 0.80054 2.1101 2.5 2.3707 2.0418 0.31304 1.6752 0.58796-2 1.5l-4.5 1.1167-1.1478 11c-0.6313 6.05-1.1938 11.112-1.25 11.25s-1.2114 0.25-2.567 0.25c-1.5268 0-2.9305-0.85622-3.6885-2.25zm-41.347-21.75c0.33992-0.55 1.2665-1 2.059-1s1.441 0.45 1.441 1-0.92656 1-2.059 1-1.7809-0.45-1.441-1zm272.57-0.94113c-2.2502-1.9516-3.5873-2.0589-25.662-2.0589-14.447 0-23.523 0.37965-23.906 1-0.91794 1.4853-4.482 1.2105-5.0973-0.39301-0.31931-0.83212-2.8228-1.6789-6.2176-2.1031-3.1257-0.39052-6.8417-1.3092-8.2579-2.0416-2.7195-1.4063-7.4121-7.7614-8.1414-11.026-0.54711-2.4488 1.8445-7.4365 3.5658-7.4365 4.4552 0 28.369 3.9137 58.648 9.5984 6.1249 1.1499 29.637 4.3602 32.173 4.3929 1.6536 0.0213 6.8267 5.3705 6.8267 7.059 0 2.3256-5.8477 4.0915-12.729 3.844-2.6239-0.0944-5.6838 0.14229-6.7998 0.52591-1.3688 0.47049-2.8017 0.0274-4.403-1.3614zm-153.32-0.79108c2.3375-0.21053 6.1625-0.21053 8.5 0s0.425 0.3828-4.25 0.3828-6.5875-0.17226-4.25-0.3828zm116.76-24.244c-0.40506-0.65539-2.0268-0.83114-4.0929-0.44353-4.6558 0.87342-4.2974-0.57859 1.078-4.3675 2.8021-1.9751 4.5-3.9343 4.5-5.1925 0-2.2745 2.5018-2.7614 3.3139-0.64503 0.29032 0.75657-0.1247 2.6334-0.92228 4.1707-1.5242 2.9379-1.07 4.0327 1.9112 4.6066 0.99155 0.19088 1.8916 0.79706 2 1.3471 0.27225 1.3807-6.9578 1.8673-7.7879 0.52414zm13.085 0.13795c-0.6707-1.0852 1.603-2.1621 4.5649-2.1621 1.1535 0 1.8276 0.52963 1.5911 1.25-0.49984 1.5222-5.3361 2.2388-6.156 0.91209zm-38.6-3.5879-3.5-1.2736 3.5-2.1465c1.925-1.1806 4.175-2.1447 5-2.1425 1.635 4e-3 4.2719 4.7395 3.4132 6.1289-0.73368 1.1871-4.2442 0.95083-8.4132-0.56628zm-42-18.595c-0.825-0.44751-2.9625-1.3554-4.75-2.0176s-3.25-1.6475-3.25-2.1896c0-0.55017 0.7732-0.66312 1.75-0.25563 0.9625 0.40151 3.775 1.1365 6.25 1.6333 3.9422 0.79134 4.7058 0.65215 6.1603-1.123 2.0413-2.4914 2.4206-2.5012 5.4219-0.14039 1.8237 1.4345 2.1008 2.1197 1.1577 2.8626-1.7027 1.3412-10.898 2.2292-12.74 1.2303z"/>
  <path d="m425.8 851.76c-7.425-0.38897-15.321-1.2107-17.547-1.8261-6.2515-1.7283-226.57-1.8608-235.95-0.14195-4.9542 0.90775-12.396 1.1066-25.5 0.68155-22.755-0.7382-34.278-2.1529-39.497-4.849-3.062-1.5819-5.1019-1.9314-8.75-1.4993-2.6164 0.30987-4.7572 0.40664-4.7572 0.21503s3.0043-1.7973 6.6762-3.5683c4.6835-2.2588 8.116-3.2199 11.5-3.2199 2.6531 0 4.8238-0.38142 4.8238-0.84759s-0.85953-3.0282-1.9101-5.6935-2.2275-6.9624-2.6154-9.5493-1.1092-4.9531-1.6029-5.2582-3.3836 0.37544-6.4221 1.5123c-6.2526 2.3394-12.784 2.5855-27.279 1.0279-15.499-1.6654-16.17-1.8294-16.17-3.9472 0-1.0426 0.45-2.1738 1-2.5137s1-1.9323 1-3.5387c0-2.3892-0.71112-3.2834-3.9078-4.9142-2.1493-1.0965-4.0645-2.4638-4.2561-3.0386s-2.7081-1.3244-5.5922-1.666-5.2439-0.95328-5.2439-1.3593c0-1.3351 2.8903-3.169 3.9562-2.5102 0.57409 0.35481 1.4994 0.36355 2.0562 0.0194 1.521-0.94006-0.52661-3.9758-2.6878-3.9848-1.2447-5e-3 -1.9252-0.88162-2.141-2.7576-0.25485-2.2149 0.08568-2.75 1.75-2.75 2.2122 0 2.8415-1.575 0.88937-2.2257-2.0944-0.69815 0.21128-2.7743 3.0811-2.7743 3.5664 0 5.8833-2.6081 9.1469-10.297 2.305-5.4303 3.015-6.2419 6.0308-6.8949 5.7068-1.2357 6.1901-0.62623 5.7454 7.2446-0.37331 6.6066-0.27472 7.0122 1.6378 6.7383 1.3331-0.19087 2.128-1.1537 2.3047-2.7914 0.7887-7.3112 1.3838-9.2465 2.5001-8.1302 0.62164 0.62164 2.7981 1.1302 4.8366 1.1302 3.214 0 3.6369 0.26567 3.1834 2-0.28766 1.1-0.24607 2 0.09242 2 0.76121 0 12.699-6.2991 18.118-9.56 3.4341-2.0666 5.2814-2.4094 13.057-2.4236 8.9666-0.0163 9.0674 0.011 10.101 2.7336l1.0442 2.75 1.0915-2.6644c1.2527-3.0577 2.1514-3.4258 11.706-4.7937 10.444-1.4953 12.5-1.3652 12.5 0.7915 0 2.787 1.1425 3.3476 3.1393 1.5406 1.677-1.5177 2.3191-1.403 9.2848 1.6582 7.6101 3.3444 16.371 10.743 13.826 11.676-0.6875 0.25208-1.25 1.0693-1.25 1.816 0 2.8556-1.8706 2.2568-6.346-2.0314-7.6732-7.3522-11.693-8.98-22.154-8.9702-12.019 0.0112-18.513 2.1046-27.101 8.7359-7.827 6.0442-11.462 10.811-14.551 19.079-1.4665 3.926-2.9132 6.1164-4.4175 6.6883-1.2302 0.46775-2.5321 1.3282-2.893 1.9121s-2.9062 1.0617-5.6562 1.0617c-3.0787 0-4.7625-0.38426-4.382-1 0.33992-0.55 1.5056-1 2.5904-1 2.9512 0 3.3892-2.5286 1.8005-10.395l-1.4347-7.1046-6.7281-0.29569-6.7281-0.29569 0.01531 8.2957c0.0084 4.5626 0.44632 8.9707 0.97311 9.7957 0.75901 1.1887 0.33257 1.6038-2.0547 2-1.6569 0.275-3.0188 0.95-3.0266 1.5-0.01207 0.85327 12.006 3.4715 26.775 5.8331l4.0774 0.65199 1.1258-7.5697c1.5859-10.663 4.4122-16.572 10.655-22.278 6.6304-6.0598 14.196-8.4822 26.461-8.4726 12.522 0.01 20.367 2.877 28.38 10.374 6.4194 6.0051 10.508 12.352 12.665 19.659 1.3566 4.597 3.1609 5.9623 4.9811 3.769 0.92883-1.1192 0.44086-2.7243-2.338-7.6906-1.9315-3.4519-5.1224-8.3012-7.091-10.776-4.2328-5.3217-4.3968-6.8726-0.98956-9.3552 2.492-1.8157 2.5863-1.8122 4.4273 0.16388 1.8085 1.9412 2.7218 1.9976 23.672 1.4601 11.985-0.30744 22.016-0.83119 22.291-1.1639s24.8-0.37989 54.5-0.10489 61.65 0.21817 71-0.12628 24.02-0.65751 32.599-0.69568c15.468-0.0688 15.613-0.0903 17.224-2.5491l1.6248-2.4797 3.0695 2.8674 3.0695 2.8674-3.1643 6.2685c-3.6599 7.2502-6.8629 16.35-6.8984 19.598-0.0453 4.1442 1.8168 2.3074 3.4877-3.4403 2.4587-8.4577 8.0202-18.842 12.479-23.301 12.298-12.298 38.436-15.839 55.072-7.4621 8.6972 4.3795 15.682 14.957 18.247 27.633 0.68726 3.3956 1.768 6.3466 2.4016 6.5578 2.1587 0.71958 3.3784-3.3778 2.3576-7.9207-1.2723-5.6626-0.63351-6.0113 1.153-0.62929 1.2884 3.8816 1.782 4.3425 4.9398 4.6131 4.8666 0.41694 6.0138-1.2783 4.2634-6.3006-0.76671-2.2-1.1351-5.4151-0.81865-7.1447 1.0702-5.8493-0.64363-7.2342-9.3596-7.5635-6.4253-0.24269-7.7826-0.58651-8.0605-2.0418-0.28058-1.4694 0.43927-1.7525 4.4892-1.7653 2.6528-8e-3 5.4273-0.39812 6.1655-0.86598 3.5062-2.2222-5.1459-8.1092-9.7639-6.6435-1.0742 0.34094-2.7688 0.20101-3.7657-0.31096-5.8529-3.0058-14.802-5.2994-28.198-7.2272-6.7003-0.96419-9.8152-0.94627-15.5 0.0892-3.913 0.71271-7.6126 1.675-8.2214 2.1385s-2.44 0.576-4.0694 0.25012c-4.9273-0.98546-9.8603 1.802-13.416 7.5812l-3.1521 5.1229-2.3782-2.2342c-2.1975-2.0644-2.2642-2.4082-0.87768-4.5242 2.193-3.3469 1.9104-4.1106-2.3192-6.2684-4.0972-2.0902-7.1253-6.078-12.103-15.939-1.7245-3.4161-4.0223-7.0981-5.1063-8.1821-3.3021-3.3021-2.1522-12.971 1.5426-12.971 1.0656 0 1.3936 1.139 1.2537 4.3531-0.38137 8.7628 10.43 22.1 20.388 25.151 7.2661 2.2264 16.033 3.0009 18.574 1.641 1.6039-0.85837 2.3328-0.77499 3.2881 0.37613 1.0232 1.2328 5.3703 1.479 26.119 1.479 17.908 0 25.441-0.34366 26.853-1.225 1.617-1.0099 2.1856-0.93598 3.2364 0.42061 1.5872 2.0489 7.6726 3.7378 11.104 3.0818 2.1898-0.41862 2.6732-0.0624 3.2095 2.3649 0.34723 1.5718 1.314 4.6578 2.1483 6.8578s1.8863 6.5841 2.3378 9.7424 1.589 7.2083 2.528 9c1.2604 2.4049 1.6554 5.3516 1.5092 11.258-0.2142 8.6553-1.3213 11.186-3.5646 8.148-1.3186-1.7858-1.5576-1.7892-6.6827-0.0965-2.9234 0.96553-6.3461 2.4253-7.6061 3.2439-1.8118 1.1771-2.8123 1.2508-4.7837 0.35258-2.9489-1.3436-2.903-1.4312-4.3262 8.2553-1.2142 8.2639-4.6565 15.676-10.21 21.985-2.2494 2.5554-3.8512 5.268-3.5596 6.0278 0.77459 2.0186-6.5412 3.6098-21.33 4.6392-6.875 0.47858-13.175 0.81584-14 0.74947s-7.575-0.43893-15-0.8279zm-211.97-12.502c1.4368-1.3003 3.6572-1.3998 15.079-0.67564 7.3666 0.46706 14.346 0.51244 15.509 0.10085s3.8702-0.35401 6.0153 0.12796c5.5414 1.2451 8.9559 1.2719 56.369 0.44295 53.289-0.93167 59.87-0.94726 63.85-0.15134 3.0014 0.60028 3.4192 0.32564 6.218-4.0877 2.0153-3.1778 4.5168-5.5019 7.6189-7.0784 3.4713-1.7642 4.2701-2.5677 3.2159-3.2352-0.77141-0.48839-25.478-0.90177-54.903-0.91861-48.288-0.0276-60.405-0.55436-54.972-2.3896 0.80958-0.27348 18.394-0.68042 39.076-0.9043s38.119-0.7259 38.75-1.1156c1.5034-0.92918 1.4724-4.271-0.0484-5.2109-0.65712-0.40612-18.995-0.63637-40.75-0.51165-42.204 0.24195-47.398 0.7457-46.852 4.5442 0.16647 1.1589 1.1758 2.2075 2.297 2.3862 1.1 0.17532 2.6624 0.54163 3.472 0.81401 5.0962 1.7146-5.3237 2.3646-38.972 2.4312-29.474 0.0583-37.078 0.32908-35.53 1.2653 3.5936 2.1734 7.8142 7.1355 9.7315 11.441 2.1054 4.7281 2.418 4.9046 4.8264 2.7252zm250.17-3.7747c11.243-9.1647 15.314-18.429 12.99-29.56-3.9767-19.048-26.117-26.311-41.102-13.483-11.73 10.04-12.381 29.731-1.3052 39.456 4.6573 4.0891 9.3347 6.0192 16.718 6.8985 3.3 0.39299 6.3206 0.77609 6.7125 0.85135s3.086-1.798 5.9869-4.1628zm-10.533-4.3671c-1.0203-1.0203-0.79238-4.3333 0.29815-4.3333 0.89105 0 3.0352 3.1325 3.0352 4.4343 0 0.78682-2.5219 0.71046-3.3333-0.10093zm4.3333-1.3333c0-0.55 0.45-1 1-1s1 0.45 1 1-0.45 1-1 1-1-0.45-1-1zm3.6853-1.7002c-0.2892-0.46794 0.5633-1.899 1.8945-3.1802s2.4203-1.8134 2.4203-1.1827c0 1.6473-3.6882 5.3766-4.3147 4.3629zm-22.456-2.4873c0.2177-0.65312 0.93051-1.3657 1.584-1.5836 0.73075-0.24358 0.95424 0.21359 0.58051 1.1875-0.69752 1.8177-2.7645 2.1959-2.1645 0.39606zm-3.2292-1.631c0-1.2086 1.8972-2.6176 2.5907-1.9241 0.2517 0.2517-0.22824 1.0269-1.0665 1.7226-0.95039 0.78875-1.5242 0.86462-1.5242 0.20152zm30-3.8039c0-1.3288 0.27149-1.3971 1.5-0.37756 0.825 0.68469 1.5 1.4148 1.5 1.6224s-0.675 0.37756-1.5 0.37756-1.5-0.7301-1.5-1.6224zm-31.188-1.0607c0.72188-0.28887 1.5844-0.25335 1.9167 0.0789s-0.25834 0.56864-1.3125 0.52522c-1.165-0.048-1.4019-0.28494-0.60417-0.60416zm32.688-2.3169c-0.33992-0.55-0.14148-1 0.44098-1s1.059 0.45 1.059 1-0.19844 1-0.44098 1-0.7191-0.45-1.059-1zm-34.5-1c0-0.55 0.70156-1 1.559-1s1.2809 0.45 0.94098 1-1.0415 1-1.559 1-0.94098-0.45-0.94098-1zm16.407-2.382c-0.85795-2.2358 0.37286-3.618 3.2216-3.618 2.0315 0 2.4496 0.42929 2.191 2.25-0.38073 2.6808-4.5085 3.7241-5.4126 1.368zm18.593-0.61802c0-0.55 0.45-1 1-1s1 0.45 1 1-0.45 1-1 1-1-0.45-1-1zm-34.49-2.0163c0.34546-0.55897 1.047-0.75742 1.559-0.44098 1.387 0.85723 1.1284 1.4573-0.62812 1.4573-0.85746 0-1.2764-0.45734-0.9309-1.0163zm0.0326-2.9146c-0.31644-0.512-0.11799-1.2136 0.44098-1.559s1.0163-1.5016 1.0163-2.5691 0.45-1.941 1-1.941 1-0.675 1-1.5 0.675-1.5 1.5-1.5 1.5-0.708 1.5-1.5733c0-0.95617 0.68196-1.442 1.7385-1.2385 2.2362 0.43065 2.9767 3.8118 0.8348 3.8118-0.86532 0-1.5733 0.675-1.5733 1.5s-0.45 1.5-1 1.5-1 0.675-1 1.5-0.45 1.5-1 1.5-1 0.675-1 1.5c0 1.6424-2.536 2.0598-3.4573 0.5691zm33.457-3.0691c0-0.55 0.45-1 1-1s1 0.45 1 1-0.45 1-1 1-1-0.45-1-1zm-1.7381-3.6905c0.92977-0.92976 1.9713-1.4097 2.3144-1.0665 0.98418 0.98419-0.52669 2.757-2.3496 2.757-1.5265 0-1.5237-0.13153 0.0352-1.6905zm-3.2619-1.7743c0-0.80565 0.9-1.9465 2-2.5352 1.5358-0.82195 2-0.76049 2 0.26482 0 1.4698-1.9408 3.7352-3.2 3.7352-0.44 0-0.8-0.65917-0.8-1.4648zm-3-1.4239c0-1.0447-6.6114-2.5558-9.5-2.1714-1.1 0.14641-2.2872 0.72747-2.6382 1.2912-0.83157 1.3357-2.8618 0.0657-2.8618-1.7902 0-0.79254 0.81-1.441 1.8-1.441s2.2892-0.48921 2.8871-1.0871c0.78285-0.78285 1.2836-0.76925 1.789 0.0486 0.51694 0.83643 1.0938 0.81046 2.1891-0.0986 1.1837-0.98238 1.6502-0.97051 2.286 0.0582 0.56253 0.9102 1.0011 0.96512 1.4828 0.1857 1.0056-1.6272 2.566-1.3471 2.566 0.46063 0 1.1123 0.58068 1.3831 2 0.93261 2.2718-0.72103 2.7692 1.3308 0.8 3.3-1.4135 1.4135-2.8 1.5676-2.8 0.31129zm-302 38.808c16.238-7.3505 19.775-26.911 7.2086-39.865-5.2387-5.4003-9.4573-7.0391-18.143-7.048-21.955-0.0225-30.954 27.191-14.315 43.287 2.1563 2.0859 5.2319 4.1847 6.8347 4.664 5.3069 1.587 13.656 1.1166 18.414-1.0375zm2.6667-10.586c-0.36667-0.36666-0.66667-1.3218-0.66667-2.1224 0-1.1806 0.28349-1.2205 1.5-0.21089 0.825 0.68469 1.5 1.6398 1.5 2.1224 0 1.0355-1.3836 1.1606-2.3333 0.21089zm2-4c-1.1506-1.1506-0.72824-2.3333 0.83333-2.3333 0.825 0 1.5 0.675 1.5 1.5 0 1.5616-1.1827 1.984-2.3333 0.83333zm-30.667-3.3333c0.7257-1.356 0.73703-2 0.0352-2-0.56935 0-1.0352-0.708-1.0352-1.5733 0-0.97754 0.6627-1.4284 1.75-1.1906 0.9625 0.21049 1.6138 0.98975 1.4472 1.7317s0.22862 1.6774 0.87812 2.0788c1.6426 1.0152 0.21887 2.9534-2.1695 2.9534-1.6663 0-1.8083-0.31361-0.9058-2zm31.737-0.75c-0.20934-0.4125-0.45925-2.0285-0.55536-3.5912-0.21021-3.4179-3.0398-9.7343-5.0429-11.257-0.79457-0.60406-1.1244-1.6166-0.73288-2.25 0.99458-1.6092 3.5938-1.4417 3.5938 0.23167 0 0.76085 0.95845 1.634 2.1299 1.9403 1.3776 0.36026 1.9272 1.085 1.5562 2.052-0.31554 0.82227-0.0371 1.6739 0.61885 1.8926 1.7092 0.56974 1.8007 11.732 0.0962 11.732-0.70569 0-1.4544-0.3375-1.6637-0.75zm-17.737-3.75c0-2.6939 2.6366-3.4634 4.7219-1.3781 1.6901 1.6901 0.37618 3.8781-2.3288 3.8781-1.8859 0-2.393-0.52981-2.393-2.5zm-15-3.5c0-0.55 0.675-1 1.5-1s1.5 0.45 1.5 1-0.675 1-1.5 1-1.5-0.45-1.5-1zm1.5-4c-0.33992-0.55 0.057-1 0.88197-1s1.7781 0.45 2.118 1-0.057 1-0.88197 1-1.7781-0.45-2.118-1zm2.9589-3.0665c-0.36253-0.58659-0.41903-1.3066-0.12555-1.6001 0.71632-0.71631 2.6667 0.54583 2.6667 1.7257 0 1.278-1.7264 1.1927-2.5411-0.12555zm2.615-2.3444c-0.80051-0.96456-0.83925-1.616-0.12245-2.059 1.3964-0.863 3.0486 0.23665 3.0486 2.029 0 1.8361-1.4152 1.8506-2.9261 0.03zm3.5928-1.2557c-1.3417-1.3417-0.62098-3.4515 1.0833-3.1712 0.9625 0.15835 2.3322-0.0771 3.0438-0.52323 0.73602-0.46143 1.9216-0.2901 2.75 0.3974 1.0256 0.85115 1.4562 0.87661 1.4562 0.0861 0-0.61734 0.675-1.1224 1.5-1.1224s1.5 0.48032 1.5 1.0674c0 0.61231 0.85269 0.79675 2 0.43261 1.576-0.50022 2-0.1797 2 1.5121 0 1.8855-0.38146 2.0631-3.134 1.4585-4.7771-1.0492-8.866-1.1774-8.866-0.27787 0 0.97381-2.399 1.075-3.3333 0.14064zm226.78 18.757c0.72276-1.1694-0.38495-4.0902-1.5512-4.0902-0.49115 0-0.89301 1.125-0.89301 2.5 0 2.4712 1.355 3.3527 2.4442 1.5902zm-146.44-4.7083c0-0.825-0.45-1.2219-1-0.88197s-1 1.293-1 2.118 0.45 1.2219 1 0.88197 1-1.293 1-2.118zm-21-8.941c0-0.85746-0.45-1.2809-1-0.94098s-1 1.0415-1 1.559 0.45 0.94098 1 0.94098 1-0.70156 1-1.559zm191.04 1.051c3.4521-0.75822 5.2214-3.6336 6.7852-11.027 0.5857-2.7691 2.0069-7.2324 3.1582-9.9184 1.655-3.8609 1.8239-5.0545 0.8067-5.6999-1.8826-1.1945-25.58-1.0281-27.866 0.19558-1.2935 0.69227-23.531 1.0437-66.184 1.0459-65.247 3e-3 -112.36 0.94182-114.53 2.2812-1.3581 0.83937 0.55143 5.0933 6.3681 14.186 5.5083 8.6108 5.4746 8.6003 26.065 8.1076 9.8209-0.23502 18.306-0.54032 18.856-0.67845s23.301 0.0958 50.558 0.51988c37.566 0.58443 50.094 0.48406 51.774-0.41481 1.742-0.93231 2.4939-0.90764 3.5169 0.1154 1.435 1.435 35.157 2.5012 40.688 1.2864zm11.849-6.5626c-1.6048-0.99179-2.3352-0.46569-1.4168 1.0204 0.36808 0.59556 1.1362 0.79425 1.7069 0.44153 0.67187-0.41524 0.56959-0.93059-0.29014-1.4619zm-336.34-2.3889c1.8814-3.9647 1.1906-11.32-1.1475-12.217-0.77019-0.29555-1.4003-1.3892-1.4003-2.4304 0-2.2527-1.2928-2.4501-2.952-0.45081-0.6583 0.7932-2.6259 1.5807-4.3724 1.75-2.922 0.28323-3.2016 0.62709-3.5019 4.3078-0.17949 2.2 0.2222 5.6638 0.89266 7.6973 1.2373 3.7526 1.594 3.9339 9.1368 4.6427 1.0451 0.0982 2.3374-1.1766 3.3447-3.2995zm10.246-3.6186c0.31112-4.6797-1.6441-8.7505-3.6172-7.5311-1.028 0.63534-0.77797 7.6358 0.40867 11.442 0.87646 2.8116 2.9278 0.31092 3.2085-3.9113zm35.035-17.297 0.32851-2.8753-4.8285 0.72269c-5.6281 0.84237-6.3285 1.1748-6.3285 3.0036 0 1.8485 1.7612 2.4498 6.5 2.2191 3.6083-0.17569 4.0322-0.47632 4.3285-3.0701zm418.64 24.625c0.85266-4.64 0.9326-4.7112 6.9317-6.1658 6.1121-1.482 7.2422-0.55284 5.2185 4.2905-1.6257 3.8908-4.6452 5.6252-9.7932 5.6252-2.9759 0-3.0303-0.0865-2.3571-3.75zm-0.21653-10.281c-2.608-1.0483-2.688-1.5786-0.75-4.9688 2.1214-3.711 1.8718-7.7306-0.56077-9.0325-4.3435-2.3246-1.373-3.8632 10.849-5.6199 5.5752-0.80131 4.9359-2.7569-1.0294-3.1488-2.5215-0.16568-4.7868-0.84068-5.034-1.5s-0.2289-3.8094 0.0408-7.0001c0.48937-5.7905 0.49567-5.8001 3.3622-5.1706 2.7632 0.60691 2.875 0.48589 2.9529-3.1987l0.081-3.8295 1.869 4c1.0279 2.2 2.6455 6.925 3.5946 10.5s2.9966 8.1398 4.5501 10.144 2.822 4.4792 2.8189 5.5c-0.0126 4.1766-2.2025 9.4912-4.3046 10.447-1.2044 0.54743-3.3148 1.6444-4.6898 2.4376-2.7732 1.5999-10.268 1.8401-13.75 0.44064zm-11.25-20.969c0-1.8667 0.26667-2.1333 1.2-1.2s0.93333 1.4667 0 2.4-1.2 0.66667-1.2-1.2zm-262.44-4.2225c-0.87429-1.2482-1.5567-4.2883-1.5567-6.9349 0-2.5918-0.43886-5.8667-0.97525-7.2775-0.89613-2.357-1.4582-2.5651-6.9286-2.5651-7.3305 0-9.4825-1.5933-7.9786-5.9073 1.1916-3.4182 10.958-9.0927 15.65-9.0927 1.6432 0 3.5478-0.675 4.2325-1.5 1.4946-1.8009 4.3346-1.9325 6.916-0.32039 1.5549 0.97102 3.2765 0.59484 9.7364-2.1275 17.299-7.2901 26.91-10.049 34.6-9.9329 21.857 0.33076 57.376-0.39966 58.197-1.1968 0.5225-0.50738 2.6038-0.92251 4.625-0.92251 3.316 0 3.736 0.30527 4.3 3.125 1.1351 5.6757 0.71469 19.558-0.625 20.636-0.6875 0.55339-6.875 1.171-13.75 1.3724l-12.5 0.36628v-6.8808c0-6.4163-0.16877-6.9457-2.5-7.8429-2.4325-0.93611-27.796-0.17555-30.648 0.91903-0.74336 0.28526-1.3516 1.5404-1.3516 2.7892 0 2.8627-1.5638 4.1616-6.0104 4.9923-3.6633 0.68439-8.9065-0.74892-10.204-2.7894-0.41527-0.65309-0.76193-2.6499-0.77035-4.4374-0.0104-2.2154-0.49281-3.25-1.5153-3.25-0.825 0-1.5 0.64047-1.5 1.4233s-1.125 2.7603-2.5 4.3944c-1.785 2.1214-2.5 4.1542-2.5 7.1081 0 2.8337-0.49373 4.3265-1.5672 4.7384-2.4385 0.93575-3.4774-0.88097-3.7146-6.4956-0.26215-6.2079-0.6205-6.2861-10.247-2.2349-6.2768 2.6415-7.0024 3.2391-7.2845 6-0.18254 1.7862-0.88846 3.0663-1.691 3.0663-2.1584 0-2.5909 1.411-3.5544 11.595-0.496 5.2427-1.1623 9.9535-1.4806 10.469-1.0018 1.621-3.2876 1.0216-4.904-1.2861zm256.1-11.451c-0.36317-0.36317-0.66031-1.4372-0.66031-2.3866 0-1.9484 2.6224-3.3603 3.5259-1.8984 0.73051 1.182-1.9542 5.1965-2.8656 4.285zm-23.899-10.994c-1.3454-1.3454-4.9136-1.663-21.934-1.9527-11.18-0.19025-21.962-0.57551-23.961-0.85613-2.5029-0.35148-4.0188-0.0457-4.8724 0.98293-1.5977 1.9251-4.616 1.9212-5.3559-7e-3 -0.3971-1.0348-2.0583-1.513-5.357-1.5419-6.0987-0.0535-10.351-2.357-14.215-7.6994-3.4602-4.7853-3.5345-5.1382-1.8569-8.8201 1.1911-2.6142 1.3197-2.6449 8.25-1.9693 13.905 1.3555 51.533 8.2518 60.83 11.149 3.0683 0.95608 6.3501 1.2586 9.1307 0.84157 8.9737-1.3457 20.579 2.9439 20.579 7.6063 0 2.3331-3.8964 3.1583-11.077 2.3459-3.785-0.42823-6.3844-0.27383-7.2319 0.42958-0.9845 0.81706-1.7343 0.68689-2.9299-0.50866zm48.67-0.47557c-1.0908-1.8904-7.7332-4.676-18.932-7.9392-10.375-3.0232-14.5-4.7107-14.5-5.9314 0-0.54262 0.9375-0.98658 2.0833-0.98658 3.3756 0 1.6105-2.4484-2.1628-3-2.4503-0.35818-3.5001-1.0673-3.7012-2.5-0.30455-2.1699 6.4574-7.1234 18.781-13.758 10.757-5.7912 10.513-5.8168 13.804 1.4491 7.1306 15.744 9.2109 25.347 6.7796 31.296-1.024 2.5052-1.3701 2.7256-2.152 1.3706zm-49.432-15.346c-5.775-1.2609-12.188-2.5871-14.25-2.9472-5.0941-0.88941-4.7127-2.1087 1.0138-3.241 7.6049-1.5037 16.227-0.23613 21.774 3.2011 5.1441 3.1875 6.8037 5.5387 3.7958 5.3777-1.0083-0.054-6.5583-1.1297-12.333-2.3906zm-37.536-9.5699c-0.36996-0.5986-2.025-0.80548-3.809-0.47613l-3.1548 0.58241 2.5-1.7637c1.375-0.97005 3.7721-3.0058 5.3269-4.5239s3.0173-2.7601 3.25-2.7601c1.0494 0 0.27437 2.8785-1.0769 4-2.1445 1.7798-1.8615 2.9121 1 4 1.375 0.52277 2.5 1.1866 2.5 1.4752 0 1.0003-5.8851 0.51968-6.5362-0.5338zm15.349 0.37544c0.72188-0.28887 1.5844-0.25335 1.9167 0.0789s-0.25834 0.56864-1.3125 0.52522c-1.165-0.048-1.4019-0.28494-0.60417-0.60416zm20.688-1.0437c-5.3077-0.75566-4.8425-1.985 2.338-6.1786 9.8013-5.7243 9.7864-5.7214 11.594-2.2253 0.86217 1.6673 1.5676 3.2598 1.5676 3.5389s-1.952 1.6515-4.3379 3.0497c-4.2758 2.5058-5.2266 2.6604-11.162 1.8154zm-60.75-1.9626c-2.6039-0.68045-2.1266-1.912 1.2892-3.3269 2.6818-1.1108 3.2072-1.0369 4.4682 0.62868 0.78596 1.0382 1.4433 2.225 1.4608 2.6376 0.0336 0.79363-4.2749 0.82985-7.2182 0.0607zm-39.706-3.7969c-3.5498-1.2816-4.8682-2.8866-3.212-3.9102 1.5201-0.93948 7.1242 1.4466 8.224 3.5016 1.1918 2.227 0.23961 2.3046-5.0119 0.40861zm-10.532-16.493c-0.33289-0.53864 13.911-0.94346 14.541-2.1218l1.1466-2.1425 2.1496 2.1548c1.8463 1.8507 1.938 2.289 0.64961 3.1065-1.9431 1.2329-17.726 0.23414-18.487-0.99694z"/>
  <path transform="translate(41.557 651.15)" d="m228.57 170.66c-6.6685-4.4779-4.4175-6.5233 0.81633-7.7551l82.041-0.81632c7.2617 1.3488 7.296 4.3655 0.40816 8.9796l-83.265-0.40817z" fill-rule="evenodd"/>
 </g>
 <path d="m387.09 92.759h1a7 7 0 0 1 7 7v19a7 7 0 0 1 -7 7h-1a7 7 0 0 1 -7 -7v-19a7 7 0 0 1 7 -7" fill="#ccc"/>
 <path d="m345.42 117.09h5c3.3866 12.564 4.2141 26.226 13.333 36.333l11.333 8.3333-10.667 19-31 0.66667 17-27.667-5-36.667z" fill="#8f8f8f" fill-rule="evenodd"/>
 <path d="m179.36 149.81 70.612-31.837 94.694-1.6326c4.1415 12.245 5.0869 24.49 4.898 36.735-9.7921 19.562-23.683 38.669-43.265 57.143l-104.49-0.81633-22.449-59.592z" fill="#b2b2b2" fill-rule="evenodd"/>
 <path d="m178.96 149.4-146.12 17.143v42.041l33.469 6.5306c3.9801-29.255 16.002-32.086 27.347-37.143 18.256-2.1085 29.023 2.4408 37.551 8.9796 9.7191 7.58 11.501 16.747 16.327 25.306l54.694-1.6327-23.265-61.224z" fill="#939393" fill-rule="evenodd"/>
 <path d="m2.2211 203.68 57.143 2.449v-22.449l-58.776 2.449c0.90939 4.7548 1.7885 9.6005 1.6326 17.551z" fill="#1a1a1a" fill-rule="evenodd" stroke="#000"/>
 <path d="m365.48 182.47-222.02 2.0183" fill="none" stroke="#000" stroke-width="2.0226"/>
 <path d="m179.36 149.4 22.449 61.633h104.08c22.233-19.184 31.789-38.367 43.673-57.551-0.84489-13.921-1.3149-28.466-5.3061-37.143" fill="url(#c)" fill-rule="evenodd" stroke="#000"/>
 <path d="m201 146.95 53.878-22.857 83.673-2.0408v26.939l-138.78 5.3061 1.2245-7.3469z" fill="url(#d)" fill-rule="evenodd" opacity=".70611"/>
 <path d="m32.425 166.95c-2.9673-1.2762-6.99-0.44183-11.02 0.40817l-8.9796 15.102c-5.5512-0.38114-8.7968 1.5433-12.245 3.2653l32.653-1.6327-0.40817-17.143z" fill="#313131" fill-rule="evenodd"/>
 <path d="m439.68 121.02 17.959-11.02 2.8571 4.4898-12.245 7.7551-8.5714-1.2245z" fill-rule="evenodd" stroke="#000"/>
 <path d="m458.26 109.86-9.627 1.9012-12.231 7.382 4.2625 2.4808" fill="#1a1a1a" fill-rule="evenodd" stroke="#000"/>
 <path d="m387.03 161.84c-12.583 14.944-22.473 30.786-25.306 48.98-0.8063 5.1713-2.8375 10.19-12.245 14.286l-33.878-1.6327c1.6039-2.4202 2.7492-4.3819 3.2653-5.7143l30.612-0.40816c6.1502-18.776 15.65-37.551 26.122-56.327l11.429 0.81632z" fill="url(#e)" fill-rule="evenodd" stroke="#000"/>
 <path d="m498.46 145.11c-42.693-13.949-88.38-20.41-133.06-29.388" fill="none" stroke="#5c5c5c"/>
 <path d="m201.31 155.02 20-2.449c1.5803-4.2177-0.49366-8.4354-2.0408-12.653l-18.367 6.9388c-1.7977 3.1078-3.146 6.1258 0.40816 8.1633z" fill-rule="evenodd" stroke="#000"/>
 <path d="m486.21 141.43c7.5506 11.191 4.3688 24.17 6.1224 36.327l16.327-2.0408-9.3878-31.02-13.061-3.2653z" fill="#5c5c5c" fill-rule="evenodd"/>
 <path d="m509.48 177.35-20.816 0.40816c3.1548 5.5782 1.8919 11.156 0.81633 16.735l19.592-3.2653c2.3063-5.711 2.4556-10.343 0.40817-13.878z" fill-rule="evenodd" stroke="#000"/>
 <path d="m482.74702,167.89012c-1.95531-.72333-7.52229-8.83902-8.10551-11.81648-.15392-.78572-.36404-1.73017-.46698-2.09879-.20747-.74308-1.79273-1.33569-1.79273-.67017 0,.26507-.20747.24775-.56262-.047-.39367-.32675-.88277-.34519-1.6291-.0614-.58653.22302-1.34359.29915-1.68228.16918s-.6158-.033-.6158.21554-.20739.40591-.46082.34979-.49828.31122-.54404.81632 .0332.91838.17543.91838c.38886,0 2.05576,3.59146 2.04151,4.39867-.0106.60259-.0789.58639-.47628-.11296-.25511-.44898-1.06054-1.55102-1.78988-2.44898s-1.33735-1.81633-1.35123-2.04082-.92204-.86735-2.01816-1.42857-2.79927-1.46464-3.78478-2.00758-3.07746-1.40078-4.64889-1.9063-2.58164-1.01262-2.2449-1.12689 3-.30899 5.91837-.4327 5.94898-.32784 6.73469-.45361l1.42857-.22868-1.38526.6339c-1.35225.61878-1.36768.65332-.64735,1.44929 .82355.91002 4.16571,2.02878 6.08628,2.03732 2.53172.0113 3.08098.40667 4.51184,3.24798 .75857,1.50635 1.87241,3.06197 2.47523,3.45693 2.1591,1.41469 5.37702.59389 6.39032-1.63002 .25029-.54934.61155-.99882.80278-.99882s.99396,1.0102 1.78375,2.2449c2.30633,3.60533 3.41964,2.80236 3.4998-2.52419 .046-3.05302.0622-3.10521.37959-1.21444 .93698,5.58254-.11273,10.58202-2.33918,11.14083-.52008.13053-.94555.43169-.94555.66925s-.1196.31236-.26576.16618-.46759.008-.71428.34163c-.60776.82301-2.71196,1.37881-3.75678.99231v1e-005z" fill="#b2b2b2"/>
 <path d="m381.14 146.14c-1.7318-0.49341-5.6805-2.6633-5.3848-2.9591 0.0947-0.0946 1.0734 0.18245 2.1749 0.61577s3.7477 1.19 5.8804 1.6815 3.9541 0.96527 4.0476 1.0529c0.39139 0.36651-5.202 0.041-6.7181-0.39103v-1e-5z" fill="#b2b2b2"/>
 <path d="m385.27159,146.73862c-.12086-.19547-1.096-.44641-2.16698-.55763-2.27241-.23596-7.30547-2.36237-5.19416-2.19444 .68363.0544 1.46424.23562 1.73469.40277s.49176.17876.49176.0258 .27318-.0514.60706.22566 .8849.39718 1.22449.26687 .61743-.0814.61743.1088c0,.42964 5.21775,1.77226 5.70853,1.46893 .19669-.12151.4729-.0343.61388.19387 .15914.25751-.44017.41482-1.58037.41482-1.01021,0-1.93555-.15994-2.05637-.35541l4e-005-1e-005z" fill="#b2b2b2"/>
 <path d="m192.74 183.88 138.37-1.2245" fill="none" stroke="#000" stroke-width="2"/>
 <path d="m61.302 183.19c15.04-10.681 30.08-8.4277 45.119-12.612 26.253 1.0294 32.488 17.442 44.045 29.764 4.5096 15.24 15.218 18.836 25.245 23.71l49.954 0.50447-0.53714-8.0716-46.731 0.50447c-14.84-6.7878-25.074-19.631-32.765-35.818-11.29-9.2258-23.142-17.222-38.674-17.152-11.996 1.1142-23.992 2.3061-35.988 6.0537-8.3469 0.36043-13.971 8.3919-20.948 12.612l11.28 0.50447z" fill-rule="evenodd" stroke="#000" stroke-width="1.2754"/>
 <path d="m362.76 212.09h2c7.8973-14.494 8.0071-31.857 31.333-40.667 13.573-0.33794 24.607-5.4704 45.667 8.3333 6.7714 9.8889 10.318 19.778 12.667 29.667l8.6667-3.6667c-1.6576-11.102-2.5203-21.409-5-33.333-4.3745-6.6923-12.813-8.8037-22.333-8.6667l-48-0.66666c-13.557 8.4225-22.684 35.819-25 49z" fill="#8f8f8f" fill-rule="evenodd"/>
 <path d="m363.12 212.4c10.708-23.899 21.775-45.275 48.533-42.424 33.496 2.9984 39.517 20.97 41.745 40.048" fill="none" stroke="#8f8f8f" stroke-width="3.0546"/>
 <path d="m386.09 163.43-10.333-1.3333-13.667 23.667 7.6667 1.3333c3.5705-9.2944 9.2095-17.037 16.333-23.667z" fill-rule="evenodd" stroke="#000"/>
 <path d="m318.73 199.85c5.4711-5.7126 11.145-11.59 12.608-13.06l2.6604-2.6737 11.465 0.25717c6.306 0.14146 11.84 0.35012 12.298 0.4637l0.83237 0.20651-0.92104 0.86988c-1.0627 1.0037-1.1234 1.3037-0.389 1.9244 0.7665 0.64792 0.66513 1.9572-0.50859 6.5688-1.9824 7.7888-4.2306 14.332-5.0896 14.812-1.0006 0.55973-12.752 0.94643-30.003 0.98728l-12.9 0.0305 9.9474-10.386z" fill="#808080"/>
 <path d="m336.17 216.88c-1.9256 2.6883-0.95926 5.5653 0.65291 8.4844 1.3466 0.37598 2.6929 0.7418 4.0186 0.26214-1.3336-2.9283-2.4682-5.8436-0.87817-8.5811-0.97558-0.19758-1.7008-0.51856-3.7934-0.1655z" fill="#ccc" fill-rule="evenodd"/>
 <path d="m452.42 211.09 0.33334 5.3333 18.333-5.6667 1.6667 3.3333 26.667-5 9.3333-17-20.333 3.3333c3.0958-7.3653 2.2055-13.402 0-19h3.3333c-0.62541-11.071 3.9149-21.416-5-35-37.438-10.383-78.141-18.154-120-25 1.9832 19.804 7.463 30.527 14.667 30.333 42.564-7e-3 50.416-1.4568 72.667 2.3333 18.488 10.259 18.752 17.687 20 28.333l3.3333 27.667-13.333 3.3333-1.3333-2.3333c-3.9879 1.1232-9.5965 0.62571-10.333 5z" fill="#8f8f8f" fill-rule="evenodd"/>
 <path d="m369.97 125.11c-5.9894-4.2656-7.6387 6.7344 4.4898 17.551 16.145 4.5501 29.53 4.4998 42.449 3.6735l46.939 0.81633c3.0424-1.9048 2.0446-3.8095 0.81632-5.7143-18.239-4.8992-63.068-13.308-94.694-16.327z" fill-rule="evenodd" stroke="#000" stroke-width="1.5"/>
 <path d="m381.14 101.76h12.1a1.05 1.05 0 0 1 1.05 1.05v3.9a1.05 1.05 0 0 1 -1.05 1.05h-12.1a1.05 1.05 0 0 1 -1.05 -1.05v-3.9a1.05 1.05 0 0 1 1.05 -1.05"/>
 <path d="m487.83 112.37-11.827-0.43411-25.693 15.628 7.7487 4.3411" fill="#1a1a1a" fill-rule="evenodd" stroke="#000" stroke-width="1.0309"/>
 <path d="m449.48 121.84 27.347-14.286 11.429-0.81632 9.7959 24.49 0.40817 13.061-30.204-8.5714-0.40817-6.5306-18.367-7.3469z" fill-rule="evenodd" stroke="#000"/>
 <path d="m404.67 135.76h0.87687a5.5772 5.5772 0 0 1 5.5772 5.5772v15.846a5.5772 5.5772 0 0 1 -5.5772 5.5772h-0.87687a5.5772 5.5772 0 0 1 -5.5772 -5.5772v-15.846a5.5772 5.5772 0 0 1 5.5772 -5.5772" fill="#054996"/>
 <path d="m426.09 126.76c15.77-2.9422 32.885-9.4718 41 8l4 1" fill="#fff" fill-rule="evenodd" stroke="#bababa" stroke-width="6"/>
 <path transform="translate(105.09 -105.01)" d="m226 272.27a4.5 4.5 0 1 1 -9 0 4.5 4.5 0 1 1 9 0z" fill="#bababa"/>
 <path d="m367.66 174.81c3.1254 2.6259 7.1263 2.0789 11.323 0.82334 0.7873-1.4248 1.5612-2.8513 1.2164-4.409-4.148 0.94491-8.2357 1.6715-11.499-0.59114-0.47181 1.0459-1.052 1.7917-1.0402 4.1768z" fill="#ccc" fill-rule="evenodd"/>
 <path d="m4.0885 204.76c15.932 0.50543 16.542 7.5774 14 16l41 3 8-7-37-8 2-4h-28z" fill-rule="evenodd" stroke="#000"/>
 <path d="m170.63 212.67c-3 1.3912-3.5759 4.371-3.6106 7.7056 0.98675 0.99044 1.9783 1.9719 3.3683 2.2074 0.28164-3.2053 0.73006-6.3012 3.4621-7.9006-0.75174-0.65245-1.2248-1.289-3.2198-2.0124z" fill="#ccc" fill-rule="evenodd"/>
 <path d="m159.46 202.81c-3.3036 0.58258-4.7729 3.4996-5.8328 6.9378 0.64081 1.3057 1.289 2.6036 2.5487 3.2437 1.2567-3.2341 2.6397-6.3076 5.7505-7.1818-0.51962-0.88917-0.77705-1.6824-2.4664-2.9997z" fill="#ccc" fill-rule="evenodd"/>
 <path d="m144.72 182c-3 1.501-3.5759 4.716-3.6106 8.3137 0.98675 1.0686 1.9783 2.1275 3.3683 2.3816 0.28164-3.4582 0.73006-6.7985 3.4621-8.5241-0.75174-0.70393-1.2248-1.3907-3.2198-2.1712z" fill="#b3b3b3" fill-rule="evenodd"/>
 <path d="m104.93 162.42c-1.9185 2.7517-0.88874 5.8513 0.79939 9.0285 1.3774 0.46744 2.7543 0.92408 4.0968 0.4833-1.4045-3.1727-2.6062-6.3214-1.0303-9.1425-0.99668-0.25932-1.7403-0.63668-3.8659-0.36932z" fill="#b3b3b3" fill-rule="evenodd"/>
 <path d="m56.996 174.79c-0.65894 3.2892 1.5238 5.7189 4.341 7.9567 1.4494-0.12196 2.8941-0.25366 3.9486-1.1942-2.5554-2.347-4.9154-4.7531-4.5982-7.9689-1.0173 0.16061-1.8498 0.11189-3.6913 1.2064z" fill="#b3b3b3" fill-rule="evenodd"/>
 <path d="m336.17 216.88c-1.9256 2.6883-0.95926 5.5653 0.65291 8.4844 1.3466 0.37598 2.6929 0.7418 4.0186 0.26214-1.3336-2.9283-2.4682-5.8436-0.87817-8.5811-0.97558-0.19758-1.7008-0.51856-3.7934-0.1655z" fill="#ccc" fill-rule="evenodd"/>
 <path d="m353.66 204.81c2.6302 2.6259 5.9972 2.0789 9.5286 0.82334 0.66257-1.4248 1.3138-2.8513 1.0237-4.409-3.4908 0.94491-6.9309 1.6715-9.6769-0.59114-0.39706 1.0459-0.8853 1.7917-0.87539 4.1768z" fill="#ccc" fill-rule="evenodd"/>
 <path transform="matrix(.87805 0 0 .87805 -7.4237 90.792)" d="m168 137.77c0 22.644-18.356 41-41 41s-41-18.356-41-41 18.356-41 41-41 41 18.356 41 41z"/>
 <path transform="matrix(.79637 0 0 .79637 3.1588 102.25)" d="m168 137.77c0 22.644-18.356 41-41 41s-41-18.356-41-41 18.356-41 41-41 41 18.356 41 41z" fill="#4d4d4d" filter="url(#b)" opacity=".72137"/>
 <g transform="matrix(.2093 0 0 .2093 36.484 117.2)">
  <path transform="matrix(2.855 0 0 2.855 -35.976 60.05)" d="m168 137.77c0 22.644-18.356 41-41 41s-41-18.356-41-41 18.356-41 41-41 41 18.356 41 41z" fill="#4d4d4d"/>
  <path transform="matrix(2.6736 0 0 2.6736 -12.405 86.575)" d="m168 137.77c0 22.644-18.356 41-41 41s-41-18.356-41-41 18.356-41 41-41 41 18.356 41 41z" fill="#999" filter="url(#a)" opacity=".91221"/>
  <path d="m288.17 391.59-4.6822-36.521 23.411 28.093 2.8093-35.585 16.856 33.712 2.8093-34.648 18.729 37.458 9.3644-31.839 3.7458 33.712 26.22-19.665-10.301 30.903 31.839-13.11-17.792 29.966 32.775-8.428-23.411 28.093 33.712 5.6186-30.903 10.301 31.839 12.174-36.521 7.4915 33.712 13.11-41.203 8.428 36.521 10.301-44.949 3.7458 29.03 17.792-44.013-5.6186 24.347 25.284-39.331-16.856 12.174 31.839-27.157-27.157-4.6822 33.712-19.665-35.585-5.6186 34.648-8.428-39.331-17.792 31.839 2.8093-38.394-23.411 24.347 8.428-37.458-29.966 14.047 15.919-32.775-32.775 5.6186 29.03-29.966-32.775 1.8729 32.775-18.729-29.966-7.4915 32.775-5.6186-28.093-19.665 36.521 4.6822-24.347-24.347 35.585 12.174-16.856-29.966 30.903 17.792z" fill="none" stroke="#000" stroke-width="5"/>
  <path transform="matrix(1.8006 0 0 1.8006 98.465 206.85)" d="m168 137.77c0 22.644-18.356 41-41 41s-41-18.356-41-41 18.356-41 41-41 41 18.356 41 41z" fill="#666"/>
  <path transform="matrix(.62429 0 0 .62429 249.26 367.49)" d="m168 137.77c0 22.644-18.356 41-41 41s-41-18.356-41-41 18.356-41 41-41 41 18.356 41 41z"/>
  <path transform="matrix(.07613 0 0 .07613 278.6 411.17)" d="m168 137.77c0 22.644-18.356 41-41 41s-41-18.356-41-41 18.356-41 41-41 41 18.356 41 41z"/>
  <path transform="matrix(.07613 0 0 .07613 362.88 474.85)" d="m168 137.77c0 22.644-18.356 41-41 41s-41-18.356-41-41 18.356-41 41-41 41 18.356 41 41z"/>
  <path transform="matrix(.07613 0 0 .07613 278.6 478.59)" d="m168 137.77c0 22.644-18.356 41-41 41s-41-18.356-41-41 18.356-41 41-41 41 18.356 41 41z"/>
  <path transform="matrix(.07613 0 0 .07613 359.14 411.17)" d="m168 137.77c0 22.644-18.356 41-41 41s-41-18.356-41-41 18.356-41 41-41 41 18.356 41 41z"/>
 </g>
 <path transform="matrix(.91463 0 0 .91463 295.43 82.252)" d="m168 137.77c0 22.644-18.356 41-41 41s-41-18.356-41-41 18.356-41 41-41 41 18.356 41 41z"/>
 <path transform="matrix(.82955 0 0 .82955 306.45 94.191)" d="m168 137.77c0 22.644-18.356 41-41 41s-41-18.356-41-41 18.356-41 41-41 41 18.356 41 41z" fill="#4d4d4d" filter="url(#b)" opacity=".72137"/>
 <g transform="matrix(.21802 0 0 .21802 341.17 109.76)">
  <path transform="matrix(2.855 0 0 2.855 -35.976 60.05)" d="m168 137.77c0 22.644-18.356 41-41 41s-41-18.356-41-41 18.356-41 41-41 41 18.356 41 41z" fill="#4d4d4d"/>
  <path transform="matrix(2.6736 0 0 2.6736 -12.405 86.575)" d="m168 137.77c0 22.644-18.356 41-41 41s-41-18.356-41-41 18.356-41 41-41 41 18.356 41 41z" fill="#999" filter="url(#a)" opacity=".91221"/>
  <path d="m288.17 391.59-4.6822-36.521 23.411 28.093 2.8093-35.585 16.856 33.712 2.8093-34.648 18.729 37.458 9.3644-31.839 3.7458 33.712 26.22-19.665-10.301 30.903 31.839-13.11-17.792 29.966 32.775-8.428-23.411 28.093 33.712 5.6186-30.903 10.301 31.839 12.174-36.521 7.4915 33.712 13.11-41.203 8.428 36.521 10.301-44.949 3.7458 29.03 17.792-44.013-5.6186 24.347 25.284-39.331-16.856 12.174 31.839-27.157-27.157-4.6822 33.712-19.665-35.585-5.6186 34.648-8.428-39.331-17.792 31.839 2.8093-38.394-23.411 24.347 8.428-37.458-29.966 14.047 15.919-32.775-32.775 5.6186 29.03-29.966-32.775 1.8729 32.775-18.729-29.966-7.4915 32.775-5.6186-28.093-19.665 36.521 4.6822-24.347-24.347 35.585 12.174-16.856-29.966 30.903 17.792z" fill="none" stroke="#000" stroke-width="5"/>
  <path transform="matrix(1.8006 0 0 1.8006 98.465 206.85)" d="m168 137.77c0 22.644-18.356 41-41 41s-41-18.356-41-41 18.356-41 41-41 41 18.356 41 41z" fill="#666"/>
  <path transform="matrix(.62429 0 0 .62429 249.26 367.49)" d="m168 137.77c0 22.644-18.356 41-41 41s-41-18.356-41-41 18.356-41 41-41 41 18.356 41 41z"/>
  <path transform="matrix(.07613 0 0 .07613 278.6 411.17)" d="m168 137.77c0 22.644-18.356 41-41 41s-41-18.356-41-41 18.356-41 41-41 41 18.356 41 41z"/>
  <path transform="matrix(.07613 0 0 .07613 362.88 474.85)" d="m168 137.77c0 22.644-18.356 41-41 41s-41-18.356-41-41 18.356-41 41-41 41 18.356 41 41z"/>
  <path transform="matrix(.07613 0 0 .07613 278.6 478.59)" d="m168 137.77c0 22.644-18.356 41-41 41s-41-18.356-41-41 18.356-41 41-41 41 18.356 41 41z"/>
  <path transform="matrix(.07613 0 0 .07613 359.14 411.17)" d="m168 137.77c0 22.644-18.356 41-41 41s-41-18.356-41-41 18.356-41 41-41 41 18.356 41 41z"/>
 </g>
 <path d="m208.09 219.76h87a4 4 0 0 1 4 4v4a4 4 0 0 1 -4 4h-87a4 4 0 0 1 -4 -4v-4a4 4 0 0 1 4 -4" fill="#ccc"/>
 <path d="m331.69 92.736 28.319-0.31819c2.8793 1.976 3.6842 5.1374 0.63639 10.5-7.7715 1.4491-15.401 2.9998-28.955 0.31819 0 0-8.1544-3.1863-7.9548-6.0456s7.9548-4.4547 7.9548-4.4547z" fill="#bababa" fill-rule="evenodd"/>
 <path d="m386.67 135.76h0.87687a5.5772 5.5772 0 0 1 5.5772 5.5772v15.846a5.5772 5.5772 0 0 1 -5.5772 5.5772h-0.87687a5.5772 5.5772 0 0 1 -5.5772 -5.5772v-15.846a5.5772 5.5772 0 0 1 5.5772 -5.5772" fill="#054996"/>
 <path d="m420.67 135.76h0.87687a5.5772 5.5772 0 0 1 5.5772 5.5772v15.846a5.5772 5.5772 0 0 1 -5.5772 5.5772h-0.87687a5.5772 5.5772 0 0 1 -5.5772 -5.5772v-15.846a5.5772 5.5772 0 0 1 5.5772 -5.5772" fill="#054996"/>
 <path d="m351.51 116.99c3.7776 26.488 12.473 47.648 43.621 44.485 22.891 3.3962 61.77-4.7015 64.352 13.389l5.1827 33.256 12.093-3.887-4.7508-33.256c-4.694-24.487-27.36-22.016-47.508-23.322h-38.438c-10.547 0.35648-15.18-6.89-17.707-16.844l-3.0232-16.412-13.82 2.5913z" fill="#808080" fill-rule="evenodd" stroke="#5c5c5c" stroke-width="1.5"/>
 <path transform="rotate(88.566)" d="m101.47-351.61h12.1a1.05 1.05 0 0 1 1.05 1.05v3.9a1.05 1.05 0 0 1 -1.05 1.05h-12.1a1.05 1.05 0 0 1 -1.05 -1.05v-3.9a1.05 1.05 0 0 1 1.05 -1.05"/>
 <path d="m431.21 178.16 27.749-1.0047" fill="none" stroke="#000" stroke-width="2.2358"/>
 <path d="m473.04 177.89 16.095-0.4593" fill="none" stroke="#000" stroke-width="1.9368"/>
 <path d="m438.17 159.81c-1.9256 1.511-0.95926 3.128 0.65291 4.7687 1.3466 0.21132 2.6929 0.41693 4.0186 0.14734-1.3336-1.6458-2.4682-3.2844-0.87817-4.823-0.97558-0.11105-1.7008-0.29145-3.7934-0.093z" fill="#ccc" fill-rule="evenodd"/>
 <path d="m400.17 159.81c-1.9256 1.511-0.95926 3.128 0.65291 4.7687 1.3466 0.21132 2.6929 0.41693 4.0186 0.14734-1.3336-1.6458-2.4682-3.2844-0.87817-4.823-0.97558-0.11105-1.7008-0.29145-3.7934-0.093z" fill="#ccc" fill-rule="evenodd"/>
 <path d="m360.41 140.44c-2.271-0.91319-3.1889 0.73183-3.8047 2.9481 0.48971 1.272 0.98426 2.541 1.8801 3.5547 0.75944-1.9775 1.612-3.779 3.7392-3.1704-0.39121-0.90058-0.59726-1.6189-1.8146-3.3325z" fill="#ccc" fill-rule="evenodd"/>
 <path d="m367.36 138.41c1.8175 1.6394 3.2458 0.41117 4.5872-1.4574-0.0217-1.3629-0.0489-2.7246-0.54087-3.9848-1.394 1.595-2.8148 2.9926-4.6023 1.6887 0.0571 0.98022 3e-3 1.7256 0.55594 3.7536z" fill="#ccc" fill-rule="evenodd"/>
 <path d="m438.17 145.81c-1.9256 1.511-0.95926 3.128 0.65291 4.7687 1.3466 0.21132 2.6929 0.41693 4.0186 0.14734-1.3336-1.6458-2.4682-3.2844-0.87817-4.823-0.97558-0.11105-1.7008-0.29145-3.7934-0.093z" fill="#ccc" fill-rule="evenodd"/>
 <path d="m452.09 207.16 39-6v-6l18-3-12 19-44 7-1-11z" fill-rule="evenodd" stroke="#000"/>
 <path d="m327.34 171.45c-1.0518-6.0498 0.576-6.5766 0.576-6.5766" fill="none" stroke="#000" stroke-width=".46552"/>
 <path d="m463.86 188.85c-1.7805-1.8657-3.3779-0.68768-4.9344 1.1699-0.0846 1.4336-0.16323 2.8665 0.25437 4.2293 1.5903-1.566 3.1932-2.9225 4.9685-1.4117 0.0172-1.0344 0.13259-1.8132-0.28842-3.9875z" fill="#ccc" fill-rule="evenodd"/>
 <path d="m477.86 188.85c-1.7805-1.8657-3.3779-0.68768-4.9344 1.1699-0.0846 1.4336-0.16323 2.8665 0.25437 4.2293 1.5903-1.566 3.1932-2.9225 4.9685-1.4117 0.0172-1.0344 0.13259-1.8132-0.28842-3.9875z" fill="#ccc" fill-rule="evenodd"/>
 <path d="m364.09 114.76c-4.7064-4.1174-3.1332-10.747-20-10-13.911-0.34682-14.01 7.5942-15 15l23-2 12-3z" fill="#bababa" fill-rule="evenodd"/>
</svg>
