<svg id="Layer_7" data-name="Layer 7" xmlns="http://www.w3.org/2000/svg" viewBox="0 0 450 319.42"><title>Dots-final-opacity</title><path d="M445.18,135.29a5,5,0,0,1,5.34,1.43V1H-.52V235a4.92,4.92,0,0,1,1.58,2.27A5,5,0,0,1-.52,242.7v15.36a6.43,6.43,0,0,1,2.65-1.69A6.34,6.34,0,1,1-.52,266.72v43.33a6.21,6.21,0,0,1,2.84,3.46A6.31,6.31,0,0,1-.52,321v10.77a7.82,7.82,0,0,1,1.92-1A7.69,7.69,0,1,1-.52,344.44V382.3a9.36,9.36,0,0,1,5.18,5.63A9.37,9.37,0,0,1-.52,399.47v5.41l.8-.31a9.37,9.37,0,1,1-.8,17.48v28.29h12.1a11,11,0,0,1,3.32-1.79,11.12,11.12,0,0,1,10.36,1.79h5.16a11.14,11.14,0,0,1,22.18,0h2.74A11.06,11.06,0,0,1,61,433.43a11.14,11.14,0,0,1,14.09,7,11,11,0,0,1-1.48,9.87H87.71A10.79,10.79,0,0,1,91,448.58a11.12,11.12,0,0,1,10.32,1.76H106a11.16,11.16,0,0,1,21.09-3.27,11.15,11.15,0,1,1,20.64,3.27H164.6a11,11,0,0,1,6,0h10.11a11.14,11.14,0,0,1,21.36-.78c.09.26.15.52.22.78h3.25a11,11,0,0,1-.75-1.68,11.16,11.16,0,0,1,21.18-7,11,11,0,0,1-.76,8.72h15A11.32,11.32,0,0,1,243,449a11.12,11.12,0,0,1,9.78,1.38h6.56A11.16,11.16,0,0,1,281,448.05a10.84,10.84,0,0,1,.47,2.29h3.95a10.88,10.88,0,0,1-1.69-3.2,11.16,11.16,0,1,1,19.42,3.2H319a11.07,11.07,0,0,1,14.08,0h5.72a11.15,11.15,0,0,1,21.71-2.86,10.92,10.92,0,0,1,.53,2.86h4.14a11,11,0,0,1-2.12-3.71,11.16,11.16,0,1,1,19,3.71h20.87a10.93,10.93,0,0,1,5.36,0h8.55a11.14,11.14,0,0,1,21.47-1.24,10.7,10.7,0,0,1,.31,1.24h2a10.1,10.1,0,0,1-.77-1.74A11.13,11.13,0,0,1,450.52,434v-6.31a11.11,11.11,0,1,1,0-14.73v-14a11.07,11.07,0,0,1,0-17.78v-3.37a11.12,11.12,0,1,1,0-22.14V351a11.11,11.11,0,1,1,0-14.11V324.63a11.08,11.08,0,0,1,0-19.24V302.8a11.11,11.11,0,1,1,0-21.83v-9.1a10,10,0,1,1-.11-6c0,.13.07.26.11.39V247.13a9.35,9.35,0,0,1,0-16.23v-6a8.9,8.9,0,1,1,0-16.89V168.42a6.25,6.25,0,0,1-2-2.87,6.34,6.34,0,0,1,2-6.88V143.28a5.11,5.11,0,0,1-2.19,1.48,5,5,0,1,1-3.15-9.47ZM407.7,392.38a11.12,11.12,0,1,1,7.08-14.07A11.15,11.15,0,0,1,407.7,392.38Zm14.65,8.69a11.16,11.16,0,1,1-14.1-7A11.14,11.14,0,0,1,422.35,401.07ZM105.46,417A11.12,11.12,0,1,1,112,401.61a11.09,11.09,0,1,1,.88,2.67A11.13,11.13,0,0,1,105.46,417ZM32.72,378.2a9.4,9.4,0,1,1,11.87,5.92A9.38,9.38,0,0,1,32.72,378.2Zm-3.43,36.48a9.37,9.37,0,1,1,6-11.86A9.4,9.4,0,0,1,29.29,414.68ZM24.65,249a6.3,6.3,0,1,1-4,8A6.32,6.32,0,0,1,24.65,249ZM13.1,234.43a6.36,6.36,0,1,1,8,4A6.36,6.36,0,0,1,13.1,234.43Zm18.62,35.84a7.69,7.69,0,1,1-4.9,9.73A7.7,7.7,0,0,1,31.72,270.27Zm360.67,76.07a11.12,11.12,0,1,1,7.08-14.07A11.15,11.15,0,0,1,392.39,346.34ZM407,355a11.16,11.16,0,1,1-14.1-7A11.16,11.16,0,0,1,407,355ZM190.25,289.61a11.12,11.12,0,1,1-7.08,14.07A11.15,11.15,0,0,1,190.25,289.61Zm-13.64-9.06a10.09,10.09,0,1,1,12.74,6.35A10.06,10.06,0,0,1,176.61,280.55Zm23.9-7.95A10.08,10.08,0,1,1,213.25,279,10.07,10.07,0,0,1,200.51,272.6Zm13.64,9.07a11.12,11.12,0,1,1-7.08,14.07A11.14,11.14,0,0,1,214.15,281.67Zm10.26-17A10.09,10.09,0,1,1,237.15,271,10.08,10.08,0,0,1,224.41,264.65Zm13.65,9.07A11.12,11.12,0,1,1,231,287.79,11.13,11.13,0,0,1,238.06,273.72Zm10.26-17a10.09,10.09,0,1,1,12.74,6.35A10.07,10.07,0,0,1,248.32,256.71ZM262,265.77a11.12,11.12,0,1,1-7.08,14.08A11.15,11.15,0,0,1,262,265.77ZM278.62,236a10.05,10.05,0,1,1-6.4,12.72A10.07,10.07,0,0,1,278.62,236Zm-9,52.85A11.12,11.12,0,1,1,262.56,303,11.14,11.14,0,0,1,269.64,288.89Zm9.14-17a11.16,11.16,0,1,1,14.1,7A11.14,11.14,0,0,1,278.78,271.9Zm23.57-43.75a10.05,10.05,0,1,1-6.4,12.72A10.07,10.07,0,0,1,302.35,228.15Zm-8.8,52.79A11.12,11.12,0,1,1,286.47,295,11.15,11.15,0,0,1,293.55,280.94Zm9-16.93a11.16,11.16,0,1,1,14.1,7A11.13,11.13,0,0,1,302.51,264Zm14.77,9.05a11.12,11.12,0,1,1-7.09,14.07A11.12,11.12,0,0,1,317.28,273.06ZM326,256.22a11.16,11.16,0,1,1,14.09,7A11.13,11.13,0,0,1,326,256.22Zm14.76,9a11.12,11.12,0,1,1-7.08,14.07A11.14,11.14,0,0,1,340.71,265.27Zm7.44,22.37a11.12,11.12,0,1,1-7.08,14.07A11.15,11.15,0,0,1,348.15,287.64Zm22.23-7.51a11.12,11.12,0,1,1-7.08,14.07A11.14,11.14,0,0,1,370.38,280.13Zm-.67-2A11.12,11.12,0,1,1,376.79,264,11.14,11.14,0,0,1,369.71,278.12Zm2.19-37.77a10.09,10.09,0,1,1,12.74,6.36A10.07,10.07,0,0,1,371.9,240.35Zm4.94-17.12a9.37,9.37,0,1,1,6-11.86A9.4,9.4,0,0,1,376.84,223.23Zm-8.64,18.35a10.09,10.09,0,1,1-12.74-6.35A10.07,10.07,0,0,1,368.2,241.58ZM354,230.82A9.37,9.37,0,1,1,360,219,9.38,9.38,0,0,1,354,230.82Zm-7.5-22.57a9.37,9.37,0,1,1,6-11.85A9.38,9.38,0,0,1,346.49,208.25Zm-8,18.47a10.08,10.08,0,1,1-12.74-6.36A10.07,10.07,0,0,1,338.53,226.72ZM324.32,216a9.37,9.37,0,1,1,6-11.86A9.4,9.4,0,0,1,324.32,216Zm-7.5-22.57a9.37,9.37,0,1,1,6-11.86A9.4,9.4,0,0,1,316.82,193.39Zm-10,18.5A9.4,9.4,0,1,1,295,206,9.39,9.39,0,0,1,306.85,211.89Zm-13.47-10.71a9.37,9.37,0,1,1,6-11.86A9.39,9.39,0,0,1,293.38,201.18Zm-10.26,18.6a9.4,9.4,0,1,1-11.87-5.92A9.39,9.39,0,0,1,283.12,219.78Zm-13.47-10.71a9.37,9.37,0,1,1,6-11.86A9.39,9.39,0,0,1,269.65,209.07Zm-10.43,18.66a9.4,9.4,0,1,1-11.88-5.93A9.38,9.38,0,0,1,259.22,227.73ZM245.75,217a9.37,9.37,0,1,1,6-11.85A9.38,9.38,0,0,1,245.75,217Zm-10.43,18.66a9.4,9.4,0,1,1-11.88-5.92A9.39,9.39,0,0,1,235.32,235.67ZM221.85,225a9.37,9.37,0,1,1,6-11.86A9.39,9.39,0,0,1,221.85,225Zm-10.44,18.66a9.4,9.4,0,1,1-11.87-5.93A9.38,9.38,0,0,1,211.41,243.62ZM197.94,232.9a9.37,9.37,0,1,1,6-11.85A9.38,9.38,0,0,1,197.94,232.9Zm-10.43,18.66a9.41,9.41,0,1,1-11.88-5.92A9.39,9.39,0,0,1,187.51,251.56Zm-45.07,53.95a11.12,11.12,0,1,1-7.08,14.07A11.14,11.14,0,0,1,142.44,305.51Zm-13.64-9.07a10.09,10.09,0,1,1,12.74,6.35A10.07,10.07,0,0,1,128.8,296.44Zm23.9-7.95a10.08,10.08,0,1,1,12.74,6.36A10.07,10.07,0,0,1,152.7,288.49ZM174,240.85A9.37,9.37,0,1,1,180,229,9.38,9.38,0,0,1,174,240.85Zm-10.43,18.66a9.4,9.4,0,1,1-11.88-5.92A9.39,9.39,0,0,1,163.61,259.51ZM150.14,248.8a9.37,9.37,0,1,1,6-11.86A9.4,9.4,0,0,1,150.14,248.8ZM139.7,267.46a9.4,9.4,0,1,1-11.88-5.93A9.38,9.38,0,0,1,139.7,267.46Zm-13.47-10.72a9.37,9.37,0,1,1,6-11.85A9.39,9.39,0,0,1,126.23,256.74ZM115.8,275.4a9.4,9.4,0,1,1-11.88-5.92A9.39,9.39,0,0,1,115.8,275.4Zm-13.47-10.71a9.37,9.37,0,1,1,6-11.86A9.39,9.39,0,0,1,102.33,264.69ZM94.07,282.8a9.4,9.4,0,1,1-11.87-5.93A9.38,9.38,0,0,1,94.07,282.8ZM80.46,271.64a8.9,8.9,0,1,1,5.66-11.26A8.91,8.91,0,0,1,80.46,271.64Zm-7.38,18.13a9.4,9.4,0,1,1-11.88-5.92A9.39,9.39,0,0,1,73.08,289.77ZM59.46,278.62a8.9,8.9,0,1,1,5.67-11.27A8.92,8.92,0,0,1,59.46,278.62Zm-9.34,18.7a8.93,8.93,0,1,1-11.28-5.63A8.92,8.92,0,0,1,50.12,297.32Zm-3.93,16.49a9.37,9.37,0,1,1-6,11.86A9.4,9.4,0,0,1,46.19,313.81Zm7.51,22.57a9.37,9.37,0,1,1-6,11.86A9.38,9.38,0,0,1,53.7,336.38Zm9-18.1a9.41,9.41,0,1,1,11.88,5.92A9.39,9.39,0,0,1,62.74,318.28Zm13.34,10.33a10,10,0,1,1-6.4,12.72A10.07,10.07,0,0,1,76.08,328.61Zm7.65-17.31a9.4,9.4,0,1,1,11.88,5.92A9.39,9.39,0,0,1,83.73,311.3Zm13.34,10.33a10,10,0,1,1-6.4,12.72A10.08,10.08,0,0,1,97.07,321.63Zm7.83-17.25a10.08,10.08,0,1,1,12.74,6.36A10,10,0,0,1,104.9,304.38Zm13.64,9.07a11.12,11.12,0,1,1-7.08,14.07A11.14,11.14,0,0,1,118.54,313.45Zm7.68,23.12a11.12,11.12,0,1,1-7.08,14.07A11.14,11.14,0,0,1,126.22,336.57Zm7.44,22.37A11.12,11.12,0,1,1,126.58,373,11.15,11.15,0,0,1,133.66,358.94ZM143,342.69a11.16,11.16,0,1,1,14.1,7A11.15,11.15,0,0,1,143,342.69Zm16.22-31.06a11.16,11.16,0,1,1,14.1,7A11.14,11.14,0,0,1,159.26,311.63ZM174,320.68A11.12,11.12,0,1,1,167,334.75,11.14,11.14,0,0,1,174,320.68Zm7.44,22.37a11.12,11.12,0,1,1-7.08,14.07A11.15,11.15,0,0,1,181.47,343.05Zm9.38-16.25a11.16,11.16,0,1,1,14.1,7A11.14,11.14,0,0,1,190.85,326.8Zm14.52,8.31a11.12,11.12,0,1,1-7.08,14.07A11.14,11.14,0,0,1,205.37,335.11Zm9.39-16.26a11.15,11.15,0,1,1,14.09,7A11.14,11.14,0,0,1,214.76,318.85Zm14.52,8.31a11.12,11.12,0,1,1-7.09,14.07A11.13,11.13,0,0,1,229.28,327.16Zm9.38-16.25a11.16,11.16,0,1,1,14.1,7A11.13,11.13,0,0,1,238.66,310.91Zm14.52,8.3a11.12,11.12,0,1,1-7.08,14.07A11.15,11.15,0,0,1,253.18,319.21Zm7.55,22.73A11.12,11.12,0,1,1,253.65,356,11.15,11.15,0,0,1,260.73,341.94Zm9.27-16.6a11.16,11.16,0,1,1,14.1,7A11.13,11.13,0,0,1,270,325.34ZM284.64,334a11.12,11.12,0,1,1-7.08,14.07A11.14,11.14,0,0,1,284.64,334Zm9.26-16.61a11.16,11.16,0,1,1,14.1,7A11.14,11.14,0,0,1,293.9,317.39Zm14.64,8.66a11.12,11.12,0,1,1-7.08,14.07A11.14,11.14,0,0,1,308.54,326.05Zm9.09-16.55a11.16,11.16,0,1,1,14.1,7A11.15,11.15,0,0,1,317.63,309.5Zm14.64,8.66a11.12,11.12,0,1,1-7.08,14.07A11.14,11.14,0,0,1,332.27,318.16Zm7.56,22.73A11.12,11.12,0,1,1,332.74,355,11.14,11.14,0,0,1,339.83,340.89Zm8.8-16.45a11.16,11.16,0,1,1,14.09,7A11.13,11.13,0,0,1,348.63,324.44Zm14.63,8.66a11.12,11.12,0,1,1-7.08,14.07A11.14,11.14,0,0,1,363.26,333.1Zm21.58-9.49a11.12,11.12,0,1,1,7.08-14.07A11.15,11.15,0,0,1,384.84,323.61Zm1.31-37a11.16,11.16,0,1,1,14.1,7A11.13,11.13,0,0,1,386.15,286.61Zm6.41-16.09a11.12,11.12,0,1,1,7.08-14.07A11.14,11.14,0,0,1,392.56,270.52Zm2.58-37.41A9.4,9.4,0,1,1,407,239,9.38,9.38,0,0,1,395.14,233.11Zm14.62-29.18a8.94,8.94,0,1,1,11.29,5.63A8.92,8.92,0,0,1,409.76,203.93Zm3.4-18.09a7.69,7.69,0,1,1,4.9-9.73A7.69,7.69,0,0,1,413.16,185.84Zm-7.68,18.77a9.4,9.4,0,1,1-11.88-5.93A9.38,9.38,0,0,1,405.48,204.61Zm-13.62-11.16a8.9,8.9,0,1,1,5.67-11.27A8.92,8.92,0,0,1,391.86,193.45ZM384,169.73a7.69,7.69,0,1,1,4.9-9.73A7.7,7.7,0,0,1,384,169.73ZM375.3,188.8a9.4,9.4,0,1,1-11.87-5.92A9.39,9.39,0,0,1,375.3,188.8Zm-13.61-11.16a8.9,8.9,0,1,1,5.66-11.26A8.91,8.91,0,0,1,361.69,177.64Zm-7.89-23.72a7.69,7.69,0,1,1,4.9-9.73A7.7,7.7,0,0,1,353.8,153.92ZM344.51,174a8.94,8.94,0,1,1-11.29-5.62A8.92,8.92,0,0,1,344.51,174ZM331,161.52a7.69,7.69,0,1,1,4.9-9.73A7.71,7.71,0,0,1,331,161.52ZM323,137.63a6.3,6.3,0,1,1,4-8A6.32,6.32,0,0,1,323,137.63Zm-8.17,21.48a8.94,8.94,0,1,1-11.29-5.63A8.91,8.91,0,0,1,314.84,159.11Zm-13.56-12.46a7.69,7.69,0,1,1,4.9-9.73A7.69,7.69,0,0,1,301.28,146.65ZM291.4,166.9a8.93,8.93,0,1,1-11.28-5.63A8.91,8.91,0,0,1,291.4,166.9Zm-13.55-12.46a7.69,7.69,0,1,1,4.89-9.73A7.7,7.7,0,0,1,277.85,154.44Zm-7.94-23.88a6.3,6.3,0,1,1,4-8A6.31,6.31,0,0,1,269.91,130.56Zm-2.24,44.23a8.93,8.93,0,1,1-11.28-5.63A8.91,8.91,0,0,1,267.67,174.79Zm-13.55-12.46a7.69,7.69,0,1,1,4.9-9.73A7.7,7.7,0,0,1,254.12,162.33Zm-7.94-23.88a6.3,6.3,0,1,1,4-8A6.32,6.32,0,0,1,246.18,138.45Zm-2.41,44.28a8.93,8.93,0,1,1-11.29-5.62A8.92,8.92,0,0,1,243.77,182.73Zm-13.56-12.45a7.69,7.69,0,1,1,4.9-9.73A7.7,7.7,0,0,1,230.21,170.28Zm-7.94-23.89a6.3,6.3,0,1,1,4-8A6.31,6.31,0,0,1,222.27,146.39Zm-2.41,44.29a8.93,8.93,0,1,1-11.28-5.63A8.9,8.9,0,0,1,219.86,190.68Zm-13.55-12.46a7.69,7.69,0,1,1,4.9-9.73A7.7,7.7,0,0,1,206.31,178.22Zm-7.94-23.88a6.3,6.3,0,1,1,4-8A6.31,6.31,0,0,1,198.37,154.34ZM196,198.63A8.93,8.93,0,1,1,184.68,193,8.92,8.92,0,0,1,196,198.63Zm-13.55-12.46a7.69,7.69,0,1,1,4.89-9.73A7.7,7.7,0,0,1,182.41,186.17Zm-7.94-23.88a6.31,6.31,0,1,1,4-8A6.31,6.31,0,0,1,174.47,162.29Zm-2.41,44.28a8.94,8.94,0,1,1-11.29-5.63A8.92,8.92,0,0,1,172.06,206.57ZM158.5,194.12a7.69,7.69,0,1,1,4.9-9.73A7.7,7.7,0,0,1,158.5,194.12Zm-7.94-23.89a6.3,6.3,0,1,1,4-8A6.32,6.32,0,0,1,150.56,170.23Zm-2.41,44.29a8.93,8.93,0,1,1-11.28-5.63A8.91,8.91,0,0,1,148.15,214.52ZM134.6,202.06a7.69,7.69,0,1,1,4.9-9.73A7.7,7.7,0,0,1,134.6,202.06Zm-7.94-23.88a6.3,6.3,0,1,1,4-8A6.31,6.31,0,0,1,126.66,178.18Zm-2.41,44.29A8.93,8.93,0,1,1,113,216.84,8.92,8.92,0,0,1,124.25,222.47ZM110.7,210a7.69,7.69,0,1,1,4.89-9.73A7.7,7.7,0,0,1,110.7,210Zm-7.94-23.89a6.3,6.3,0,1,1,4-8A6.3,6.3,0,0,1,102.76,186.12Zm-2.41,44.29a8.94,8.94,0,1,1-11.29-5.63A8.91,8.91,0,0,1,100.35,230.41ZM86.79,218a7.69,7.69,0,1,1,4.9-9.73A7.7,7.7,0,0,1,86.79,218Zm-7.94-23.89a6.3,6.3,0,1,1,4-8A6.31,6.31,0,0,1,78.85,194.07Zm-1.38,44.12a7.72,7.72,0,1,1-9.75-4.86A7.71,7.71,0,0,1,77.47,238.19ZM64.63,224a6.3,6.3,0,1,1,4-8A6.31,6.31,0,0,1,64.63,224ZM57.14,201.5a6.34,6.34,0,1,1,4-8A6.35,6.35,0,0,1,57.14,201.5Zm-.66,43.67a7.72,7.72,0,1,1-9.75-4.86A7.71,7.71,0,0,1,56.48,245.17ZM43.64,231a6.3,6.3,0,1,1,4-8A6.31,6.31,0,0,1,43.64,231Zm-8.53,96.27a8.93,8.93,0,1,1-11.28-5.63A8.91,8.91,0,0,1,35.11,327.28Zm-3.93,16.5a9.37,9.37,0,1,1-6,11.85A9.38,9.38,0,0,1,31.18,343.78Zm14.88,44.75a10.05,10.05,0,1,1-6.4,12.72A10.06,10.06,0,0,1,46.06,388.53Zm8.61-17.24a10.09,10.09,0,1,1,12.74,6.35A10.07,10.07,0,0,1,54.67,371.29Zm13.64,9.07a11.12,11.12,0,1,1-7.08,14.07A11.14,11.14,0,0,1,68.31,380.36Zm7.93-15.9a11.16,11.16,0,0,1,20.64-8.34,11.13,11.13,0,1,1,.89,2.67,11.16,11.16,0,0,1-21.53,5.67ZM91,373.51a11.14,11.14,0,0,1,13.56,5.73,11.12,11.12,0,1,1,.89,2.67A11.15,11.15,0,1,1,91,373.51Zm50.21,8.16a11.12,11.12,0,1,1-7.09,14.07A11.14,11.14,0,0,1,141.22,381.67Zm9.26-16.6a11.16,11.16,0,1,1,14.1,7A11.15,11.15,0,0,1,150.48,365.07Zm14.64,8.66A11.12,11.12,0,1,1,158,387.8,11.14,11.14,0,0,1,165.12,373.73Zm7.56,22.72a11.12,11.12,0,1,1-7.09,14.08A11.14,11.14,0,0,1,172.68,396.45Zm9.26-16.6a11.16,11.16,0,1,1,14.1,7A11.14,11.14,0,0,1,181.94,379.85Zm14.64,8.66a11.12,11.12,0,1,1-7.08,14.07A11.14,11.14,0,0,1,196.58,388.51Zm9.27-16.61a11.15,11.15,0,1,1,14.09,7A11.14,11.14,0,0,1,205.85,371.9Zm14.63,8.66a11.12,11.12,0,1,1-7.08,14.07A11.15,11.15,0,0,1,220.48,380.56Zm9.27-16.6a11.16,11.16,0,1,1,14.1,7A11.13,11.13,0,0,1,229.75,364Zm14.64,8.66a11.12,11.12,0,1,1-7.09,14.07A11.12,11.12,0,0,1,244.39,372.62Zm7.75,23.31A11.12,11.12,0,1,1,245.05,410,11.12,11.12,0,0,1,252.14,395.93Zm9.07-17.19a11.16,11.16,0,1,1,14.1,7A11.13,11.13,0,0,1,261.21,378.74ZM276,388A11.12,11.12,0,1,1,269,402.05,11.15,11.15,0,0,1,276,388Zm9.07-17.19a11.16,11.16,0,1,1,14.1,7A11.15,11.15,0,0,1,285.11,370.79ZM299.94,380a11.12,11.12,0,1,1-7.08,14.07A11.14,11.14,0,0,1,299.94,380ZM309,362.85a11.16,11.16,0,1,1,14.09,7A11.13,11.13,0,0,1,309,362.85Zm14.83,9.24a11.12,11.12,0,1,1-7.08,14.07A11.13,11.13,0,0,1,323.85,372.09Zm7.57,22.77a11.12,11.12,0,1,1-7.09,14.07A11.13,11.13,0,0,1,331.42,394.86Zm9.07-16.59a11.16,11.16,0,1,1,14.1,7A11.15,11.15,0,0,1,340.49,378.27Zm14.65,8.7A11.12,11.12,0,1,1,348.06,401,11.14,11.14,0,0,1,355.14,387Zm8.79-16.49a11.16,11.16,0,1,1,14.1,7A11.13,11.13,0,0,1,363.93,370.48Zm14.65,8.7a11.12,11.12,0,1,1-7.08,14.07A11.14,11.14,0,0,1,378.58,379.18Zm30.12-24.74a11.16,11.16,0,1,1,14.09,7A11.13,11.13,0,0,1,408.7,354.44Zm6.54-15.7a11.12,11.12,0,1,1,7.08-14.07A11.14,11.14,0,0,1,415.24,338.74ZM407.68,316a11.12,11.12,0,1,1,7.09-14.07A11.12,11.12,0,0,1,407.68,316Zm1-36.71a11.16,11.16,0,1,1,14.09,7A11.14,11.14,0,0,1,408.64,279.3Zm6.18-16.79a10,10,0,1,1,6.4-12.72A10.07,10.07,0,0,1,414.82,262.51Zm2-35.86a9.4,9.4,0,1,1,11.88,5.93A9.38,9.38,0,0,1,416.82,226.65Zm9.88-53.36a6.32,6.32,0,1,1,8,4A6.31,6.31,0,0,1,426.7,173.29Zm4.53-26.57a6.35,6.35,0,1,1-8-4A6.34,6.34,0,0,1,431.23,146.72Zm-15.42-26.24a5,5,0,1,1-3.18,6.31A5,5,0,0,1,415.81,120.48Zm-7.09-21.33a3.68,3.68,0,1,1-2.34,4.65A3.69,3.69,0,0,1,408.72,99.15Zm.52,54.83a6.33,6.33,0,1,1-8-4A6.31,6.31,0,0,1,409.24,154Zm-7.47-22.58a6.36,6.36,0,1,1-8-4A6.36,6.36,0,0,1,401.77,131.4Zm-15.43-26.25a5,5,0,1,1-3.18,6.32A5,5,0,0,1,386.34,105.15Zm-7.09-21.32a3.68,3.68,0,1,1-2.34,4.65A3.69,3.69,0,0,1,379.25,83.83Zm.8,54a6.33,6.33,0,1,1-8-4A6.31,6.31,0,0,1,380.05,137.87Zm-7.47-22.58a6.36,6.36,0,1,1-8-4A6.34,6.34,0,0,1,372.58,115.29ZM357.15,89A5,5,0,1,1,354,95.35,5,5,0,0,1,357.15,89Zm-7.09-21.32a3.67,3.67,0,1,1-2.34,4.65A3.68,3.68,0,0,1,350.06,67.72Zm-.19,54.34a6.32,6.32,0,1,1-8-4A6.31,6.31,0,0,1,349.87,122.06ZM342.4,99.48a6.35,6.35,0,1,1-8-4A6.34,6.34,0,0,1,342.4,99.48ZM327,73.23a5,5,0,1,1-3.18,6.32A5,5,0,0,1,327,73.23Zm-7.09-21.32a3.67,3.67,0,1,1-2.34,4.65A3.69,3.69,0,0,1,319.89,51.91Zm-.34,55.17a6.35,6.35,0,1,1-8-4A6.33,6.33,0,0,1,319.55,107.08ZM304.13,80.83A5,5,0,1,1,301,87.14,5,5,0,0,1,304.13,80.83ZM297,59.51a3.67,3.67,0,1,1-2.34,4.65A3.69,3.69,0,0,1,297,59.51Zm.32,55.28a6.33,6.33,0,1,1-8-4A6.31,6.31,0,0,1,297.36,114.79Zm-7.47-22.58a6.36,6.36,0,1,1-8-4A6.36,6.36,0,0,1,289.89,92.21ZM274.46,66a5,5,0,1,1-3.18,6.32A5,5,0,0,1,274.46,66Zm-7.09-21.32A3.68,3.68,0,1,1,265,49.29,3.69,3.69,0,0,1,267.37,44.64ZM266.45,100a6.36,6.36,0,1,1-8-4A6.35,6.35,0,0,1,266.45,100ZM251,73.76a5,5,0,1,1-3.17,6.31A5,5,0,0,1,251,73.76Zm-7.08-21.33a3.68,3.68,0,1,1-2.34,4.65A3.67,3.67,0,0,1,243.94,52.43Zm-1.22,55.46a6.36,6.36,0,1,1-8-4A6.34,6.34,0,0,1,242.72,107.89ZM227.3,81.64A5,5,0,1,1,224.12,88,5,5,0,0,1,227.3,81.64Zm-7.09-21.32A3.67,3.67,0,1,1,217.87,65,3.68,3.68,0,0,1,220.21,60.32Zm-1.39,55.52a6.36,6.36,0,1,1-8-4A6.34,6.34,0,0,1,218.82,115.84ZM203.39,89.59a5,5,0,1,1-3.18,6.31A5,5,0,0,1,203.39,89.59ZM196.3,68.27A3.67,3.67,0,1,1,194,72.92,3.68,3.68,0,0,1,196.3,68.27Zm-1.39,55.51a6.35,6.35,0,1,1-8-4A6.34,6.34,0,0,1,194.91,123.78ZM179.49,97.54a5,5,0,1,1-3.18,6.31A5,5,0,0,1,179.49,97.54ZM172.4,76.21a3.68,3.68,0,1,1-2.34,4.65A3.69,3.69,0,0,1,172.4,76.21ZM171,131.73a6.36,6.36,0,1,1-8-4A6.35,6.35,0,0,1,171,131.73Zm-15.43-26.25a5,5,0,1,1-3.17,6.32A5,5,0,0,1,155.58,105.48ZM148.5,84.16a3.67,3.67,0,1,1-2.34,4.65A3.68,3.68,0,0,1,148.5,84.16Zm-1.39,55.52a6.36,6.36,0,1,1-8-4A6.34,6.34,0,0,1,147.11,139.68Zm-15.43-26.25a5,5,0,1,1-3.18,6.31A5,5,0,0,1,131.68,113.43Zm-7.09-21.32a3.67,3.67,0,1,1-2.34,4.65A3.67,3.67,0,0,1,124.59,92.11Zm-1.39,55.51a6.35,6.35,0,1,1-8-4A6.34,6.34,0,0,1,123.2,147.62Zm-15.42-26.25a5,5,0,1,1-3.18,6.32A5,5,0,0,1,107.78,121.37Zm-7.09-21.32a3.67,3.67,0,1,1-2.34,4.65A3.69,3.69,0,0,1,100.69,100.05ZM99.3,155.57a6.36,6.36,0,1,1-8-4A6.35,6.35,0,0,1,99.3,155.57ZM83.87,129.32a5,5,0,1,1-3.17,6.31A5,5,0,0,1,83.87,129.32ZM76.79,108a3.67,3.67,0,1,1-2.34,4.65A3.68,3.68,0,0,1,76.79,108ZM75.4,163.51a6.36,6.36,0,1,1-8-4A6.36,6.36,0,0,1,75.4,163.51ZM60,137.27a5,5,0,1,1-3.18,6.31A5,5,0,0,1,60,137.27ZM52.88,116a3.67,3.67,0,1,1-2.34,4.64A3.67,3.67,0,0,1,52.88,116Zm-7.13,51.28a5,5,0,1,1-3.18,6.31A5,5,0,0,1,45.75,167.23Zm-7.09-21.32a3.67,3.67,0,1,1-2.34,4.65A3.69,3.69,0,0,1,38.66,145.91Zm1.52,54.55a6.36,6.36,0,1,1-8-4A6.33,6.33,0,0,1,40.18,200.46ZM24.76,174.21a5,5,0,1,1-3.18,6.31A5,5,0,0,1,24.76,174.21Zm-7.09-21.32a3.67,3.67,0,1,1-2.34,4.65A3.69,3.69,0,0,1,17.67,152.89ZM5,189.82a3.67,3.67,0,1,1,2.33-4.65A3.68,3.68,0,0,1,5,189.82Zm1.59,20.66a5,5,0,1,1,6.32,3.16A5,5,0,0,1,6.57,210.48ZM5.63,287a6.32,6.32,0,1,1,8,4A6.31,6.31,0,0,1,5.63,287Zm11.08,13.28a7.69,7.69,0,1,1-4.9,9.73A7.7,7.7,0,0,1,16.71,300.23ZM2.85,363.47a8.93,8.93,0,1,1,11.28,5.62A8.92,8.92,0,0,1,2.85,363.47Zm7.06,22.71a9.4,9.4,0,1,1,11.87,5.93A9.38,9.38,0,0,1,9.91,386.18ZM14,445.83a10,10,0,1,1,6.4-12.71A10.06,10.06,0,0,1,14,445.83Zm23.09-7.67a10.05,10.05,0,1,1,6.4-12.72A10.07,10.07,0,0,1,37.09,438.16Zm23.23-6.74a11.12,11.12,0,1,1,7.08-14.07A11.14,11.14,0,0,1,60.32,431.42Zm8.6-13.88a11.16,11.16,0,1,1,14.09,7A11.14,11.14,0,0,1,68.92,417.54ZM90.45,447a11.12,11.12,0,1,1,7.08-14.07A11.14,11.14,0,0,1,90.45,447ZM134,432.74A11.14,11.14,0,0,1,120.45,427a11.13,11.13,0,1,1-.89-2.67,11.15,11.15,0,1,1,14.45,8.4Zm7.68-14.27a11.16,11.16,0,1,1,14.1,7A11.13,11.13,0,0,1,141.69,418.47Zm21.85,30.35a11.12,11.12,0,1,1,7.08-14.08A11.15,11.15,0,0,1,163.54,448.82Zm23.9-7.95a11.12,11.12,0,1,1,7.08-14.07A11.14,11.14,0,0,1,187.44,440.87Zm23.9-7.95a11.12,11.12,0,1,1,7.09-14.07A11.12,11.12,0,0,1,211.34,432.92Zm9.81-15a11.16,11.16,0,1,1,14.1,7A11.14,11.14,0,0,1,221.15,418Zm21.67,29.79a11.12,11.12,0,1,1,7.08-14.07A11.14,11.14,0,0,1,242.82,447.74Zm23.9-7.94a11.12,11.12,0,1,1,7.08-14.08A11.15,11.15,0,0,1,266.72,439.8Zm23.9-7.95a11.12,11.12,0,1,1,7.08-14.07A11.13,11.13,0,0,1,290.62,431.85Zm9.81-15a11.16,11.16,0,1,1,14.1,7A11.14,11.14,0,0,1,300.43,416.87Zm21.33,29.36a11.12,11.12,0,1,1,7.08-14.07A11.15,11.15,0,0,1,321.76,446.23Zm23.9-8a11.12,11.12,0,1,1,7.08-14.07A11.14,11.14,0,0,1,345.66,438.28Zm23.73-7.89a11.12,11.12,0,1,1,7.08-14.07A11.14,11.14,0,0,1,369.39,430.39Zm9.51-14.88a11.16,11.16,0,1,1,14.1,7A11.14,11.14,0,0,1,378.9,415.51Zm21.83,30.3a11.12,11.12,0,1,1,7.08-14.07A11.14,11.14,0,0,1,400.73,445.81Zm22.72-7.55a11.12,11.12,0,1,1,7.08-14.07A11.14,11.14,0,0,1,423.45,438.26Zm21.74-44.78a11.16,11.16,0,1,1-14.09-7A11.14,11.14,0,0,1,445.19,393.48Zm-7.56-22.77a11.16,11.16,0,1,1-14.1-7A11.14,11.14,0,0,1,437.63,370.71Zm7.31-53a11.16,11.16,0,1,1-14.1-7A11.13,11.13,0,0,1,444.94,317.75Zm-7.44-22.38a11.16,11.16,0,1,1-14.1-7A11.13,11.13,0,0,1,437.5,295.37Zm4.67-52.08a9.4,9.4,0,1,1-11.88-5.92A9.39,9.39,0,0,1,442.17,243.29Zm5.36-51.86a7.72,7.72,0,1,1-9.75-4.86A7.7,7.7,0,0,1,447.53,191.43Zm-7.12-70.49a3.67,3.67,0,1,1,2.34-4.65A3.69,3.69,0,0,1,440.41,120.94Z" style="fill:#fff"/></svg>