<?xml version="1.0" encoding="UTF-8"?> <!-- Generator: Adobe Illustrator 24.2.0, SVG Export Plug-In . SVG Version: 6.00 Build 0) --> <svg xmlns="http://www.w3.org/2000/svg" xmlns:xlink="http://www.w3.org/1999/xlink" version="1.1" id="Layer_1" x="0px" y="0px" viewBox="0 0 576 512" style="enable-background:new 0 0 576 512;" xml:space="preserve"> <style type="text/css"> .st0{fill:#F8F8F8;} </style> <path class="st0" d="M574.1,280.4L528.8,98.7c-5.9-23.7-21.6-44-43-55.8c-21.4-11.7-47-14.1-70.2-6.3l-15.2,5.1 c-8.4,2.8-12.9,11.9-10.1,20.2l5.1,15.2c2.8,8.4,11.9,12.9,20.2,10.1l13.2-4.4c10.9-3.6,23-3.6,33.2,1.7 c10.3,5.4,17.6,14.6,20.4,25.8l38.5,153.8c-22.2-6.8-49.8-12.5-81.2-12.5c-34.8,0-74,7-114.9,26.7h-73.2 c-40.9-19.7-80.1-26.8-114.9-26.8c-31.4,0-59,5.6-81.2,12.5l38.5-153.8c2.8-11.2,10.1-20.4,20.4-25.8c10.2-5.3,22.3-5.3,33.2-1.7 l13.2,4.4c8.4,2.8,17.4-1.7,20.2-10.1l5.1-15.2c2.8-8.4-1.7-17.5-10.1-20.2l-15.2-5.1c-23.2-7.8-48.8-5.4-70.2,6.3 C68.8,54.6,53.2,75,47.2,98.6L1.9,280.4C0.6,285.4,0,290.6,0,295.9v70.2C0,429,51.6,480,115.2,480h37.1 c60.3,0,110.4-45.9,114.9-105.4l2.9-38.6h35.8l2.9,38.6c4.5,59.4,54.6,105.4,114.9,105.4h37.1c63.6,0,115.2-51,115.2-113.9v-70.2 C576,290.6,575.4,285.4,574.1,280.4z M203.4,369.8c-2,25.9-24.4,46.2-51.1,46.2h-37.1C87,416,64,393.6,64,366.1v-37.5 c18.1-6.5,43.4-12.9,72.6-12.9c23.9,0,47.3,4.3,69.9,12.9L203.4,369.8L203.4,369.8z M512,366.1c0,27.5-23,49.9-51.2,49.9h-37.1 c-26.7,0-49.1-20.3-51.1-46.2l-3.1-41.2c22.7-8.6,46.1-12.9,70-12.9c29.1,0,54.4,6.4,72.5,12.9L512,366.1L512,366.1z"></path> </svg> 