<?xml version="1.0" encoding="utf-8"?>
<!-- Generator: Adobe Illustrator 24.1.3, SVG Export Plug-In . SVG Version: 6.00 Build 0)  -->
<svg version="1.1" id="Capa_1" xmlns="http://www.w3.org/2000/svg" xmlns:xlink="http://www.w3.org/1999/xlink" x="0px" y="0px"
	 viewBox="0 0 1096 780" style="enable-background:new 0 0 1096 780;" xml:space="preserve">
<style type="text/css">
	.st0{fill:none;stroke:#3F4547;stroke-width:90;stroke-miterlimit:10;}
	.st1{fill:none;stroke:#FFFFFF;stroke-width:7;stroke-miterlimit:10;}
	.st2{fill:none;stroke:#FFFFFF;stroke-width:7;stroke-miterlimit:10;stroke-dasharray:20.0698,25.0872;}
	.st3{fill:#006EB6;}
	.st4{display:none;}
	.st5{display:inline;}
	.st6{fill:#006EB6;stroke:url(#SVGID_1_);stroke-width:6;stroke-miterlimit:10;}
	.st7{fill:url(#SVGID_2_);}
	.st8{fill:none;stroke:url(#SVGID_3_);stroke-width:6;stroke-miterlimit:10;}
	.st9{fill:#FFFFFF;}
	.st10{fill:url(#SVGID_4_);}
	.st11{fill:none;stroke:url(#SVGID_5_);stroke-width:6;stroke-miterlimit:10;}
	.st12{fill:#FDCF41;}
	.st13{fill:#FF5100;}
	.st14{fill:none;stroke:url(#SVGID_6_);stroke-width:6;stroke-miterlimit:10;}
	.st15{fill:url(#SVGID_7_);}
	.st16{fill:none;stroke:url(#SVGID_8_);stroke-width:6;stroke-miterlimit:10;}
</style>
<g id="road">
	
		<image style="overflow:visible;opacity:0.9;enable-background:new    ;" width="4942" height="3288" xlink:href="B4D641284F642D65.png"  transform="matrix(0.2398 0 0 0.2398 -32.5789 -10.88)">
	</image>
	<g>
		<path class="st0" d="M0,694.1h60.4c36.7,0,66.4-29.7,66.4-66.4l0,0c0-36.7,29.7-66.4,66.4-66.4h3.3c36.7,0,66.4,29.7,66.4,66.4
			l0,0c0,36.7,29.7,66.4,66.4,66.4h13.1c36.7,0,66.4-29.7,66.4-66.4V451.2c0-37.6,30.4-68,68-68l0,0c37.6,0,68,30.4,68,68v168.9
			c0,40.9,33.1,74,74,74l0,0c40.9,0,74-33.1,74-74V252.7c0-38.9,31.6-70.5,70.5-70.5l0,0c38.9,0,70.5,31.6,70.5,70.5v371.4
			c0,38.7,31.3,70,70,70l0,0c38.7,0,70-31.3,70-70V162.6c0-55.5,45-100.4,100.4-100.4h21.6"/>
	</g>
</g>
<g id="road_lines">
	<g>
		<line class="st1" x1="5" y1="700.1" x2="15" y2="700.1"/>
		<path class="st2" d="M40.1,700.1h20.3c36.7,0,66.4-29.7,66.4-66.4l0,0c0-36.7,29.7-66.4,66.4-66.4h3.3c36.7,0,66.4,29.7,66.4,66.4
			l0,0c0,36.7,29.7,66.4,66.4,66.4h13.1c36.7,0,66.4-29.7,66.4-66.4V457.2c0-37.6,30.4-68,68-68l0,0c37.6,0,68,30.4,68,68v168.9
			c0,40.9,33.1,74,74,74l0,0c40.9,0,74-33.1,74-74V258.7c0-38.9,31.6-70.5,70.5-70.5l0,0c38.9,0,70.5,31.6,70.5,70.5v371.4
			c0,38.7,31.3,70,70,70l0,0c38.7,0,70-31.3,70-70V168.6c0-55.1,44.4-99.9,99.5-100.4"/>
		<line class="st1" x1="1086" y1="68.2" x2="1096" y2="68.2"/>
	</g>
</g>
<g>
	<g>
		
			<image style="overflow:visible;opacity:0.8;enable-background:new    ;" width="567" height="796" xlink:href="B4D641284F642D67.png"  transform="matrix(0.2383 0 0 0.2383 129 400.5539)">
		</image>
		<g>
			<path class="st3" d="M242.3,483.9l-45.7,81l-45.7-81c-14.2-25.2-5.3-57.2,19.9-71.4s57.2-5.3,71.4,19.9
				C251.6,448.9,251,468.4,242.3,483.9z"/>
		</g>
	</g>
	<g class="st4">
		
			<image style="display:inline;overflow:visible;opacity:0.75;enable-background:new    ;" width="425" height="425" xlink:href="B4D641284F642D62.png"  transform="matrix(0.2377 0 0 0.2377 146.04 411.64)">
		</image>
		<g class="st5">
			<g>
				
					<linearGradient id="SVGID_1_" gradientUnits="userSpaceOnUse" x1="196.6" y1="282.4" x2="196.6" y2="365.2" gradientTransform="matrix(1 0 0 -1 0 782)">
					<stop  offset="6.693625e-02" style="stop-color:#FFFFFF"/>
					<stop  offset="0.1168" style="stop-color:#FEFEFE"/>
					<stop  offset="1" style="stop-color:#EDEDED"/>
				</linearGradient>
				<circle class="st6" cx="196.6" cy="458.2" r="38.4"/>
				<path class="st3" d="M215.3,473.9l-13.8,1.8l-1.7-6.3h-6.3l-1.4,6.3l-14.2-1.4l11.1-37.1l15.5-0.8L215.3,473.9z M198.8,460.9
					l-2.1-9.7l-2.1,9.7H198.8z"/>
			</g>
		</g>
	</g>
</g>
<g class="st4">
	<g class="st5">
		
			<image style="overflow:visible;opacity:0.8;enable-background:new    ;" width="567" height="796" xlink:href="B4D641284F642D63.png"  transform="matrix(0.2382 0 0 0.2382 264.8729 528.88)">
		</image>
		<g>
			<g>
				
					<linearGradient id="SVGID_2_" gradientUnits="userSpaceOnUse" x1="332.4089" y1="248.059" x2="332.4089" y2="88.9" gradientTransform="matrix(1 0 0 -1 0 782)">
					<stop  offset="0" style="stop-color:#FF3B3B"/>
					<stop  offset="0.1873" style="stop-color:#E72D2D"/>
					<stop  offset="0.5453" style="stop-color:#BE1615"/>
					<stop  offset="0.8286" style="stop-color:#A50706"/>
					<stop  offset="1" style="stop-color:#9C0201"/>
				</linearGradient>
				<path class="st7" d="M378.1,612.1l-45.7,81l-45.7-81c-14.2-25.2-5.3-57.2,19.9-71.4c25.2-14.2,57.2-5.3,71.4,19.9
					C387.5,577.1,386.8,596.7,378.1,612.1z"/>
			</g>
		</g>
	</g>
	<g>
		
			<image style="display:inline;overflow:visible;opacity:0.75;enable-background:new    ;" width="425" height="425" xlink:href="B4D641284F642D6D.png"  transform="matrix(0.2377 0 0 0.2377 281.88 540.64)">
		</image>
		<g class="st5">
			<g>
				
					<linearGradient id="SVGID_3_" gradientUnits="userSpaceOnUse" x1="332.4" y1="153.6" x2="332.4" y2="236.4" gradientTransform="matrix(1 0 0 -1 0 782)">
					<stop  offset="6.693625e-02" style="stop-color:#FFFFFF"/>
					<stop  offset="0.1168" style="stop-color:#FEFEFE"/>
					<stop  offset="1" style="stop-color:#EDEDED"/>
				</linearGradient>
				<circle class="st8" cx="332.4" cy="587" r="38.4"/>
			</g>
		</g>
	</g>
	<g>
		
			<image style="display:inline;overflow:visible;opacity:0.8;enable-background:new    ;" width="217" height="254" xlink:href="B4D641284F642D6F.png"  transform="matrix(0.2356 0 0 0.2356 308.52 561.2418)">
		</image>
		<g class="st5">
			<path class="st9" d="M350.5,596.2c0,1.6-0.3,2.9-0.9,4s-1.3,2.1-2.3,2.9c-1,0.8-2.1,1.4-3.3,1.9c-1.3,0.5-2.6,0.9-3.9,1.2
				c-1.4,0.3-2.7,0.5-4.1,0.6s-2.6,0.1-3.8,0.1c-1.2,0-2.4,0-3.6-0.1c-1.3-0.1-2.5-0.2-3.7-0.4s-2.5-0.5-3.7-0.8s-2.3-0.8-3.4-1.3
				l-0.1-36.4c1.1-0.4,2.2-0.8,3.4-1.2c1.2-0.3,2.4-0.6,3.6-0.9c1.2-0.2,2.5-0.4,3.7-0.5s2.4-0.2,3.6-0.2c1.3,0,2.7,0.1,4.1,0.3
				s2.7,0.5,3.9,0.8c1.3,0.4,2.4,0.9,3.5,1.5s2,1.4,2.9,2.3c0.8,0.9,1.5,2,1.9,3.2c0.5,1.2,0.7,2.6,0.7,4.2c0,1.1-0.2,2-0.5,3
				c-0.3,0.9-0.7,1.8-1.3,2.5c-0.6,0.7-1.3,1.4-2.1,1.9c-0.8,0.5-1.7,0.9-2.7,1.1c1.2,0.3,2.3,0.8,3.3,1.4c1,0.6,1.9,1.4,2.6,2.3
				c0.7,0.9,1.3,1.9,1.6,3C350.3,593.7,350.5,594.9,350.5,596.2z M332.2,589.3c-0.5,0-1.1,0.1-1.6,0.2l-0.1,6.4
				c0.3,0.1,0.6,0.1,0.8,0.2c0.3,0,0.5,0.1,0.8,0.1c0.4,0,0.8,0,1.3-0.1s0.9-0.3,1.3-0.5c0.4-0.3,0.8-0.6,1-1c0.3-0.4,0.4-1,0.4-1.7
				s-0.1-1.3-0.4-1.8s-0.6-0.8-1-1.1s-0.8-0.4-1.3-0.5C333,589.3,332.6,589.3,332.2,589.3z M336.2,580.1c0-0.5-0.1-1-0.3-1.4
				c-0.2-0.4-0.5-0.7-0.8-0.9s-0.7-0.4-1.1-0.5s-0.7-0.2-1-0.2c-0.4,0-0.7,0.1-1.1,0.2c-0.4,0.1-0.7,0.2-1,0.4l-0.2,6.3
				c0.4,0,1,0,1.6-0.1s1.3-0.2,1.9-0.5s1.1-0.6,1.5-1.1C336,581.6,336.2,580.9,336.2,580.1z"/>
		</g>
	</g>
</g>
<g class="st4">
	<g class="st5">
		
			<image style="overflow:visible;opacity:0.8;enable-background:new    ;" width="567" height="792" xlink:href="B4D641284F642D60.png"  transform="matrix(0.2383 0 0 0.2383 410.52 220.3105)">
		</image>
		<g>
			<g>
				
					<linearGradient id="SVGID_4_" gradientUnits="userSpaceOnUse" x1="861.3124" y1="-171.2998" x2="861.3124" y2="-330.4587" gradientTransform="matrix(1 0 0 -1 -383.3409 53.7413)">
					<stop  offset="0" style="stop-color:#6CDE40"/>
					<stop  offset="1" style="stop-color:#268C00"/>
				</linearGradient>
				<path class="st10" d="M523.7,303.2l-45.7,81l-45.7-81c-14.2-25.2-5.3-57.2,19.9-71.4c25.2-14.2,57.2-5.3,71.4,19.9
					C533,268.3,532.3,287.8,523.7,303.2z"/>
			</g>
		</g>
	</g>
	<g>
		
			<image style="display:inline;overflow:visible;opacity:0.75;enable-background:new    ;" width="425" height="425" xlink:href="B4D641284F642D61.png"  transform="matrix(0.2377 0 0 0.2377 427.56 230.56)">
		</image>
		<g class="st5">
			<g>
				
					<linearGradient id="SVGID_5_" gradientUnits="userSpaceOnUse" x1="478" y1="463.6" x2="478" y2="546.4" gradientTransform="matrix(1 0 0 -1 0 782)">
					<stop  offset="6.693625e-02" style="stop-color:#FFFFFF"/>
					<stop  offset="0.1168" style="stop-color:#FEFEFE"/>
					<stop  offset="1" style="stop-color:#EDEDED"/>
				</linearGradient>
				
					<ellipse transform="matrix(0.1602 -0.9871 0.9871 0.1602 128.0097 704.4573)" class="st11" cx="478" cy="277" rx="38.4" ry="38.4"/>
			</g>
		</g>
	</g>
	<g>
		
			<image style="display:inline;overflow:visible;opacity:0.8;enable-background:new    ;" width="208" height="258" xlink:href="B4D641284F642D66.png"  transform="matrix(0.2354 0 0 0.2354 450.84 250.7154)">
		</image>
		<g class="st5">
			<path class="st9" d="M490.5,256.2l-1.7,12.5c-0.6-0.2-1.1-0.3-1.7-0.3c-0.6-0.1-1.1-0.1-1.7-0.1c-1.5,0-2.9,0.2-4.2,0.6
				c-1.3,0.4-2.5,1-3.5,1.8s-1.8,1.8-2.4,3s-0.9,2.6-0.9,4.2c0,1,0.2,1.9,0.5,2.7c0.3,0.8,0.8,1.4,1.4,1.9s1.3,0.9,2.1,1.1
				c0.8,0.2,1.7,0.4,2.7,0.4c0.7,0,1.5-0.1,2.3-0.2c0.8-0.2,1.6-0.4,2.3-0.6c0.8-0.3,1.5-0.6,2.2-0.9s1.4-0.7,2-1l-1.2,13.9
				c-0.8,0.4-1.6,0.7-2.5,1.1c-0.9,0.3-1.8,0.6-2.8,0.8c-0.9,0.2-1.9,0.4-2.8,0.5s-1.9,0.2-2.7,0.2c-2.5,0-4.8-0.5-7-1.4
				s-4.1-2.2-5.7-3.8c-1.6-1.6-2.9-3.5-3.8-5.7s-1.4-4.6-1.4-7.1c0-3.4,0.5-6.6,1.4-9.5c1-3,2.4-5.6,4.3-7.9c1.9-2.2,4.2-4,7-5.3
				c2.8-1.3,6-2,9.6-2c1.4,0,2.8,0.1,4.2,0.3C487.9,255.2,489.2,255.6,490.5,256.2z"/>
		</g>
	</g>
</g>
<g>
	<g>
		
			<image style="overflow:visible;opacity:0.8;enable-background:new    ;" width="567" height="796" xlink:href="22F76AD3797A8FAE.png"  transform="matrix(0.2382 0 0 0.2382 551.7929 528.88)">
		</image>
		<g>
			<g>
				<path class="st12" d="M664.8,612.2l-45.8,81L573.5,612c-14.2-25.2-5.2-57.2,20-71.4s57.2-5.2,71.4,20
					C674.2,577.2,673.5,596.7,664.8,612.2z"/>
			</g>
		</g>
	</g>
	<g class="st4">
		
			<image style="display:inline;overflow:visible;opacity:0.8;enable-background:new    ;" width="229" height="267" xlink:href="22F76AD3797A8FA9.png"  transform="matrix(0.2364 0 0 0.2364 594.1717 558.64)">
		</image>
		<g class="st5">
			<path class="st12" d="M639.1,582.6c0,2.9-0.4,5.6-1.1,8c-0.8,2.4-1.8,4.5-3.2,6.3s-3,3.4-4.8,4.7c-1.9,1.3-3.9,2.4-6.2,3.3
				c-2.2,0.9-4.6,1.5-7.1,1.9s-5.1,0.6-7.7,0.6c-1,0-2,0-2.9-0.1s-1.9-0.1-2.9-0.2l0.9-42.3c2.3-0.7,4.7-1.3,7.1-1.6
				c2.4-0.3,4.9-0.5,7.3-0.5c3,0,5.8,0.5,8.3,1.4s4.7,2.2,6.5,3.9s3.3,3.8,4.3,6.2C638.6,576.7,639.1,579.4,639.1,582.6z
				 M626.2,584.6c0-1.1-0.1-2.2-0.4-3.3c-0.3-1.1-0.7-2-1.3-2.8s-1.4-1.5-2.3-2c-0.9-0.5-2-0.8-3.3-0.8l-1.3,19.6
				c1.3-0.2,2.4-0.6,3.4-1.2c1-0.6,1.9-1.4,2.7-2.4c0.7-0.9,1.3-2,1.7-3.1s0.6-2.3,0.7-3.5L626.2,584.6L626.2,584.6z"/>
		</g>
	</g>
</g>
<g>
	
		<image style="overflow:visible;opacity:0.8;enable-background:new    ;" width="571" height="796" xlink:href="22F76AD3797A8FAA.png"  transform="matrix(0.2371 0 0 0.2371 693.96 21.011)">
	</image>
	<g>
		<g>
			<path class="st13" d="M807.2,103.9l-45.7,81l-45.7-81c-14.2-25.2-5.3-57.2,19.9-71.4s57.2-5.3,71.4,19.9
				C816.5,68.9,815.8,88.5,807.2,103.9z"/>
			<g class="st4">
				
					<image style="display:inline;overflow:visible;opacity:0.8;enable-background:new    ;" width="425" height="425" xlink:href="22F76AD3797A8FA8.png"  transform="matrix(0.2377 0 0 0.2377 711.12 32.08)">
				</image>
				<g class="st5">
					
						<linearGradient id="SVGID_6_" gradientUnits="userSpaceOnUse" x1="720.1" y1="704.5" x2="802.9" y2="704.5" gradientTransform="matrix(1 0 0 -1 0 782)">
						<stop  offset="6.693625e-02" style="stop-color:#FFFFFF"/>
						<stop  offset="0.1168" style="stop-color:#FEFEFE"/>
						<stop  offset="1" style="stop-color:#EDEDED"/>
					</linearGradient>
					<circle class="st14" cx="761.5" cy="77.5" r="38.4"/>
				</g>
			</g>
		</g>
	</g>
</g>
<g class="st4">
	<g class="st5">
		
			<image style="overflow:visible;opacity:0.8;enable-background:new    ;" width="571" height="796" xlink:href="22F76AD3797A8FA6.png"  transform="matrix(0.2371 0 0 0.2371 839.88 530.291)">
		</image>
		<g>
			<g>
				
					<linearGradient id="SVGID_7_" gradientUnits="userSpaceOnUse" x1="907.3715" y1="247.059" x2="907.3715" y2="87.9" gradientTransform="matrix(1 0 0 -1 0 782)">
					<stop  offset="2.167969e-03" style="stop-color:#944FB5"/>
					<stop  offset="1" style="stop-color:#662483"/>
				</linearGradient>
				<path class="st15" d="M953.1,613.1l-45.7,81l-45.7-81c-14.2-25.2-5.3-57.2,19.9-71.4s57.2-5.3,71.4,19.9
					C962.4,578.1,961.7,597.7,953.1,613.1z"/>
				<g class="st4">
					
						<image style="display:inline;overflow:visible;opacity:0.8;enable-background:new    ;" width="425" height="425" xlink:href="22F76AD3797A8FB9.png"  transform="matrix(0.2377 0 0 0.2377 856.92 541.24)">
					</image>
					<g class="st5">
						
							<linearGradient id="SVGID_8_" gradientUnits="userSpaceOnUse" x1="866" y1="195.2" x2="948.8" y2="195.2" gradientTransform="matrix(1 0 0 -1 0 782)">
							<stop  offset="6.693625e-02" style="stop-color:#FFFFFF"/>
							<stop  offset="0.1168" style="stop-color:#FEFEFE"/>
							<stop  offset="1" style="stop-color:#EDEDED"/>
						</linearGradient>
						<circle class="st16" cx="907.4" cy="586.8" r="38.4"/>
					</g>
				</g>
			</g>
		</g>
	</g>
	<g>
		
			<image style="display:inline;overflow:visible;opacity:0.8;enable-background:new    ;" width="200" height="263" xlink:href="22F76AD3797A8FBA.png"  transform="matrix(0.2363 0 0 0.2363 885.005 561.76)">
		</image>
		<g class="st5">
			<path class="st9" d="M922.8,566c-0.1,1.9-0.2,3.8-0.3,5.6c-0.1,1.9-0.2,3.7-0.4,5.6l-12.8,0.7v3.8h11.1l-0.6,9.4l-10.6,0.3
				l0.1,17.9l-15.3,0.3l1-43.6H922.8z"/>
		</g>
	</g>
</g>
</svg>
