<?xml version="1.0" encoding="UTF-8"?> <!-- Generator: Adobe Illustrator 24.2.0, SVG Export Plug-In . SVG Version: 6.00 Build 0) --> <svg xmlns="http://www.w3.org/2000/svg" xmlns:xlink="http://www.w3.org/1999/xlink" version="1.1" id="Layer_1" x="0px" y="0px" viewBox="0 0 1200 1200" style="enable-background:new 0 0 1200 1200;" xml:space="preserve"> <style type="text/css"> .st0{fill:#FFFFFF;} .st1{fill:#FF5100;} </style> <g> <path class="st0" d="M598.2,1174.7c-77.8,0-153.2-15.2-224.2-45.3c-68.6-29-130.2-70.5-183.1-123.4 C138,953.1,96.4,891.5,67.4,822.9c-30-71-45.3-146.4-45.3-224.2c0-77.8,15.2-153.2,45.3-224.2c29-68.6,70.5-130.2,123.4-183.1 C243.8,138.5,305.4,97,374,67.9c71-30,146.4-45.3,224.2-45.3s153.2,15.2,224.2,45.3c68.6,29,130.2,70.5,183.1,123.4 c52.9,52.9,94.4,114.5,123.4,183.1c30,71,45.3,146.4,45.3,224.2c0,77.8-15.2,153.2-45.3,224.2c-29,68.6-70.5,130.2-123.4,183.1 c-52.9,52.9-114.5,94.4-183.1,123.4C751.4,1159.5,675.9,1174.7,598.2,1174.7z"></path> <path d="M598.2,32.7c76.4,0,150.5,15,220.3,44.5c33.5,14.2,65.9,31.7,96.1,52.2c30,20.3,58.2,43.5,83.8,69.1s48.9,53.8,69.1,83.8 c20.4,30.3,38,62.6,52.2,96.1c29.5,69.8,44.5,143.9,44.5,220.3s-15,150.5-44.5,220.3c-14.2,33.5-31.7,65.9-52.2,96.1 c-20.3,30-43.5,58.2-69.1,83.8c-25.6,25.6-53.8,48.9-83.8,69.1c-30.3,20.4-62.6,38-96.1,52.2c-69.8,29.5-143.9,44.5-220.3,44.5 s-150.5-15-220.3-44.5c-33.5-14.2-65.9-31.7-96.1-52.2c-30-20.3-58.2-43.5-83.8-69.1c-25.6-25.6-48.9-53.8-69.1-83.8 c-20.4-30.3-38-62.6-52.2-96.1c-29.5-69.8-44.5-143.9-44.5-220.3s15-150.5,44.5-220.3c14.2-33.5,31.7-65.9,52.2-96.1 c20.3-30,43.5-58.2,69.1-83.8c25.6-25.6,53.8-48.9,83.8-69.1c30.3-20.4,62.6-38,96.1-52.2C447.6,47.6,521.7,32.7,598.2,32.7 M598.2,12.7c-323.6,0-586,262.4-586,586s262.4,586,586,586s586-262.4,586-586S921.8,12.7,598.2,12.7L598.2,12.7z"></path> </g> <g> <path class="st0" d="M598.2,975.7c-50.9,0-100.3-10-146.7-29.6c-44.9-19-85.2-46.2-119.8-80.8s-61.8-74.9-80.8-119.8 c-19.7-46.5-29.6-95.8-29.6-146.7c0-50.9,10-100.3,29.6-146.7c19-44.9,46.2-85.2,80.8-119.8c34.6-34.6,74.9-61.8,119.8-80.8 c46.5-19.7,95.8-29.6,146.7-29.6c50.9,0,100.3,10,146.7,29.6c44.9,19,85.2,46.2,119.8,80.8c34.6,34.6,61.8,74.9,80.8,119.8 c19.7,46.5,29.6,95.8,29.6,146.7s-10,100.3-29.6,146.7c-19,44.9-46.2,85.2-80.8,119.8s-74.9,61.8-119.8,80.8 C698.4,965.7,649.1,975.7,598.2,975.7z"></path> <path d="M598.2,231.7c49.6,0,97.6,9.7,142.8,28.8c43.7,18.5,83,44.9,116.7,78.7c33.7,33.7,60.2,73,78.7,116.7 c19.1,45.2,28.8,93.3,28.8,142.8s-9.7,97.6-28.8,142.8c-18.5,43.7-44.9,83-78.7,116.7c-33.7,33.7-73,60.2-116.7,78.7 c-45.2,19.1-93.3,28.8-142.8,28.8s-97.6-9.7-142.8-28.8c-43.7-18.5-83-44.9-116.7-78.7c-33.7-33.7-60.2-73-78.7-116.7 c-19.1-45.2-28.8-93.3-28.8-142.8s9.7-97.6,28.8-142.8c18.5-43.7,44.9-83,78.7-116.7s73-60.2,116.7-78.7 C500.5,241.4,548.6,231.7,598.2,231.7 M598.2,211.7c-213.7,0-387,173.3-387,387s173.3,387,387,387s387-173.3,387-387 S811.9,211.7,598.2,211.7L598.2,211.7z"></path> </g> <g> <circle class="st1" cx="598.2" cy="598.7" r="162"></circle> <path d="M598.2,446.7c40.6,0,78.8,15.8,107.5,44.5s44.5,66.9,44.5,107.5s-15.8,78.8-44.5,107.5s-66.9,44.5-107.5,44.5 s-78.8-15.8-107.5-44.5s-44.5-66.9-44.5-107.5s15.8-78.8,44.5-107.5S557.6,446.7,598.2,446.7 M598.2,426.7c-95,0-172,77-172,172 s77,172,172,172s172-77,172-172S693.1,426.7,598.2,426.7L598.2,426.7z"></path> </g> </svg> 